%TF.GenerationSoftware,KiCad,Pcbnew,(6.0.0)*%
%TF.CreationDate,2023-05-15T16:31:23+03:00*%
%TF.ProjectId,Plate,506c6174-652e-46b6-9963-61645f706362,rev?*%
%TF.SameCoordinates,Original*%
%TF.FileFunction,Profile,NP*%
%FSLAX46Y46*%
G04 Gerber Fmt 4.6, Leading zero omitted, Abs format (unit mm)*
G04 Created by KiCad (PCBNEW (6.0.0)) date 2023-05-15 16:31:23*
%MOMM*%
%LPD*%
G01*
G04 APERTURE LIST*
%TA.AperFunction,Profile*%
%ADD10C,0.200000*%
%TD*%
G04 APERTURE END LIST*
D10*
X65550033Y-161094752D02*
X66851033Y-159793752D01*
X65550033Y-172492752D02*
X65550033Y-161094752D01*
X66851033Y-173793752D02*
X65550033Y-172492752D01*
X78849033Y-173793752D02*
X66851033Y-173793752D01*
X80150033Y-172492752D02*
X78849033Y-173793752D01*
X80150033Y-161094752D02*
X80150033Y-172492752D01*
X78849033Y-159793752D02*
X80150033Y-161094752D01*
X66851033Y-159793752D02*
X78849033Y-159793752D01*
X102661533Y-159793752D02*
X103962533Y-161094752D01*
X90663533Y-159793752D02*
X102661533Y-159793752D01*
X89362533Y-161094752D02*
X90663533Y-159793752D01*
X89362533Y-172492752D02*
X89362533Y-161094752D01*
X90663533Y-173793752D02*
X89362533Y-172492752D01*
X102661533Y-173793752D02*
X90663533Y-173793752D01*
X103962533Y-172492752D02*
X102661533Y-173793752D01*
X103962533Y-161094752D02*
X103962533Y-172492752D01*
X62088533Y-97593752D02*
X60787533Y-96292752D01*
X74086533Y-97593752D02*
X62088533Y-97593752D01*
X75387533Y-96292752D02*
X74086533Y-97593752D01*
X75387533Y-84894752D02*
X75387533Y-96292752D01*
X74086533Y-83593752D02*
X75387533Y-84894752D01*
X62088533Y-83593752D02*
X74086533Y-83593752D01*
X60787533Y-84894752D02*
X62088533Y-83593752D01*
X60787533Y-96292752D02*
X60787533Y-84894752D01*
X84949033Y-109293752D02*
G75*
G03*
X84949033Y-109293752I-811500J0D01*
G01*
X97662532Y-179993758D02*
G75*
G03*
X97662532Y-179993758I-1000000J0D01*
G01*
X112186533Y-83593752D02*
X113487533Y-84894752D01*
X100188533Y-83593752D02*
X112186533Y-83593752D01*
X98887533Y-84894752D02*
X100188533Y-83593752D01*
X98887533Y-96292752D02*
X98887533Y-84894752D01*
X100188533Y-97593752D02*
X98887533Y-96292752D01*
X112186533Y-97593752D02*
X100188533Y-97593752D01*
X113487533Y-96292752D02*
X112186533Y-97593752D01*
X113487533Y-84894752D02*
X113487533Y-96292752D01*
X226061533Y-128693752D02*
G75*
G03*
X226061533Y-128693752I-811500J0D01*
G01*
X211774033Y-90593752D02*
G75*
G03*
X211774033Y-90593752I-811500J0D01*
G01*
X64136533Y-109643752D02*
G75*
G03*
X64136533Y-109643752I-811500J0D01*
G01*
X78612533Y-78393790D02*
G75*
G03*
X78612533Y-78393790I-1000000J0D01*
G01*
X227787533Y-96292752D02*
X226486533Y-97593752D01*
X227787533Y-84894752D02*
X227787533Y-96292752D01*
X226486533Y-83593752D02*
X227787533Y-84894752D01*
X214488533Y-83593752D02*
X226486533Y-83593752D01*
X213187533Y-84894752D02*
X214488533Y-83593752D01*
X213187533Y-96292752D02*
X213187533Y-84894752D01*
X214488533Y-97593752D02*
X213187533Y-96292752D01*
X226486533Y-97593752D02*
X214488533Y-97593752D01*
X94437533Y-84894752D02*
X94437533Y-96292752D01*
X93136533Y-83593752D02*
X94437533Y-84894752D01*
X81138533Y-83593752D02*
X93136533Y-83593752D01*
X79837533Y-84894752D02*
X81138533Y-83593752D01*
X79837533Y-96292752D02*
X79837533Y-84894752D01*
X81138533Y-97593752D02*
X79837533Y-96292752D01*
X93136533Y-97593752D02*
X81138533Y-97593752D01*
X94437533Y-96292752D02*
X93136533Y-97593752D01*
X216536533Y-147743752D02*
G75*
G03*
X216536533Y-147743752I-811500J0D01*
G01*
X85567783Y-166793752D02*
G75*
G03*
X85567783Y-166793752I-811500J0D01*
G01*
X202249033Y-109643752D02*
G75*
G03*
X202249033Y-109643752I-811500J0D01*
G01*
X297368721Y-166793752D02*
G75*
G03*
X297368721Y-166793752I-811500J0D01*
G01*
X111761533Y-128693752D02*
G75*
G03*
X111761533Y-128693752I-811500J0D01*
G01*
X97474033Y-90593752D02*
G75*
G03*
X97474033Y-90593752I-811500J0D01*
G01*
X212199033Y-140743752D02*
X213500033Y-142044752D01*
X200201033Y-140743752D02*
X212199033Y-140743752D01*
X198900033Y-142044752D02*
X200201033Y-140743752D01*
X198900033Y-153442752D02*
X198900033Y-142044752D01*
X200201033Y-154743752D02*
X198900033Y-153442752D01*
X212199033Y-154743752D02*
X200201033Y-154743752D01*
X213500033Y-153442752D02*
X212199033Y-154743752D01*
X213500033Y-142044752D02*
X213500033Y-153442752D01*
X102661533Y-102643752D02*
X103962533Y-103944752D01*
X90663533Y-102643752D02*
X102661533Y-102643752D01*
X89362533Y-103944752D02*
X90663533Y-102643752D01*
X89362533Y-115342752D02*
X89362533Y-103944752D01*
X90663533Y-116643752D02*
X89362533Y-115342752D01*
X102661533Y-116643752D02*
X90663533Y-116643752D01*
X103962533Y-115342752D02*
X102661533Y-116643752D01*
X103962533Y-103944752D02*
X103962533Y-115342752D01*
X292736533Y-147743752D02*
G75*
G03*
X292736533Y-147743752I-811500J0D01*
G01*
X102236533Y-147743752D02*
G75*
G03*
X102236533Y-147743752I-811500J0D01*
G01*
X65550033Y-115342752D02*
X65550033Y-103944752D01*
X66851033Y-116643752D02*
X65550033Y-115342752D01*
X78849033Y-116643752D02*
X66851033Y-116643752D01*
X80150033Y-115342752D02*
X78849033Y-116643752D01*
X80150033Y-103944752D02*
X80150033Y-115342752D01*
X78849033Y-102643752D02*
X80150033Y-103944752D01*
X66851033Y-102643752D02*
X78849033Y-102643752D01*
X65550033Y-103944752D02*
X66851033Y-102643752D01*
X324026033Y-159793752D02*
X336024033Y-159793752D01*
X322725033Y-161094752D02*
X324026033Y-159793752D01*
X322725033Y-172492752D02*
X322725033Y-161094752D01*
X324026033Y-173793752D02*
X322725033Y-172492752D01*
X336024033Y-173793752D02*
X324026033Y-173793752D01*
X337325033Y-172492752D02*
X336024033Y-173793752D01*
X337325033Y-161094752D02*
X337325033Y-172492752D01*
X336024033Y-159793752D02*
X337325033Y-161094752D01*
X252588533Y-83593752D02*
X264586533Y-83593752D01*
X251287533Y-84894752D02*
X252588533Y-83593752D01*
X251287533Y-96292752D02*
X251287533Y-84894752D01*
X252588533Y-97593752D02*
X251287533Y-96292752D01*
X264586533Y-97593752D02*
X252588533Y-97593752D01*
X265887533Y-96292752D02*
X264586533Y-97593752D01*
X265887533Y-84894752D02*
X265887533Y-96292752D01*
X264586533Y-83593752D02*
X265887533Y-84894752D01*
X81230283Y-121693752D02*
X82531283Y-122994752D01*
X69232283Y-121693752D02*
X81230283Y-121693752D01*
X67931283Y-122994752D02*
X69232283Y-121693752D01*
X67931283Y-134392752D02*
X67931283Y-122994752D01*
X69232283Y-135693752D02*
X67931283Y-134392752D01*
X81230283Y-135693752D02*
X69232283Y-135693752D01*
X82531283Y-134392752D02*
X81230283Y-135693752D01*
X82531283Y-122994752D02*
X82531283Y-134392752D01*
X108412533Y-103944752D02*
X109713533Y-102643752D01*
X108412533Y-115342752D02*
X108412533Y-103944752D01*
X109713533Y-116643752D02*
X108412533Y-115342752D01*
X121711533Y-116643752D02*
X109713533Y-116643752D01*
X123012533Y-115342752D02*
X121711533Y-116643752D01*
X123012533Y-103944752D02*
X123012533Y-115342752D01*
X121711533Y-102643752D02*
X123012533Y-103944752D01*
X109713533Y-102643752D02*
X121711533Y-102643752D01*
X276401033Y-159793752D02*
X288399033Y-159793752D01*
X275100033Y-161094752D02*
X276401033Y-159793752D01*
X275100033Y-172492752D02*
X275100033Y-161094752D01*
X276401033Y-173793752D02*
X275100033Y-172492752D01*
X288399033Y-173793752D02*
X276401033Y-173793752D01*
X289700033Y-172492752D02*
X288399033Y-173793752D01*
X289700033Y-161094752D02*
X289700033Y-172492752D01*
X288399033Y-159793752D02*
X289700033Y-161094752D01*
X173674033Y-90593752D02*
G75*
G03*
X173674033Y-90593752I-811500J0D01*
G01*
X63993783Y-153011752D02*
X63993783Y-140743752D01*
X66993783Y-154743752D02*
X63993783Y-153011752D01*
X92993783Y-154743752D02*
X66993783Y-154743752D01*
X95993783Y-153011752D02*
X92993783Y-154743752D01*
X95993783Y-140743752D02*
X95993783Y-153011752D01*
X63993783Y-140743752D02*
X95993783Y-140743752D01*
X94125033Y-122994752D02*
X95426033Y-121693752D01*
X94125033Y-134392752D02*
X94125033Y-122994752D01*
X95426033Y-135693752D02*
X94125033Y-134392752D01*
X107424033Y-135693752D02*
X95426033Y-135693752D01*
X108725033Y-134392752D02*
X107424033Y-135693752D01*
X108725033Y-122994752D02*
X108725033Y-134392752D01*
X107424033Y-121693752D02*
X108725033Y-122994752D01*
X95426033Y-121693752D02*
X107424033Y-121693752D01*
X298912533Y-172492752D02*
X298912533Y-161094752D01*
X300213533Y-173793752D02*
X298912533Y-172492752D01*
X312211533Y-173793752D02*
X300213533Y-173793752D01*
X313512533Y-172492752D02*
X312211533Y-173793752D01*
X313512533Y-161094752D02*
X313512533Y-172492752D01*
X312211533Y-159793752D02*
X313512533Y-161094752D01*
X300213533Y-159793752D02*
X312211533Y-159793752D01*
X298912533Y-161094752D02*
X300213533Y-159793752D01*
X133192783Y-166793752D02*
G75*
G03*
X133192783Y-166793752I-811500J0D01*
G01*
X307212532Y-179993772D02*
G75*
G03*
X307212532Y-179993772I-1000000J0D01*
G01*
X211774033Y-166793752D02*
G75*
G03*
X211774033Y-166793752I-811500J0D01*
G01*
X233538533Y-83593752D02*
X245536533Y-83593752D01*
X232237533Y-84894752D02*
X233538533Y-83593752D01*
X232237533Y-96292752D02*
X232237533Y-84894752D01*
X233538533Y-97593752D02*
X232237533Y-96292752D01*
X245536533Y-97593752D02*
X233538533Y-97593752D01*
X246837533Y-96292752D02*
X245536533Y-97593752D01*
X246837533Y-84894752D02*
X246837533Y-96292752D01*
X245536533Y-83593752D02*
X246837533Y-84894752D01*
X209726033Y-135693752D02*
X208425033Y-134392752D01*
X221724033Y-135693752D02*
X209726033Y-135693752D01*
X223025033Y-134392752D02*
X221724033Y-135693752D01*
X223025033Y-122994752D02*
X223025033Y-134392752D01*
X221724033Y-121693752D02*
X223025033Y-122994752D01*
X209726033Y-121693752D02*
X221724033Y-121693752D01*
X208425033Y-122994752D02*
X209726033Y-121693752D01*
X208425033Y-134392752D02*
X208425033Y-122994752D01*
X135574033Y-90593752D02*
G75*
G03*
X135574033Y-90593752I-811500J0D01*
G01*
X249874033Y-90593752D02*
G75*
G03*
X249874033Y-90593752I-811500J0D01*
G01*
X126049033Y-109643752D02*
G75*
G03*
X126049033Y-109643752I-811500J0D01*
G01*
X103650033Y-153442752D02*
X103650033Y-142044752D01*
X104951033Y-154743752D02*
X103650033Y-153442752D01*
X116949033Y-154743752D02*
X104951033Y-154743752D01*
X118250033Y-153442752D02*
X116949033Y-154743752D01*
X118250033Y-142044752D02*
X118250033Y-153442752D01*
X116949033Y-140743752D02*
X118250033Y-142044752D01*
X104951033Y-140743752D02*
X116949033Y-140743752D01*
X103650033Y-142044752D02*
X104951033Y-140743752D01*
X192912533Y-78393774D02*
G75*
G03*
X192912533Y-78393774I-1000000J0D01*
G01*
X290688533Y-83593752D02*
X302686533Y-83593752D01*
X289387533Y-84894752D02*
X290688533Y-83593752D01*
X289387533Y-96292752D02*
X289387533Y-84894752D01*
X290688533Y-97593752D02*
X289387533Y-96292752D01*
X302686533Y-97593752D02*
X290688533Y-97593752D01*
X303987533Y-96292752D02*
X302686533Y-97593752D01*
X303987533Y-84894752D02*
X303987533Y-96292752D01*
X302686533Y-83593752D02*
X303987533Y-84894752D01*
X254636533Y-147743752D02*
G75*
G03*
X254636533Y-147743752I-811500J0D01*
G01*
X204963533Y-102643752D02*
X216961533Y-102643752D01*
X203662533Y-103944752D02*
X204963533Y-102643752D01*
X203662533Y-115342752D02*
X203662533Y-103944752D01*
X204963533Y-116643752D02*
X203662533Y-115342752D01*
X216961533Y-116643752D02*
X204963533Y-116643752D01*
X218262533Y-115342752D02*
X216961533Y-116643752D01*
X218262533Y-103944752D02*
X218262533Y-115342752D01*
X216961533Y-102643752D02*
X218262533Y-103944752D01*
X150510533Y-159923252D02*
X151018533Y-160431252D01*
X138064533Y-159923252D02*
X150510533Y-159923252D01*
X137556533Y-160431252D02*
X138064533Y-159923252D01*
X137556533Y-173156252D02*
X137556533Y-160431252D01*
X138064533Y-173664252D02*
X137556533Y-173156252D01*
X150510533Y-173664252D02*
X138064533Y-173664252D01*
X151018533Y-173156252D02*
X150510533Y-173664252D01*
X151018533Y-160431252D02*
X151018533Y-173156252D01*
X119238533Y-83593752D02*
X131236533Y-83593752D01*
X117937533Y-84894752D02*
X119238533Y-83593752D01*
X117937533Y-96292752D02*
X117937533Y-84894752D01*
X119238533Y-97593752D02*
X117937533Y-96292752D01*
X131236533Y-97593752D02*
X119238533Y-97593752D01*
X132537533Y-96292752D02*
X131236533Y-97593752D01*
X132537533Y-84894752D02*
X132537533Y-96292752D01*
X131236533Y-83593752D02*
X132537533Y-84894752D01*
X195438533Y-97593752D02*
X194137533Y-96292752D01*
X207436533Y-97593752D02*
X195438533Y-97593752D01*
X208737533Y-96292752D02*
X207436533Y-97593752D01*
X208737533Y-84894752D02*
X208737533Y-96292752D01*
X207436533Y-83593752D02*
X208737533Y-84894752D01*
X195438533Y-83593752D02*
X207436533Y-83593752D01*
X194137533Y-84894752D02*
X195438533Y-83593752D01*
X194137533Y-96292752D02*
X194137533Y-84894752D01*
X326262533Y-78393772D02*
G75*
G03*
X326262533Y-78393772I-1000000J0D01*
G01*
X175087533Y-84894752D02*
X176388533Y-83593752D01*
X175087533Y-96292752D02*
X175087533Y-84894752D01*
X176388533Y-97593752D02*
X175087533Y-96292752D01*
X188386533Y-97593752D02*
X176388533Y-97593752D01*
X189687533Y-96292752D02*
X188386533Y-97593752D01*
X189687533Y-84894752D02*
X189687533Y-96292752D01*
X188386533Y-83593752D02*
X189687533Y-84894752D01*
X176388533Y-83593752D02*
X188386533Y-83593752D01*
X126474033Y-159793752D02*
X127775033Y-161094752D01*
X114476033Y-159793752D02*
X126474033Y-159793752D01*
X113175033Y-161094752D02*
X114476033Y-159793752D01*
X113175033Y-172492752D02*
X113175033Y-161094752D01*
X114476033Y-173793752D02*
X113175033Y-172492752D01*
X126474033Y-173793752D02*
X114476033Y-173793752D01*
X127775033Y-172492752D02*
X126474033Y-173793752D01*
X127775033Y-161094752D02*
X127775033Y-172492752D01*
X327487533Y-142044752D02*
X328788533Y-140743752D01*
X327487533Y-153442752D02*
X327487533Y-142044752D01*
X328788533Y-154743752D02*
X327487533Y-153442752D01*
X340786533Y-154743752D02*
X328788533Y-154743752D01*
X342087533Y-153442752D02*
X340786533Y-154743752D01*
X342087533Y-142044752D02*
X342087533Y-153442752D01*
X340786533Y-140743752D02*
X342087533Y-142044752D01*
X328788533Y-140743752D02*
X340786533Y-140743752D01*
X302594783Y-140743752D02*
X314592783Y-140743752D01*
X301293783Y-142044752D02*
X302594783Y-140743752D01*
X301293783Y-153442752D02*
X301293783Y-142044752D01*
X302594783Y-154743752D02*
X301293783Y-153442752D01*
X314592783Y-154743752D02*
X302594783Y-154743752D01*
X315893783Y-153442752D02*
X314592783Y-154743752D01*
X315893783Y-142044752D02*
X315893783Y-153442752D01*
X314592783Y-140743752D02*
X315893783Y-142044752D01*
X302261533Y-128693752D02*
G75*
G03*
X302261533Y-128693752I-811500J0D01*
G01*
X140336533Y-147743752D02*
G75*
G03*
X140336533Y-147743752I-811500J0D01*
G01*
X338262533Y-97593752D02*
X312262533Y-97593752D01*
X341262533Y-95861752D02*
X338262533Y-97593752D01*
X341262533Y-83593752D02*
X341262533Y-95861752D01*
X309262533Y-83593752D02*
X341262533Y-83593752D01*
X309262533Y-95861752D02*
X309262533Y-83593752D01*
X312262533Y-97593752D02*
X309262533Y-95861752D01*
X278449033Y-109643752D02*
G75*
G03*
X278449033Y-109643752I-811500J0D01*
G01*
X284937533Y-84894752D02*
X284937533Y-96292752D01*
X283636533Y-83593752D02*
X284937533Y-84894752D01*
X271638533Y-83593752D02*
X283636533Y-83593752D01*
X270337533Y-84894752D02*
X271638533Y-83593752D01*
X270337533Y-96292752D02*
X270337533Y-84894752D01*
X271638533Y-97593752D02*
X270337533Y-96292752D01*
X283636533Y-97593752D02*
X271638533Y-97593752D01*
X284937533Y-96292752D02*
X283636533Y-97593752D01*
X251856533Y-173156252D02*
X251856533Y-160431252D01*
X252364533Y-173664252D02*
X251856533Y-173156252D01*
X264810533Y-173664252D02*
X252364533Y-173664252D01*
X265318533Y-173156252D02*
X264810533Y-173664252D01*
X265318533Y-160431252D02*
X265318533Y-173156252D01*
X264810533Y-159923252D02*
X265318533Y-160431252D01*
X252364533Y-159923252D02*
X264810533Y-159923252D01*
X251856533Y-160431252D02*
X252364533Y-159923252D01*
X157338533Y-97593752D02*
X156037533Y-96292752D01*
X169336533Y-97593752D02*
X157338533Y-97593752D01*
X170637533Y-96292752D02*
X169336533Y-97593752D01*
X170637533Y-84894752D02*
X170637533Y-96292752D01*
X169336533Y-83593752D02*
X170637533Y-84894752D01*
X157338533Y-83593752D02*
X169336533Y-83593752D01*
X156037533Y-84894752D02*
X157338533Y-83593752D01*
X156037533Y-96292752D02*
X156037533Y-84894752D01*
X319851033Y-109305752D02*
G75*
G03*
X319851033Y-109305752I-811500J0D01*
G01*
X164149033Y-109643752D02*
G75*
G03*
X164149033Y-109643752I-811500J0D01*
G01*
X238301033Y-140743752D02*
X250299033Y-140743752D01*
X237000033Y-142044752D02*
X238301033Y-140743752D01*
X237000033Y-153442752D02*
X237000033Y-142044752D01*
X238301033Y-154743752D02*
X237000033Y-153442752D01*
X250299033Y-154743752D02*
X238301033Y-154743752D01*
X251600033Y-153442752D02*
X250299033Y-154743752D01*
X251600033Y-142044752D02*
X251600033Y-153442752D01*
X250299033Y-140743752D02*
X251600033Y-142044752D01*
X140761533Y-102643752D02*
X142062533Y-103944752D01*
X128763533Y-102643752D02*
X140761533Y-102643752D01*
X127462533Y-103944752D02*
X128763533Y-102643752D01*
X127462533Y-115342752D02*
X127462533Y-103944752D01*
X128763533Y-116643752D02*
X127462533Y-115342752D01*
X140761533Y-116643752D02*
X128763533Y-116643752D01*
X142062533Y-115342752D02*
X140761533Y-116643752D01*
X142062533Y-103944752D02*
X142062533Y-115342752D01*
X143051033Y-154743752D02*
X141750033Y-153442752D01*
X155049033Y-154743752D02*
X143051033Y-154743752D01*
X156350033Y-153442752D02*
X155049033Y-154743752D01*
X156350033Y-142044752D02*
X156350033Y-153442752D01*
X155049033Y-140743752D02*
X156350033Y-142044752D01*
X143051033Y-140743752D02*
X155049033Y-140743752D01*
X141750033Y-142044752D02*
X143051033Y-140743752D01*
X141750033Y-153442752D02*
X141750033Y-142044752D01*
X294462533Y-103944752D02*
X294462533Y-115342752D01*
X293161533Y-102643752D02*
X294462533Y-103944752D01*
X281163533Y-102643752D02*
X293161533Y-102643752D01*
X279862533Y-103944752D02*
X281163533Y-102643752D01*
X279862533Y-115342752D02*
X279862533Y-103944752D01*
X281163533Y-116643752D02*
X279862533Y-115342752D01*
X293161533Y-116643752D02*
X281163533Y-116643752D01*
X294462533Y-115342752D02*
X293161533Y-116643752D01*
X264161533Y-128693752D02*
G75*
G03*
X264161533Y-128693752I-811500J0D01*
G01*
X149861533Y-128693752D02*
G75*
G03*
X149861533Y-128693752I-811500J0D01*
G01*
X150286533Y-83593752D02*
X151587533Y-84894752D01*
X138288533Y-83593752D02*
X150286533Y-83593752D01*
X136987533Y-84894752D02*
X138288533Y-83593752D01*
X136987533Y-96292752D02*
X136987533Y-84894752D01*
X138288533Y-97593752D02*
X136987533Y-96292752D01*
X150286533Y-97593752D02*
X138288533Y-97593752D01*
X151587533Y-96292752D02*
X150286533Y-97593752D01*
X151587533Y-84894752D02*
X151587533Y-96292752D01*
X256050033Y-142044752D02*
X257351033Y-140743752D01*
X256050033Y-153442752D02*
X256050033Y-142044752D01*
X257351033Y-154743752D02*
X256050033Y-153442752D01*
X269349033Y-154743752D02*
X257351033Y-154743752D01*
X270650033Y-153442752D02*
X269349033Y-154743752D01*
X270650033Y-142044752D02*
X270650033Y-153442752D01*
X269349033Y-140743752D02*
X270650033Y-142044752D01*
X257351033Y-140743752D02*
X269349033Y-140743752D01*
X240349033Y-109643752D02*
G75*
G03*
X240349033Y-109643752I-811500J0D01*
G01*
X306881283Y-133961752D02*
X306881283Y-121693752D01*
X309881283Y-135693752D02*
X306881283Y-133961752D01*
X335881283Y-135693752D02*
X309881283Y-135693752D01*
X338881283Y-133961752D02*
X335881283Y-135693752D01*
X338881283Y-121693752D02*
X338881283Y-133961752D01*
X306881283Y-121693752D02*
X338881283Y-121693752D01*
X274111533Y-102643752D02*
X275412533Y-103944752D01*
X262113533Y-102643752D02*
X274111533Y-102643752D01*
X260812533Y-103944752D02*
X262113533Y-102643752D01*
X260812533Y-115342752D02*
X260812533Y-103944752D01*
X262113533Y-116643752D02*
X260812533Y-115342752D01*
X274111533Y-116643752D02*
X262113533Y-116643752D01*
X275412533Y-115342752D02*
X274111533Y-116643752D01*
X275412533Y-103944752D02*
X275412533Y-115342752D01*
X237312533Y-103944752D02*
X237312533Y-115342752D01*
X236011533Y-102643752D02*
X237312533Y-103944752D01*
X224013533Y-102643752D02*
X236011533Y-102643752D01*
X222712533Y-103944752D02*
X224013533Y-102643752D01*
X222712533Y-115342752D02*
X222712533Y-103944752D01*
X224013533Y-116643752D02*
X222712533Y-115342752D01*
X236011533Y-116643752D02*
X224013533Y-116643752D01*
X237312533Y-115342752D02*
X236011533Y-116643752D01*
X189375033Y-134392752D02*
X189375033Y-122994752D01*
X190676033Y-135693752D02*
X189375033Y-134392752D01*
X202674033Y-135693752D02*
X190676033Y-135693752D01*
X203975033Y-134392752D02*
X202674033Y-135693752D01*
X203975033Y-122994752D02*
X203975033Y-134392752D01*
X202674033Y-121693752D02*
X203975033Y-122994752D01*
X190676033Y-121693752D02*
X202674033Y-121693752D01*
X189375033Y-122994752D02*
X190676033Y-121693752D01*
X259824033Y-121693752D02*
X261125033Y-122994752D01*
X247826033Y-121693752D02*
X259824033Y-121693752D01*
X246525033Y-122994752D02*
X247826033Y-121693752D01*
X246525033Y-134392752D02*
X246525033Y-122994752D01*
X247826033Y-135693752D02*
X246525033Y-134392752D01*
X259824033Y-135693752D02*
X247826033Y-135693752D01*
X261125033Y-134392752D02*
X259824033Y-135693752D01*
X261125033Y-122994752D02*
X261125033Y-134392752D01*
X324026033Y-102643752D02*
X336024033Y-102643752D01*
X322725033Y-103944752D02*
X324026033Y-102643752D01*
X322725033Y-115342752D02*
X322725033Y-103944752D01*
X324026033Y-116643752D02*
X322725033Y-115342752D01*
X336024033Y-116643752D02*
X324026033Y-116643752D01*
X337325033Y-115342752D02*
X336024033Y-116643752D01*
X337325033Y-103944752D02*
X337325033Y-115342752D01*
X336024033Y-102643752D02*
X337325033Y-103944752D01*
X242075033Y-122994752D02*
X242075033Y-134392752D01*
X240774033Y-121693752D02*
X242075033Y-122994752D01*
X228776033Y-121693752D02*
X240774033Y-121693752D01*
X227475033Y-122994752D02*
X228776033Y-121693752D01*
X227475033Y-134392752D02*
X227475033Y-122994752D01*
X228776033Y-135693752D02*
X227475033Y-134392752D01*
X240774033Y-135693752D02*
X228776033Y-135693752D01*
X242075033Y-134392752D02*
X240774033Y-135693752D01*
X124001033Y-140743752D02*
X135999033Y-140743752D01*
X122700033Y-142044752D02*
X124001033Y-140743752D01*
X122700033Y-153442752D02*
X122700033Y-142044752D01*
X124001033Y-154743752D02*
X122700033Y-153442752D01*
X135999033Y-154743752D02*
X124001033Y-154743752D01*
X137300033Y-153442752D02*
X135999033Y-154743752D01*
X137300033Y-142044752D02*
X137300033Y-153442752D01*
X135999033Y-140743752D02*
X137300033Y-142044752D01*
X284625033Y-122994752D02*
X285926033Y-121693752D01*
X284625033Y-134392752D02*
X284625033Y-122994752D01*
X285926033Y-135693752D02*
X284625033Y-134392752D01*
X297924033Y-135693752D02*
X285926033Y-135693752D01*
X299225033Y-134392752D02*
X297924033Y-135693752D01*
X299225033Y-122994752D02*
X299225033Y-134392752D01*
X297924033Y-121693752D02*
X299225033Y-122994752D01*
X285926033Y-121693752D02*
X297924033Y-121693752D01*
X146825033Y-122994752D02*
X146825033Y-134392752D01*
X145524033Y-121693752D02*
X146825033Y-122994752D01*
X133526033Y-121693752D02*
X145524033Y-121693752D01*
X132225033Y-122994752D02*
X133526033Y-121693752D01*
X132225033Y-134392752D02*
X132225033Y-122994752D01*
X133526033Y-135693752D02*
X132225033Y-134392752D01*
X145524033Y-135693752D02*
X133526033Y-135693752D01*
X146825033Y-134392752D02*
X145524033Y-135693752D01*
X183624033Y-121693752D02*
X184925033Y-122994752D01*
X171626033Y-121693752D02*
X183624033Y-121693752D01*
X170325033Y-122994752D02*
X171626033Y-121693752D01*
X170325033Y-134392752D02*
X170325033Y-122994752D01*
X171626033Y-135693752D02*
X170325033Y-134392752D01*
X183624033Y-135693752D02*
X171626033Y-135693752D01*
X184925033Y-134392752D02*
X183624033Y-135693752D01*
X184925033Y-122994752D02*
X184925033Y-134392752D01*
X243063533Y-116643752D02*
X241762533Y-115342752D01*
X255061533Y-116643752D02*
X243063533Y-116643752D01*
X256362533Y-115342752D02*
X255061533Y-116643752D01*
X256362533Y-103944752D02*
X256362533Y-115342752D01*
X255061533Y-102643752D02*
X256362533Y-103944752D01*
X243063533Y-102643752D02*
X255061533Y-102643752D01*
X241762533Y-103944752D02*
X243063533Y-102643752D01*
X241762533Y-115342752D02*
X241762533Y-103944752D01*
X219251033Y-140743752D02*
X231249033Y-140743752D01*
X217950033Y-142044752D02*
X219251033Y-140743752D01*
X217950033Y-153442752D02*
X217950033Y-142044752D01*
X219251033Y-154743752D02*
X217950033Y-153442752D01*
X231249033Y-154743752D02*
X219251033Y-154743752D01*
X232550033Y-153442752D02*
X231249033Y-154743752D01*
X232550033Y-142044752D02*
X232550033Y-153442752D01*
X231249033Y-140743752D02*
X232550033Y-142044752D01*
X160800033Y-153442752D02*
X160800033Y-142044752D01*
X162101033Y-154743752D02*
X160800033Y-153442752D01*
X174099033Y-154743752D02*
X162101033Y-154743752D01*
X175400033Y-153442752D02*
X174099033Y-154743752D01*
X175400033Y-142044752D02*
X175400033Y-153442752D01*
X174099033Y-140743752D02*
X175400033Y-142044752D01*
X162101033Y-140743752D02*
X174099033Y-140743752D01*
X160800033Y-142044752D02*
X162101033Y-140743752D01*
X266876033Y-135693752D02*
X265575033Y-134392752D01*
X278874033Y-135693752D02*
X266876033Y-135693752D01*
X280175033Y-134392752D02*
X278874033Y-135693752D01*
X280175033Y-122994752D02*
X280175033Y-134392752D01*
X278874033Y-121693752D02*
X280175033Y-122994752D01*
X266876033Y-121693752D02*
X278874033Y-121693752D01*
X265575033Y-122994752D02*
X266876033Y-121693752D01*
X265575033Y-134392752D02*
X265575033Y-122994752D01*
X159811533Y-102643752D02*
X161112533Y-103944752D01*
X147813533Y-102643752D02*
X159811533Y-102643752D01*
X146512533Y-103944752D02*
X147813533Y-102643752D01*
X146512533Y-115342752D02*
X146512533Y-103944752D01*
X147813533Y-116643752D02*
X146512533Y-115342752D01*
X159811533Y-116643752D02*
X147813533Y-116643752D01*
X161112533Y-115342752D02*
X159811533Y-116643752D01*
X161112533Y-103944752D02*
X161112533Y-115342752D01*
X185913533Y-116643752D02*
X184612533Y-115342752D01*
X197911533Y-116643752D02*
X185913533Y-116643752D01*
X199212533Y-115342752D02*
X197911533Y-116643752D01*
X199212533Y-103944752D02*
X199212533Y-115342752D01*
X197911533Y-102643752D02*
X199212533Y-103944752D01*
X185913533Y-102643752D02*
X197911533Y-102643752D01*
X184612533Y-103944752D02*
X185913533Y-102643752D01*
X184612533Y-115342752D02*
X184612533Y-103944752D01*
X298912533Y-103944752D02*
X300213533Y-102643752D01*
X298912533Y-115342752D02*
X298912533Y-103944752D01*
X300213533Y-116643752D02*
X298912533Y-115342752D01*
X312211533Y-116643752D02*
X300213533Y-116643752D01*
X313512533Y-115342752D02*
X312211533Y-116643752D01*
X313512533Y-103944752D02*
X313512533Y-115342752D01*
X312211533Y-102643752D02*
X313512533Y-103944752D01*
X300213533Y-102643752D02*
X312211533Y-102643752D01*
X187961533Y-128393752D02*
G75*
G03*
X187961533Y-128393752I-811500J0D01*
G01*
X179850033Y-142044752D02*
X181151033Y-140743752D01*
X179850033Y-153442752D02*
X179850033Y-142044752D01*
X181151033Y-154743752D02*
X179850033Y-153442752D01*
X193149033Y-154743752D02*
X181151033Y-154743752D01*
X194450033Y-153442752D02*
X193149033Y-154743752D01*
X194450033Y-142044752D02*
X194450033Y-153442752D01*
X193149033Y-140743752D02*
X194450033Y-142044752D01*
X181151033Y-140743752D02*
X193149033Y-140743752D01*
X275100033Y-153442752D02*
X275100033Y-142044752D01*
X276401033Y-154743752D02*
X275100033Y-153442752D01*
X288399033Y-154743752D02*
X276401033Y-154743752D01*
X289700033Y-153442752D02*
X288399033Y-154743752D01*
X289700033Y-142044752D02*
X289700033Y-153442752D01*
X288399033Y-140743752D02*
X289700033Y-142044752D01*
X276401033Y-140743752D02*
X288399033Y-140743752D01*
X275100033Y-142044752D02*
X276401033Y-140743752D01*
X126474033Y-135693752D02*
X114476033Y-135693752D01*
X127775033Y-134392752D02*
X126474033Y-135693752D01*
X127775033Y-122994752D02*
X127775033Y-134392752D01*
X126474033Y-121693752D02*
X127775033Y-122994752D01*
X114476033Y-121693752D02*
X126474033Y-121693752D01*
X113175033Y-122994752D02*
X114476033Y-121693752D01*
X113175033Y-134392752D02*
X113175033Y-122994752D01*
X114476033Y-135693752D02*
X113175033Y-134392752D01*
X195438533Y-173793752D02*
X194137533Y-172492752D01*
X207436533Y-173793752D02*
X195438533Y-173793752D01*
X208737533Y-172492752D02*
X207436533Y-173793752D01*
X208737533Y-161094752D02*
X208737533Y-172492752D01*
X207436533Y-159793752D02*
X208737533Y-161094752D01*
X195438533Y-159793752D02*
X207436533Y-159793752D01*
X194137533Y-161094752D02*
X195438533Y-159793752D01*
X194137533Y-172492752D02*
X194137533Y-161094752D01*
X164574033Y-121693752D02*
X165875033Y-122994752D01*
X152576033Y-121693752D02*
X164574033Y-121693752D01*
X151275033Y-122994752D02*
X152576033Y-121693752D01*
X151275033Y-134392752D02*
X151275033Y-122994752D01*
X152576033Y-135693752D02*
X151275033Y-134392752D01*
X164574033Y-135693752D02*
X152576033Y-135693752D01*
X165875033Y-134392752D02*
X164574033Y-135693752D01*
X165875033Y-122994752D02*
X165875033Y-134392752D01*
X178861533Y-102643752D02*
X180162533Y-103944752D01*
X166863533Y-102643752D02*
X178861533Y-102643752D01*
X165562533Y-103944752D02*
X166863533Y-102643752D01*
X165562533Y-115342752D02*
X165562533Y-103944752D01*
X166863533Y-116643752D02*
X165562533Y-115342752D01*
X178861533Y-116643752D02*
X166863533Y-116643752D01*
X180162533Y-115342752D02*
X178861533Y-116643752D01*
X180162533Y-103944752D02*
X180162533Y-115342752D01*
X60937505Y-81393793D02*
G75*
G03*
X58937505Y-83393793I-1J-1999999D01*
G01*
X74262533Y-81393793D02*
X60937505Y-81393793D01*
X74262533Y-81393793D02*
G75*
G03*
X75862533Y-79793793I1J1599999D01*
G01*
X75862533Y-78393790D02*
X75862533Y-79793793D01*
X79362533Y-78393790D02*
G75*
G03*
X75862533Y-78393790I-1750000J0D01*
G01*
X79362533Y-79793793D02*
X79362533Y-78393790D01*
X79362533Y-79793793D02*
G75*
G03*
X80962533Y-81393793I1599999J-1D01*
G01*
X188562533Y-81393793D02*
X80962533Y-81393793D01*
X188562533Y-81393793D02*
G75*
G03*
X190162533Y-79793793I1J1599999D01*
G01*
X190162533Y-78393774D02*
X190162533Y-79793793D01*
X193662533Y-78393774D02*
G75*
G03*
X190162533Y-78393774I-1750000J0D01*
G01*
X193662533Y-79793793D02*
X193662533Y-78393774D01*
X193662533Y-79793793D02*
G75*
G03*
X195262533Y-81393793I1599999J-1D01*
G01*
X321912533Y-81393793D02*
X195262533Y-81393793D01*
X321912533Y-81393793D02*
G75*
G03*
X323512533Y-79793793I1J1599999D01*
G01*
X323512533Y-78393772D02*
X323512533Y-79793793D01*
X327012533Y-78393772D02*
G75*
G03*
X323512533Y-78393772I-1750000J0D01*
G01*
X327012533Y-79793793D02*
X327012533Y-78393772D01*
X327012533Y-79793793D02*
G75*
G03*
X328612533Y-81393793I1599999J-1D01*
G01*
X341937529Y-81393793D02*
X328612533Y-81393793D01*
X343937529Y-83393793D02*
G75*
G03*
X341937529Y-81393793I-2000000J0D01*
G01*
X343937529Y-173993793D02*
X343937529Y-83393793D01*
X341937529Y-175993793D02*
G75*
G03*
X343937529Y-173993793I-2J2000002D01*
G01*
X309562533Y-175993793D02*
X341937529Y-175993793D01*
X309562533Y-175993793D02*
G75*
G03*
X307962533Y-177593793I-1J-1599999D01*
G01*
X307962532Y-179993773D02*
X307962533Y-177593793D01*
X304462532Y-179993772D02*
G75*
G03*
X307962532Y-179993773I1750000J0D01*
G01*
X304462533Y-177593793D02*
X304462532Y-179993772D01*
X304462533Y-177593793D02*
G75*
G03*
X302862533Y-175993793I-1599999J1D01*
G01*
X100012533Y-175993793D02*
X302862533Y-175993793D01*
X100012533Y-175993793D02*
G75*
G03*
X98412533Y-177593793I-1J-1599999D01*
G01*
X98412532Y-179993758D02*
X98412533Y-177593793D01*
X94912532Y-179993757D02*
G75*
G03*
X98412532Y-179993758I1750000J-1D01*
G01*
X94912533Y-177593793D02*
X94912532Y-179993757D01*
X94912533Y-177593793D02*
G75*
G03*
X93312533Y-175993793I-1599999J1D01*
G01*
X60937505Y-175993793D02*
X93312533Y-175993793D01*
X58937505Y-173993793D02*
G75*
G03*
X60937505Y-175993793I2000000J0D01*
G01*
X58937505Y-83393793D02*
X58937505Y-173993793D01*
X97662532Y-179993758D02*
G75*
G03*
X97662532Y-179993758I-1000000J0D01*
G01*
X326262533Y-78393772D02*
G75*
G03*
X326262533Y-78393772I-1000000J0D01*
G01*
X192912533Y-78393774D02*
G75*
G03*
X192912533Y-78393774I-1000000J0D01*
G01*
X307212532Y-179993772D02*
G75*
G03*
X307212532Y-179993772I-1000000J0D01*
G01*
X78612533Y-78393790D02*
G75*
G03*
X78612533Y-78393790I-1000000J0D01*
G01*
X288399033Y-140743752D02*
X289700033Y-142044752D01*
X276401033Y-140743752D02*
X288399033Y-140743752D01*
X275100033Y-142044752D02*
X276401033Y-140743752D01*
X275100033Y-153442752D02*
X275100033Y-142044752D01*
X276401033Y-154743752D02*
X275100033Y-153442752D01*
X288399033Y-154743752D02*
X276401033Y-154743752D01*
X289700033Y-153442752D02*
X288399033Y-154743752D01*
X289700033Y-142044752D02*
X289700033Y-153442752D01*
X249874033Y-90593752D02*
G75*
G03*
X249874033Y-90593752I-811500J0D01*
G01*
X309262533Y-95861752D02*
X309262533Y-83593752D01*
X312262533Y-97593752D02*
X309262533Y-95861752D01*
X338262533Y-97593752D02*
X312262533Y-97593752D01*
X341262533Y-95861752D02*
X338262533Y-97593752D01*
X341262533Y-83593752D02*
X341262533Y-95861752D01*
X309262533Y-83593752D02*
X341262533Y-83593752D01*
X302686533Y-83593752D02*
X303987533Y-84894752D01*
X290688533Y-83593752D02*
X302686533Y-83593752D01*
X289387533Y-84894752D02*
X290688533Y-83593752D01*
X289387533Y-96292752D02*
X289387533Y-84894752D01*
X290688533Y-97593752D02*
X289387533Y-96292752D01*
X302686533Y-97593752D02*
X290688533Y-97593752D01*
X303987533Y-96292752D02*
X302686533Y-97593752D01*
X303987533Y-84894752D02*
X303987533Y-96292752D01*
X328788533Y-154743752D02*
X327487533Y-153442752D01*
X340786533Y-154743752D02*
X328788533Y-154743752D01*
X342087533Y-153442752D02*
X340786533Y-154743752D01*
X342087533Y-142044752D02*
X342087533Y-153442752D01*
X340786533Y-140743752D02*
X342087533Y-142044752D01*
X328788533Y-140743752D02*
X340786533Y-140743752D01*
X327487533Y-142044752D02*
X328788533Y-140743752D01*
X327487533Y-153442752D02*
X327487533Y-142044752D01*
X252588533Y-83593752D02*
X264586533Y-83593752D01*
X251287533Y-84894752D02*
X252588533Y-83593752D01*
X251287533Y-96292752D02*
X251287533Y-84894752D01*
X252588533Y-97593752D02*
X251287533Y-96292752D01*
X264586533Y-97593752D02*
X252588533Y-97593752D01*
X265887533Y-96292752D02*
X264586533Y-97593752D01*
X265887533Y-84894752D02*
X265887533Y-96292752D01*
X264586533Y-83593752D02*
X265887533Y-84894752D01*
X202249033Y-109643752D02*
G75*
G03*
X202249033Y-109643752I-811500J0D01*
G01*
X126049033Y-109643752D02*
G75*
G03*
X126049033Y-109643752I-811500J0D01*
G01*
X180162533Y-103944752D02*
X180162533Y-115342752D01*
X178861533Y-102643752D02*
X180162533Y-103944752D01*
X166863533Y-102643752D02*
X178861533Y-102643752D01*
X165562533Y-103944752D02*
X166863533Y-102643752D01*
X165562533Y-115342752D02*
X165562533Y-103944752D01*
X166863533Y-116643752D02*
X165562533Y-115342752D01*
X178861533Y-116643752D02*
X166863533Y-116643752D01*
X180162533Y-115342752D02*
X178861533Y-116643752D01*
X284937533Y-96292752D02*
X283636533Y-97593752D01*
X284937533Y-84894752D02*
X284937533Y-96292752D01*
X283636533Y-83593752D02*
X284937533Y-84894752D01*
X271638533Y-83593752D02*
X283636533Y-83593752D01*
X270337533Y-84894752D02*
X271638533Y-83593752D01*
X270337533Y-96292752D02*
X270337533Y-84894752D01*
X271638533Y-97593752D02*
X270337533Y-96292752D01*
X283636533Y-97593752D02*
X271638533Y-97593752D01*
X233538533Y-83593752D02*
X245536533Y-83593752D01*
X232237533Y-84894752D02*
X233538533Y-83593752D01*
X232237533Y-96292752D02*
X232237533Y-84894752D01*
X233538533Y-97593752D02*
X232237533Y-96292752D01*
X245536533Y-97593752D02*
X233538533Y-97593752D01*
X246837533Y-96292752D02*
X245536533Y-97593752D01*
X246837533Y-84894752D02*
X246837533Y-96292752D01*
X245536533Y-83593752D02*
X246837533Y-84894752D01*
X164149033Y-109643752D02*
G75*
G03*
X164149033Y-109643752I-811500J0D01*
G01*
X187961533Y-128393752D02*
G75*
G03*
X187961533Y-128393752I-811500J0D01*
G01*
X226486533Y-97593752D02*
X214488533Y-97593752D01*
X227787533Y-96292752D02*
X226486533Y-97593752D01*
X227787533Y-84894752D02*
X227787533Y-96292752D01*
X226486533Y-83593752D02*
X227787533Y-84894752D01*
X214488533Y-83593752D02*
X226486533Y-83593752D01*
X213187533Y-84894752D02*
X214488533Y-83593752D01*
X213187533Y-96292752D02*
X213187533Y-84894752D01*
X214488533Y-97593752D02*
X213187533Y-96292752D01*
X197911533Y-116643752D02*
X185913533Y-116643752D01*
X199212533Y-115342752D02*
X197911533Y-116643752D01*
X199212533Y-103944752D02*
X199212533Y-115342752D01*
X197911533Y-102643752D02*
X199212533Y-103944752D01*
X185913533Y-102643752D02*
X197911533Y-102643752D01*
X184612533Y-103944752D02*
X185913533Y-102643752D01*
X184612533Y-115342752D02*
X184612533Y-103944752D01*
X185913533Y-116643752D02*
X184612533Y-115342752D01*
X211774033Y-90593752D02*
G75*
G03*
X211774033Y-90593752I-811500J0D01*
G01*
X102661533Y-116643752D02*
X90663533Y-116643752D01*
X103962533Y-115342752D02*
X102661533Y-116643752D01*
X103962533Y-103944752D02*
X103962533Y-115342752D01*
X102661533Y-102643752D02*
X103962533Y-103944752D01*
X90663533Y-102643752D02*
X102661533Y-102643752D01*
X89362533Y-103944752D02*
X90663533Y-102643752D01*
X89362533Y-115342752D02*
X89362533Y-103944752D01*
X90663533Y-116643752D02*
X89362533Y-115342752D01*
X146512533Y-115342752D02*
X146512533Y-103944752D01*
X147813533Y-116643752D02*
X146512533Y-115342752D01*
X159811533Y-116643752D02*
X147813533Y-116643752D01*
X161112533Y-115342752D02*
X159811533Y-116643752D01*
X161112533Y-103944752D02*
X161112533Y-115342752D01*
X159811533Y-102643752D02*
X161112533Y-103944752D01*
X147813533Y-102643752D02*
X159811533Y-102643752D01*
X146512533Y-103944752D02*
X147813533Y-102643752D01*
X278449033Y-109643752D02*
G75*
G03*
X278449033Y-109643752I-811500J0D01*
G01*
X319851033Y-109305752D02*
G75*
G03*
X319851033Y-109305752I-811500J0D01*
G01*
X293161533Y-116643752D02*
X281163533Y-116643752D01*
X294462533Y-115342752D02*
X293161533Y-116643752D01*
X294462533Y-103944752D02*
X294462533Y-115342752D01*
X293161533Y-102643752D02*
X294462533Y-103944752D01*
X281163533Y-102643752D02*
X293161533Y-102643752D01*
X279862533Y-103944752D02*
X281163533Y-102643752D01*
X279862533Y-115342752D02*
X279862533Y-103944752D01*
X281163533Y-116643752D02*
X279862533Y-115342752D01*
X324026033Y-102643752D02*
X336024033Y-102643752D01*
X322725033Y-103944752D02*
X324026033Y-102643752D01*
X322725033Y-115342752D02*
X322725033Y-103944752D01*
X324026033Y-116643752D02*
X322725033Y-115342752D01*
X336024033Y-116643752D02*
X324026033Y-116643752D01*
X337325033Y-115342752D02*
X336024033Y-116643752D01*
X337325033Y-103944752D02*
X337325033Y-115342752D01*
X336024033Y-102643752D02*
X337325033Y-103944752D01*
X109713533Y-116643752D02*
X108412533Y-115342752D01*
X121711533Y-116643752D02*
X109713533Y-116643752D01*
X123012533Y-115342752D02*
X121711533Y-116643752D01*
X123012533Y-103944752D02*
X123012533Y-115342752D01*
X121711533Y-102643752D02*
X123012533Y-103944752D01*
X109713533Y-102643752D02*
X121711533Y-102643752D01*
X108412533Y-103944752D02*
X109713533Y-102643752D01*
X108412533Y-115342752D02*
X108412533Y-103944752D01*
X313512533Y-103944752D02*
X313512533Y-115342752D01*
X312211533Y-102643752D02*
X313512533Y-103944752D01*
X300213533Y-102643752D02*
X312211533Y-102643752D01*
X298912533Y-103944752D02*
X300213533Y-102643752D01*
X298912533Y-115342752D02*
X298912533Y-103944752D01*
X300213533Y-116643752D02*
X298912533Y-115342752D01*
X312211533Y-116643752D02*
X300213533Y-116643752D01*
X313512533Y-115342752D02*
X312211533Y-116643752D01*
X218262533Y-103944752D02*
X218262533Y-115342752D01*
X216961533Y-102643752D02*
X218262533Y-103944752D01*
X204963533Y-102643752D02*
X216961533Y-102643752D01*
X203662533Y-103944752D02*
X204963533Y-102643752D01*
X203662533Y-115342752D02*
X203662533Y-103944752D01*
X204963533Y-116643752D02*
X203662533Y-115342752D01*
X216961533Y-116643752D02*
X204963533Y-116643752D01*
X218262533Y-115342752D02*
X216961533Y-116643752D01*
X262113533Y-102643752D02*
X274111533Y-102643752D01*
X260812533Y-103944752D02*
X262113533Y-102643752D01*
X260812533Y-115342752D02*
X260812533Y-103944752D01*
X262113533Y-116643752D02*
X260812533Y-115342752D01*
X274111533Y-116643752D02*
X262113533Y-116643752D01*
X275412533Y-115342752D02*
X274111533Y-116643752D01*
X275412533Y-103944752D02*
X275412533Y-115342752D01*
X274111533Y-102643752D02*
X275412533Y-103944752D01*
X240349033Y-109643752D02*
G75*
G03*
X240349033Y-109643752I-811500J0D01*
G01*
X256362533Y-115342752D02*
X255061533Y-116643752D01*
X256362533Y-103944752D02*
X256362533Y-115342752D01*
X255061533Y-102643752D02*
X256362533Y-103944752D01*
X243063533Y-102643752D02*
X255061533Y-102643752D01*
X241762533Y-103944752D02*
X243063533Y-102643752D01*
X241762533Y-115342752D02*
X241762533Y-103944752D01*
X243063533Y-116643752D02*
X241762533Y-115342752D01*
X255061533Y-116643752D02*
X243063533Y-116643752D01*
X85567783Y-166793752D02*
G75*
G03*
X85567783Y-166793752I-811500J0D01*
G01*
X226061533Y-128693752D02*
G75*
G03*
X226061533Y-128693752I-811500J0D01*
G01*
X103962533Y-161094752D02*
X103962533Y-172492752D01*
X102661533Y-159793752D02*
X103962533Y-161094752D01*
X90663533Y-159793752D02*
X102661533Y-159793752D01*
X89362533Y-161094752D02*
X90663533Y-159793752D01*
X89362533Y-172492752D02*
X89362533Y-161094752D01*
X90663533Y-173793752D02*
X89362533Y-172492752D01*
X102661533Y-173793752D02*
X90663533Y-173793752D01*
X103962533Y-172492752D02*
X102661533Y-173793752D01*
X78849033Y-159793752D02*
X80150033Y-161094752D01*
X66851033Y-159793752D02*
X78849033Y-159793752D01*
X65550033Y-161094752D02*
X66851033Y-159793752D01*
X65550033Y-172492752D02*
X65550033Y-161094752D01*
X66851033Y-173793752D02*
X65550033Y-172492752D01*
X78849033Y-173793752D02*
X66851033Y-173793752D01*
X80150033Y-172492752D02*
X78849033Y-173793752D01*
X80150033Y-161094752D02*
X80150033Y-172492752D01*
X133192783Y-166793752D02*
G75*
G03*
X133192783Y-166793752I-811500J0D01*
G01*
X140336533Y-147743752D02*
G75*
G03*
X140336533Y-147743752I-811500J0D01*
G01*
X181151033Y-140743752D02*
X193149033Y-140743752D01*
X179850033Y-142044752D02*
X181151033Y-140743752D01*
X179850033Y-153442752D02*
X179850033Y-142044752D01*
X181151033Y-154743752D02*
X179850033Y-153442752D01*
X193149033Y-154743752D02*
X181151033Y-154743752D01*
X194450033Y-153442752D02*
X193149033Y-154743752D01*
X194450033Y-142044752D02*
X194450033Y-153442752D01*
X193149033Y-140743752D02*
X194450033Y-142044752D01*
X171626033Y-121693752D02*
X183624033Y-121693752D01*
X170325033Y-122994752D02*
X171626033Y-121693752D01*
X170325033Y-134392752D02*
X170325033Y-122994752D01*
X171626033Y-135693752D02*
X170325033Y-134392752D01*
X183624033Y-135693752D02*
X171626033Y-135693752D01*
X184925033Y-134392752D02*
X183624033Y-135693752D01*
X184925033Y-122994752D02*
X184925033Y-134392752D01*
X183624033Y-121693752D02*
X184925033Y-122994752D01*
X236011533Y-102643752D02*
X237312533Y-103944752D01*
X224013533Y-102643752D02*
X236011533Y-102643752D01*
X222712533Y-103944752D02*
X224013533Y-102643752D01*
X222712533Y-115342752D02*
X222712533Y-103944752D01*
X224013533Y-116643752D02*
X222712533Y-115342752D01*
X236011533Y-116643752D02*
X224013533Y-116643752D01*
X237312533Y-115342752D02*
X236011533Y-116643752D01*
X237312533Y-103944752D02*
X237312533Y-115342752D01*
X162101033Y-140743752D02*
X174099033Y-140743752D01*
X160800033Y-142044752D02*
X162101033Y-140743752D01*
X160800033Y-153442752D02*
X160800033Y-142044752D01*
X162101033Y-154743752D02*
X160800033Y-153442752D01*
X174099033Y-154743752D02*
X162101033Y-154743752D01*
X175400033Y-153442752D02*
X174099033Y-154743752D01*
X175400033Y-142044752D02*
X175400033Y-153442752D01*
X174099033Y-140743752D02*
X175400033Y-142044752D01*
X189375033Y-122994752D02*
X190676033Y-121693752D01*
X189375033Y-134392752D02*
X189375033Y-122994752D01*
X190676033Y-135693752D02*
X189375033Y-134392752D01*
X202674033Y-135693752D02*
X190676033Y-135693752D01*
X203975033Y-134392752D02*
X202674033Y-135693752D01*
X203975033Y-122994752D02*
X203975033Y-134392752D01*
X202674033Y-121693752D02*
X203975033Y-122994752D01*
X190676033Y-121693752D02*
X202674033Y-121693752D01*
X149861533Y-128693752D02*
G75*
G03*
X149861533Y-128693752I-811500J0D01*
G01*
X155049033Y-154743752D02*
X143051033Y-154743752D01*
X156350033Y-153442752D02*
X155049033Y-154743752D01*
X156350033Y-142044752D02*
X156350033Y-153442752D01*
X155049033Y-140743752D02*
X156350033Y-142044752D01*
X143051033Y-140743752D02*
X155049033Y-140743752D01*
X141750033Y-142044752D02*
X143051033Y-140743752D01*
X141750033Y-153442752D02*
X141750033Y-142044752D01*
X143051033Y-154743752D02*
X141750033Y-153442752D01*
X111761533Y-128693752D02*
G75*
G03*
X111761533Y-128693752I-811500J0D01*
G01*
X94125033Y-134392752D02*
X94125033Y-122994752D01*
X95426033Y-135693752D02*
X94125033Y-134392752D01*
X107424033Y-135693752D02*
X95426033Y-135693752D01*
X108725033Y-134392752D02*
X107424033Y-135693752D01*
X108725033Y-122994752D02*
X108725033Y-134392752D01*
X107424033Y-121693752D02*
X108725033Y-122994752D01*
X95426033Y-121693752D02*
X107424033Y-121693752D01*
X94125033Y-122994752D02*
X95426033Y-121693752D01*
X102236533Y-147743752D02*
G75*
G03*
X102236533Y-147743752I-811500J0D01*
G01*
X95993783Y-140743752D02*
X95993783Y-153011752D01*
X63993783Y-140743752D02*
X95993783Y-140743752D01*
X63993783Y-153011752D02*
X63993783Y-140743752D01*
X66993783Y-154743752D02*
X63993783Y-153011752D01*
X92993783Y-154743752D02*
X66993783Y-154743752D01*
X95993783Y-153011752D02*
X92993783Y-154743752D01*
X164574033Y-135693752D02*
X152576033Y-135693752D01*
X165875033Y-134392752D02*
X164574033Y-135693752D01*
X165875033Y-122994752D02*
X165875033Y-134392752D01*
X164574033Y-121693752D02*
X165875033Y-122994752D01*
X152576033Y-121693752D02*
X164574033Y-121693752D01*
X151275033Y-122994752D02*
X152576033Y-121693752D01*
X151275033Y-134392752D02*
X151275033Y-122994752D01*
X152576033Y-135693752D02*
X151275033Y-134392752D01*
X116949033Y-140743752D02*
X118250033Y-142044752D01*
X104951033Y-140743752D02*
X116949033Y-140743752D01*
X103650033Y-142044752D02*
X104951033Y-140743752D01*
X103650033Y-153442752D02*
X103650033Y-142044752D01*
X104951033Y-154743752D02*
X103650033Y-153442752D01*
X116949033Y-154743752D02*
X104951033Y-154743752D01*
X118250033Y-153442752D02*
X116949033Y-154743752D01*
X118250033Y-142044752D02*
X118250033Y-153442752D01*
X69232283Y-121693752D02*
X81230283Y-121693752D01*
X67931283Y-122994752D02*
X69232283Y-121693752D01*
X67931283Y-134392752D02*
X67931283Y-122994752D01*
X69232283Y-135693752D02*
X67931283Y-134392752D01*
X81230283Y-135693752D02*
X69232283Y-135693752D01*
X82531283Y-134392752D02*
X81230283Y-135693752D01*
X82531283Y-122994752D02*
X82531283Y-134392752D01*
X81230283Y-121693752D02*
X82531283Y-122994752D01*
X137300033Y-153442752D02*
X135999033Y-154743752D01*
X137300033Y-142044752D02*
X137300033Y-153442752D01*
X135999033Y-140743752D02*
X137300033Y-142044752D01*
X124001033Y-140743752D02*
X135999033Y-140743752D01*
X122700033Y-142044752D02*
X124001033Y-140743752D01*
X122700033Y-153442752D02*
X122700033Y-142044752D01*
X124001033Y-154743752D02*
X122700033Y-153442752D01*
X135999033Y-154743752D02*
X124001033Y-154743752D01*
X132225033Y-122994752D02*
X133526033Y-121693752D01*
X132225033Y-134392752D02*
X132225033Y-122994752D01*
X133526033Y-135693752D02*
X132225033Y-134392752D01*
X145524033Y-135693752D02*
X133526033Y-135693752D01*
X146825033Y-134392752D02*
X145524033Y-135693752D01*
X146825033Y-122994752D02*
X146825033Y-134392752D01*
X145524033Y-121693752D02*
X146825033Y-122994752D01*
X133526033Y-121693752D02*
X145524033Y-121693752D01*
X264161533Y-128693752D02*
G75*
G03*
X264161533Y-128693752I-811500J0D01*
G01*
X126474033Y-135693752D02*
X114476033Y-135693752D01*
X127775033Y-134392752D02*
X126474033Y-135693752D01*
X127775033Y-122994752D02*
X127775033Y-134392752D01*
X126474033Y-121693752D02*
X127775033Y-122994752D01*
X114476033Y-121693752D02*
X126474033Y-121693752D01*
X113175033Y-122994752D02*
X114476033Y-121693752D01*
X113175033Y-134392752D02*
X113175033Y-122994752D01*
X114476033Y-135693752D02*
X113175033Y-134392752D01*
X198900033Y-153442752D02*
X198900033Y-142044752D01*
X200201033Y-154743752D02*
X198900033Y-153442752D01*
X212199033Y-154743752D02*
X200201033Y-154743752D01*
X213500033Y-153442752D02*
X212199033Y-154743752D01*
X213500033Y-142044752D02*
X213500033Y-153442752D01*
X212199033Y-140743752D02*
X213500033Y-142044752D01*
X200201033Y-140743752D02*
X212199033Y-140743752D01*
X198900033Y-142044752D02*
X200201033Y-140743752D01*
X238301033Y-140743752D02*
X250299033Y-140743752D01*
X237000033Y-142044752D02*
X238301033Y-140743752D01*
X237000033Y-153442752D02*
X237000033Y-142044752D01*
X238301033Y-154743752D02*
X237000033Y-153442752D01*
X250299033Y-154743752D02*
X238301033Y-154743752D01*
X251600033Y-153442752D02*
X250299033Y-154743752D01*
X251600033Y-142044752D02*
X251600033Y-153442752D01*
X250299033Y-140743752D02*
X251600033Y-142044752D01*
X259824033Y-121693752D02*
X261125033Y-122994752D01*
X247826033Y-121693752D02*
X259824033Y-121693752D01*
X246525033Y-122994752D02*
X247826033Y-121693752D01*
X246525033Y-134392752D02*
X246525033Y-122994752D01*
X247826033Y-135693752D02*
X246525033Y-134392752D01*
X259824033Y-135693752D02*
X247826033Y-135693752D01*
X261125033Y-134392752D02*
X259824033Y-135693752D01*
X261125033Y-122994752D02*
X261125033Y-134392752D01*
X209726033Y-135693752D02*
X208425033Y-134392752D01*
X221724033Y-135693752D02*
X209726033Y-135693752D01*
X223025033Y-134392752D02*
X221724033Y-135693752D01*
X223025033Y-122994752D02*
X223025033Y-134392752D01*
X221724033Y-121693752D02*
X223025033Y-122994752D01*
X209726033Y-121693752D02*
X221724033Y-121693752D01*
X208425033Y-122994752D02*
X209726033Y-121693752D01*
X208425033Y-134392752D02*
X208425033Y-122994752D01*
X228776033Y-135693752D02*
X227475033Y-134392752D01*
X240774033Y-135693752D02*
X228776033Y-135693752D01*
X242075033Y-134392752D02*
X240774033Y-135693752D01*
X242075033Y-122994752D02*
X242075033Y-134392752D01*
X240774033Y-121693752D02*
X242075033Y-122994752D01*
X228776033Y-121693752D02*
X240774033Y-121693752D01*
X227475033Y-122994752D02*
X228776033Y-121693752D01*
X227475033Y-134392752D02*
X227475033Y-122994752D01*
X194137533Y-161094752D02*
X195438533Y-159793752D01*
X194137533Y-172492752D02*
X194137533Y-161094752D01*
X195438533Y-173793752D02*
X194137533Y-172492752D01*
X207436533Y-173793752D02*
X195438533Y-173793752D01*
X208737533Y-172492752D02*
X207436533Y-173793752D01*
X208737533Y-161094752D02*
X208737533Y-172492752D01*
X207436533Y-159793752D02*
X208737533Y-161094752D01*
X195438533Y-159793752D02*
X207436533Y-159793752D01*
X97474033Y-90593752D02*
G75*
G03*
X97474033Y-90593752I-811500J0D01*
G01*
X150510533Y-173664252D02*
X138064533Y-173664252D01*
X151018533Y-173156252D02*
X150510533Y-173664252D01*
X151018533Y-160431252D02*
X151018533Y-173156252D01*
X150510533Y-159923252D02*
X151018533Y-160431252D01*
X138064533Y-159923252D02*
X150510533Y-159923252D01*
X137556533Y-160431252D02*
X138064533Y-159923252D01*
X137556533Y-173156252D02*
X137556533Y-160431252D01*
X138064533Y-173664252D02*
X137556533Y-173156252D01*
X173674033Y-90593752D02*
G75*
G03*
X173674033Y-90593752I-811500J0D01*
G01*
X64136533Y-109643752D02*
G75*
G03*
X64136533Y-109643752I-811500J0D01*
G01*
X127462533Y-115342752D02*
X127462533Y-103944752D01*
X128763533Y-116643752D02*
X127462533Y-115342752D01*
X140761533Y-116643752D02*
X128763533Y-116643752D01*
X142062533Y-115342752D02*
X140761533Y-116643752D01*
X142062533Y-103944752D02*
X142062533Y-115342752D01*
X140761533Y-102643752D02*
X142062533Y-103944752D01*
X128763533Y-102643752D02*
X140761533Y-102643752D01*
X127462533Y-103944752D02*
X128763533Y-102643752D01*
X84949033Y-109293752D02*
G75*
G03*
X84949033Y-109293752I-811500J0D01*
G01*
X189687533Y-84894752D02*
X189687533Y-96292752D01*
X188386533Y-83593752D02*
X189687533Y-84894752D01*
X176388533Y-83593752D02*
X188386533Y-83593752D01*
X175087533Y-84894752D02*
X176388533Y-83593752D01*
X175087533Y-96292752D02*
X175087533Y-84894752D01*
X176388533Y-97593752D02*
X175087533Y-96292752D01*
X188386533Y-97593752D02*
X176388533Y-97593752D01*
X189687533Y-96292752D02*
X188386533Y-97593752D01*
X79837533Y-84894752D02*
X81138533Y-83593752D01*
X79837533Y-96292752D02*
X79837533Y-84894752D01*
X81138533Y-97593752D02*
X79837533Y-96292752D01*
X93136533Y-97593752D02*
X81138533Y-97593752D01*
X94437533Y-96292752D02*
X93136533Y-97593752D01*
X94437533Y-84894752D02*
X94437533Y-96292752D01*
X93136533Y-83593752D02*
X94437533Y-84894752D01*
X81138533Y-83593752D02*
X93136533Y-83593752D01*
X219251033Y-140743752D02*
X231249033Y-140743752D01*
X217950033Y-142044752D02*
X219251033Y-140743752D01*
X217950033Y-153442752D02*
X217950033Y-142044752D01*
X219251033Y-154743752D02*
X217950033Y-153442752D01*
X231249033Y-154743752D02*
X219251033Y-154743752D01*
X232550033Y-153442752D02*
X231249033Y-154743752D01*
X232550033Y-142044752D02*
X232550033Y-153442752D01*
X231249033Y-140743752D02*
X232550033Y-142044752D01*
X208737533Y-96292752D02*
X207436533Y-97593752D01*
X208737533Y-84894752D02*
X208737533Y-96292752D01*
X207436533Y-83593752D02*
X208737533Y-84894752D01*
X195438533Y-83593752D02*
X207436533Y-83593752D01*
X194137533Y-84894752D02*
X195438533Y-83593752D01*
X194137533Y-96292752D02*
X194137533Y-84894752D01*
X195438533Y-97593752D02*
X194137533Y-96292752D01*
X207436533Y-97593752D02*
X195438533Y-97593752D01*
X135574033Y-90593752D02*
G75*
G03*
X135574033Y-90593752I-811500J0D01*
G01*
X65550033Y-115342752D02*
X65550033Y-103944752D01*
X66851033Y-116643752D02*
X65550033Y-115342752D01*
X78849033Y-116643752D02*
X66851033Y-116643752D01*
X80150033Y-115342752D02*
X78849033Y-116643752D01*
X80150033Y-103944752D02*
X80150033Y-115342752D01*
X78849033Y-102643752D02*
X80150033Y-103944752D01*
X66851033Y-102643752D02*
X78849033Y-102643752D01*
X65550033Y-103944752D02*
X66851033Y-102643752D01*
X98887533Y-84894752D02*
X100188533Y-83593752D01*
X98887533Y-96292752D02*
X98887533Y-84894752D01*
X100188533Y-97593752D02*
X98887533Y-96292752D01*
X112186533Y-97593752D02*
X100188533Y-97593752D01*
X113487533Y-96292752D02*
X112186533Y-97593752D01*
X113487533Y-84894752D02*
X113487533Y-96292752D01*
X112186533Y-83593752D02*
X113487533Y-84894752D01*
X100188533Y-83593752D02*
X112186533Y-83593752D01*
X131236533Y-97593752D02*
X119238533Y-97593752D01*
X132537533Y-96292752D02*
X131236533Y-97593752D01*
X132537533Y-84894752D02*
X132537533Y-96292752D01*
X131236533Y-83593752D02*
X132537533Y-84894752D01*
X119238533Y-83593752D02*
X131236533Y-83593752D01*
X117937533Y-84894752D02*
X119238533Y-83593752D01*
X117937533Y-96292752D02*
X117937533Y-84894752D01*
X119238533Y-97593752D02*
X117937533Y-96292752D01*
X138288533Y-97593752D02*
X136987533Y-96292752D01*
X150286533Y-97593752D02*
X138288533Y-97593752D01*
X151587533Y-96292752D02*
X150286533Y-97593752D01*
X151587533Y-84894752D02*
X151587533Y-96292752D01*
X150286533Y-83593752D02*
X151587533Y-84894752D01*
X138288533Y-83593752D02*
X150286533Y-83593752D01*
X136987533Y-84894752D02*
X138288533Y-83593752D01*
X136987533Y-96292752D02*
X136987533Y-84894752D01*
X114476033Y-159793752D02*
X126474033Y-159793752D01*
X113175033Y-161094752D02*
X114476033Y-159793752D01*
X113175033Y-172492752D02*
X113175033Y-161094752D01*
X114476033Y-173793752D02*
X113175033Y-172492752D01*
X126474033Y-173793752D02*
X114476033Y-173793752D01*
X127775033Y-172492752D02*
X126474033Y-173793752D01*
X127775033Y-161094752D02*
X127775033Y-172492752D01*
X126474033Y-159793752D02*
X127775033Y-161094752D01*
X302261533Y-128693752D02*
G75*
G03*
X302261533Y-128693752I-811500J0D01*
G01*
X211774033Y-166793752D02*
G75*
G03*
X211774033Y-166793752I-811500J0D01*
G01*
X265575033Y-122994752D02*
X266876033Y-121693752D01*
X265575033Y-134392752D02*
X265575033Y-122994752D01*
X266876033Y-135693752D02*
X265575033Y-134392752D01*
X278874033Y-135693752D02*
X266876033Y-135693752D01*
X280175033Y-134392752D02*
X278874033Y-135693752D01*
X280175033Y-122994752D02*
X280175033Y-134392752D01*
X278874033Y-121693752D02*
X280175033Y-122994752D01*
X266876033Y-121693752D02*
X278874033Y-121693752D01*
X285926033Y-135693752D02*
X284625033Y-134392752D01*
X297924033Y-135693752D02*
X285926033Y-135693752D01*
X299225033Y-134392752D02*
X297924033Y-135693752D01*
X299225033Y-122994752D02*
X299225033Y-134392752D01*
X297924033Y-121693752D02*
X299225033Y-122994752D01*
X285926033Y-121693752D02*
X297924033Y-121693752D01*
X284625033Y-122994752D02*
X285926033Y-121693752D01*
X284625033Y-134392752D02*
X284625033Y-122994752D01*
X292736533Y-147743752D02*
G75*
G03*
X292736533Y-147743752I-811500J0D01*
G01*
X156037533Y-96292752D02*
X156037533Y-84894752D01*
X157338533Y-97593752D02*
X156037533Y-96292752D01*
X169336533Y-97593752D02*
X157338533Y-97593752D01*
X170637533Y-96292752D02*
X169336533Y-97593752D01*
X170637533Y-84894752D02*
X170637533Y-96292752D01*
X169336533Y-83593752D02*
X170637533Y-84894752D01*
X157338533Y-83593752D02*
X169336533Y-83593752D01*
X156037533Y-84894752D02*
X157338533Y-83593752D01*
X216536533Y-147743752D02*
G75*
G03*
X216536533Y-147743752I-811500J0D01*
G01*
X254636533Y-147743752D02*
G75*
G03*
X254636533Y-147743752I-811500J0D01*
G01*
X270650033Y-142044752D02*
X270650033Y-153442752D01*
X269349033Y-140743752D02*
X270650033Y-142044752D01*
X257351033Y-140743752D02*
X269349033Y-140743752D01*
X256050033Y-142044752D02*
X257351033Y-140743752D01*
X256050033Y-153442752D02*
X256050033Y-142044752D01*
X257351033Y-154743752D02*
X256050033Y-153442752D01*
X269349033Y-154743752D02*
X257351033Y-154743752D01*
X270650033Y-153442752D02*
X269349033Y-154743752D01*
X297368721Y-166793752D02*
G75*
G03*
X297368721Y-166793752I-811500J0D01*
G01*
X60787533Y-96292752D02*
X60787533Y-84894752D01*
X62088533Y-97593752D02*
X60787533Y-96292752D01*
X74086533Y-97593752D02*
X62088533Y-97593752D01*
X75387533Y-96292752D02*
X74086533Y-97593752D01*
X75387533Y-84894752D02*
X75387533Y-96292752D01*
X74086533Y-83593752D02*
X75387533Y-84894752D01*
X62088533Y-83593752D02*
X74086533Y-83593752D01*
X60787533Y-84894752D02*
X62088533Y-83593752D01*
X276401033Y-159793752D02*
X288399033Y-159793752D01*
X275100033Y-161094752D02*
X276401033Y-159793752D01*
X275100033Y-172492752D02*
X275100033Y-161094752D01*
X276401033Y-173793752D02*
X275100033Y-172492752D01*
X288399033Y-173793752D02*
X276401033Y-173793752D01*
X289700033Y-172492752D02*
X288399033Y-173793752D01*
X289700033Y-161094752D02*
X289700033Y-172492752D01*
X288399033Y-159793752D02*
X289700033Y-161094752D01*
X313512533Y-161094752D02*
X313512533Y-172492752D01*
X312211533Y-159793752D02*
X313512533Y-161094752D01*
X300213533Y-159793752D02*
X312211533Y-159793752D01*
X298912533Y-161094752D02*
X300213533Y-159793752D01*
X298912533Y-172492752D02*
X298912533Y-161094752D01*
X300213533Y-173793752D02*
X298912533Y-172492752D01*
X312211533Y-173793752D02*
X300213533Y-173793752D01*
X313512533Y-172492752D02*
X312211533Y-173793752D01*
X324026033Y-159793752D02*
X336024033Y-159793752D01*
X322725033Y-161094752D02*
X324026033Y-159793752D01*
X322725033Y-172492752D02*
X322725033Y-161094752D01*
X324026033Y-173793752D02*
X322725033Y-172492752D01*
X336024033Y-173793752D02*
X324026033Y-173793752D01*
X337325033Y-172492752D02*
X336024033Y-173793752D01*
X337325033Y-161094752D02*
X337325033Y-172492752D01*
X336024033Y-159793752D02*
X337325033Y-161094752D01*
X301293783Y-153442752D02*
X301293783Y-142044752D01*
X302594783Y-154743752D02*
X301293783Y-153442752D01*
X314592783Y-154743752D02*
X302594783Y-154743752D01*
X315893783Y-153442752D02*
X314592783Y-154743752D01*
X315893783Y-142044752D02*
X315893783Y-153442752D01*
X314592783Y-140743752D02*
X315893783Y-142044752D01*
X302594783Y-140743752D02*
X314592783Y-140743752D01*
X301293783Y-142044752D02*
X302594783Y-140743752D01*
X338881283Y-121693752D02*
X338881283Y-133961752D01*
X306881283Y-121693752D02*
X338881283Y-121693752D01*
X306881283Y-133961752D02*
X306881283Y-121693752D01*
X309881283Y-135693752D02*
X306881283Y-133961752D01*
X335881283Y-135693752D02*
X309881283Y-135693752D01*
X338881283Y-133961752D02*
X335881283Y-135693752D01*
X252364533Y-173664252D02*
X251856533Y-173156252D01*
X264810533Y-173664252D02*
X252364533Y-173664252D01*
X265318533Y-173156252D02*
X264810533Y-173664252D01*
X265318533Y-160431252D02*
X265318533Y-173156252D01*
X264810533Y-159923252D02*
X265318533Y-160431252D01*
X252364533Y-159923252D02*
X264810533Y-159923252D01*
X251856533Y-160431252D02*
X252364533Y-159923252D01*
X251856533Y-173156252D02*
X251856533Y-160431252D01*
X309562533Y-175993793D02*
X341937529Y-175993793D01*
X309562533Y-175993793D02*
G75*
G03*
X307962533Y-177593793I-1J-1599999D01*
G01*
X307962532Y-179993773D02*
X307962533Y-177593793D01*
X304462532Y-179993772D02*
G75*
G03*
X307962532Y-179993773I1750000J0D01*
G01*
X304462533Y-177593793D02*
X304462532Y-179993772D01*
X304462533Y-177593793D02*
G75*
G03*
X302862533Y-175993793I-1599999J1D01*
G01*
X100012533Y-175993793D02*
X302862533Y-175993793D01*
X100012533Y-175993793D02*
G75*
G03*
X98412533Y-177593793I-1J-1599999D01*
G01*
X98412532Y-179993758D02*
X98412533Y-177593793D01*
X94912532Y-179993757D02*
G75*
G03*
X98412532Y-179993758I1750000J-1D01*
G01*
X94912533Y-177593793D02*
X94912532Y-179993757D01*
X94912533Y-177593793D02*
G75*
G03*
X93312533Y-175993793I-1599999J1D01*
G01*
X60937505Y-175993793D02*
X93312533Y-175993793D01*
X58937505Y-173993793D02*
G75*
G03*
X60937505Y-175993793I2000000J0D01*
G01*
X58937505Y-83393793D02*
X58937505Y-173993793D01*
X60937505Y-81393793D02*
G75*
G03*
X58937505Y-83393793I-1J-1999999D01*
G01*
X74262533Y-81393793D02*
X60937505Y-81393793D01*
X74262533Y-81393793D02*
G75*
G03*
X75862533Y-79793793I1J1599999D01*
G01*
X75862533Y-78393790D02*
X75862533Y-79793793D01*
X79362533Y-78393790D02*
G75*
G03*
X75862533Y-78393790I-1750000J0D01*
G01*
X79362533Y-79793793D02*
X79362533Y-78393790D01*
X79362533Y-79793793D02*
G75*
G03*
X80962533Y-81393793I1599999J-1D01*
G01*
X188562533Y-81393793D02*
X80962533Y-81393793D01*
X188562533Y-81393793D02*
G75*
G03*
X190162533Y-79793793I1J1599999D01*
G01*
X190162533Y-78393774D02*
X190162533Y-79793793D01*
X193662533Y-78393774D02*
G75*
G03*
X190162533Y-78393774I-1750000J0D01*
G01*
X193662533Y-79793793D02*
X193662533Y-78393774D01*
X193662533Y-79793793D02*
G75*
G03*
X195262533Y-81393793I1599999J-1D01*
G01*
X321912533Y-81393793D02*
X195262533Y-81393793D01*
X321912533Y-81393793D02*
G75*
G03*
X323512533Y-79793793I1J1599999D01*
G01*
X323512533Y-78393772D02*
X323512533Y-79793793D01*
X327012533Y-78393772D02*
G75*
G03*
X323512533Y-78393772I-1750000J0D01*
G01*
X327012533Y-79793793D02*
X327012533Y-78393772D01*
X327012533Y-79793793D02*
G75*
G03*
X328612533Y-81393793I1599999J-1D01*
G01*
X341937529Y-81393793D02*
X328612533Y-81393793D01*
X343937529Y-83393793D02*
G75*
G03*
X341937529Y-81393793I-2000000J0D01*
G01*
X343937529Y-173993793D02*
X343937529Y-83393793D01*
X341937529Y-175993793D02*
G75*
G03*
X343937529Y-173993793I-2J2000002D01*
G01*
M02*
