  0
SECTION
  2
HEADER
  9
$ANGBASE
  50
0.0
  9
$ANGDIR
  70
1
  9
$MEASUREMENT
  70
0
  0
ENDSEC
  0
SECTION
  2
TABLES
  0
TABLE
  2
LTYPE
  70
4
  0
LTYPE
  5
40F
  2
CONTINUOUS
  70
0
  3
Solid line
  72
65
  73
0
  40
0.0
  0
LTYPE
  5
410
  2
DASHDOT
 70
0
  3
Dash Dot ____ _ ____ _
 72
65
 73
4
 40
2.0
 49
1.25
 49
-0.25
 49
0.25
 49
-0.25
  0
LTYPE
  5
411
  2
DASHED
 70
0
  3
Dashed __ __ __ __ __
 72
65
 73
2
 40
0.75
 49
0.5
 49
-0.25
  0
LTYPE
  5
43B
  2
DOTTED
 70
0
  3
Dotted .  .  .  .
 72
65
 73
2
 40
0.2
 49
0.0
 49
-0.2
  0
ENDTAB
  0
TABLE
  2
STYLE
  70
4
  0
STYLE
  2
KICAD
  70
0
  40
0
  41
1
  42
1
  50
0
  71
0
  3
isocp.shx
  0
STYLE
  2
KICADB
  70
0
  40
0
  41
1
  42
1
  50
0
  71
0
  3
isocp.shx
  0
STYLE
  2
KICADI
  70
0
  40
0
  41
1
  42
1
  50
15
  71
0
  3
isocp.shx
  0
STYLE
  2
KICADBI
  70
0
  40
0
  41
1
  42
1
  50
15
  71
0
  3
isocp.shx
  0
ENDTAB
  0
TABLE
  2
LAYER
  70
1
  0
LAYER
  2
BLACK
  70
0
  62
7
  6
CONTINUOUS
  0
ENDTAB
  0
ENDSEC
  0
SECTION
  2
ENTITIES
0
LINE
8
BLACK
6
CONTINUOUS
10
11.165
20
-0.0210691
11
11.1748
21
-0.0241101
0
LINE
8
BLACK
6
CONTINUOUS
10
11.1748
20
-0.0241101
11
11.1841
21
-0.0283051
0
LINE
8
BLACK
6
CONTINUOUS
10
11.1841
20
-0.0283051
11
11.1929
21
-0.0335931
0
LINE
8
BLACK
6
CONTINUOUS
10
11.1929
20
-0.0335931
11
11.2009
21
-0.039897
0
LINE
8
BLACK
6
CONTINUOUS
10
11.2009
20
-0.039897
11
11.2081
21
-0.0471247
0
LINE
8
BLACK
6
CONTINUOUS
10
11.2081
20
-0.0471247
11
11.2144
21
-0.0551709
0
LINE
8
BLACK
6
CONTINUOUS
10
11.2144
20
-0.0551709
11
11.2197
21
-0.0639183
0
LINE
8
BLACK
6
CONTINUOUS
10
11.2197
20
-0.0639183
11
11.2239
21
-0.0732394
0
LINE
8
BLACK
6
CONTINUOUS
10
11.2239
20
-0.0732394
11
11.227
21
-0.0829981
0
LINE
8
BLACK
6
CONTINUOUS
10
11.227
20
-0.0829981
11
11.2288
21
-0.0930522
0
LINE
8
BLACK
6
CONTINUOUS
10
11.2288
20
-0.0930522
11
11.2294
21
-0.103255
0
LINE
8
BLACK
6
CONTINUOUS
10
11.2294
20
-0.103255
11
11.2294
21
-2.19381
0
LINE
8
BLACK
6
CONTINUOUS
10
11.2294
20
-2.19381
11
11.2286
21
-2.19676
0
LINE
8
BLACK
6
CONTINUOUS
10
11.2286
20
-2.19676
11
11.2265
21
-2.19892
0
LINE
8
BLACK
6
CONTINUOUS
10
11.2265
20
-2.19892
11
11.2235
21
-2.19971
0
LINE
8
BLACK
6
CONTINUOUS
10
11.2235
20
-2.19971
11
11.0739
21
-2.19971
0
LINE
8
BLACK
6
CONTINUOUS
10
11.0739
20
-2.19971
11
11.0735
21
-2.19959
0
LINE
8
BLACK
6
CONTINUOUS
10
11.0735
20
-2.19959
11
11.0662
21
-2.20017
0
LINE
8
BLACK
6
CONTINUOUS
10
11.0662
20
-2.20017
11
11.0587
21
-2.20198
0
LINE
8
BLACK
6
CONTINUOUS
10
11.0587
20
-2.20198
11
11.0515
21
-2.20494
0
LINE
8
BLACK
6
CONTINUOUS
10
11.0515
20
-2.20494
11
11.0449
21
-2.20899
0
LINE
8
BLACK
6
CONTINUOUS
10
11.0449
20
-2.20899
11
11.039
21
-2.21402
0
LINE
8
BLACK
6
CONTINUOUS
10
11.039
20
-2.21402
11
11.034
21
-2.21991
0
LINE
8
BLACK
6
CONTINUOUS
10
11.034
20
-2.21991
11
11.0299
21
-2.22651
0
LINE
8
BLACK
6
CONTINUOUS
10
11.0299
20
-2.22651
11
11.027
21
-2.23367
0
LINE
8
BLACK
6
CONTINUOUS
10
11.027
20
-2.23367
11
11.0252
21
-2.2412
0
LINE
8
BLACK
6
CONTINUOUS
10
11.0252
20
-2.2412
11
11.0246
21
-2.24849
0
LINE
8
BLACK
6
CONTINUOUS
10
11.0246
20
-2.24849
11
11.0247
21
-2.24892
0
LINE
8
BLACK
6
CONTINUOUS
10
11.0247
20
-2.24892
11
11.0246
21
-2.24936
0
LINE
8
BLACK
6
CONTINUOUS
10
11.0246
20
-2.24936
11
11.0252
21
-2.25665
0
LINE
8
BLACK
6
CONTINUOUS
10
11.0252
20
-2.25665
11
11.027
21
-2.26418
0
LINE
8
BLACK
6
CONTINUOUS
10
11.027
20
-2.26418
11
11.0299
21
-2.27134
0
LINE
8
BLACK
6
CONTINUOUS
10
11.0299
20
-2.27134
11
11.034
21
-2.27794
0
LINE
8
BLACK
6
CONTINUOUS
10
11.034
20
-2.27794
11
11.039
21
-2.28383
0
LINE
8
BLACK
6
CONTINUOUS
10
11.039
20
-2.28383
11
11.0449
21
-2.28886
0
LINE
8
BLACK
6
CONTINUOUS
10
11.0449
20
-2.28886
11
11.0515
21
-2.29291
0
LINE
8
BLACK
6
CONTINUOUS
10
11.0515
20
-2.29291
11
11.0587
21
-2.29587
0
LINE
8
BLACK
6
CONTINUOUS
10
11.0587
20
-2.29587
11
11.0662
21
-2.29768
0
LINE
8
BLACK
6
CONTINUOUS
10
11.0662
20
-2.29768
11
11.0735
21
-2.29825
0
LINE
8
BLACK
6
CONTINUOUS
10
11.0735
20
-2.29825
11
11.0739
21
-2.29814
0
LINE
8
BLACK
6
CONTINUOUS
10
11.0739
20
-2.29814
11
11.2235
21
-2.29814
0
LINE
8
BLACK
6
CONTINUOUS
10
11.2235
20
-2.29814
11
11.2265
21
-2.29893
0
LINE
8
BLACK
6
CONTINUOUS
10
11.2265
20
-2.29893
11
11.2286
21
-2.30109
0
LINE
8
BLACK
6
CONTINUOUS
10
11.2286
20
-2.30109
11
11.2294
21
-2.30404
0
LINE
8
BLACK
6
CONTINUOUS
10
11.2294
20
-2.30404
11
11.2294
21
-3.67018
0
LINE
8
BLACK
6
CONTINUOUS
10
11.2294
20
-3.67018
11
11.2288
21
-3.68039
0
LINE
8
BLACK
6
CONTINUOUS
10
11.2288
20
-3.68039
11
11.227
21
-3.69044
0
LINE
8
BLACK
6
CONTINUOUS
10
11.227
20
-3.69044
11
11.2239
21
-3.7002
0
LINE
8
BLACK
6
CONTINUOUS
10
11.2239
20
-3.7002
11
11.2197
21
-3.70952
0
LINE
8
BLACK
6
CONTINUOUS
10
11.2197
20
-3.70952
11
11.2144
21
-3.71827
0
LINE
8
BLACK
6
CONTINUOUS
10
11.2144
20
-3.71827
11
11.2081
21
-3.72631
0
LINE
8
BLACK
6
CONTINUOUS
10
11.2081
20
-3.72631
11
11.2009
21
-3.73354
0
LINE
8
BLACK
6
CONTINUOUS
10
11.2009
20
-3.73354
11
11.1929
21
-3.73985
0
LINE
8
BLACK
6
CONTINUOUS
10
11.1929
20
-3.73985
11
11.1841
21
-3.74513
0
LINE
8
BLACK
6
CONTINUOUS
10
11.1841
20
-3.74513
11
11.1748
21
-3.74933
0
LINE
8
BLACK
6
CONTINUOUS
10
11.1748
20
-3.74933
11
11.165
21
-3.75237
0
LINE
8
BLACK
6
CONTINUOUS
10
11.165
20
-3.75237
11
11.155
21
-3.75421
0
LINE
8
BLACK
6
CONTINUOUS
10
11.155
20
-3.75421
11
11.1448
21
-3.75483
0
LINE
8
BLACK
6
CONTINUOUS
10
11.1448
20
-3.75483
11
9.3322
21
-3.75483
0
LINE
8
BLACK
6
CONTINUOUS
10
9.3322
20
-3.75483
11
9.3322
21
-3.75483
0
LINE
8
BLACK
6
CONTINUOUS
10
9.3322
20
-3.75483
11
9.32338
21
-3.75423
0
LINE
8
BLACK
6
CONTINUOUS
10
9.32338
20
-3.75423
11
9.31472
21
-3.75244
0
LINE
8
BLACK
6
CONTINUOUS
10
9.31472
20
-3.75244
11
9.30638
21
-3.74948
0
LINE
8
BLACK
6
CONTINUOUS
10
9.30638
20
-3.74948
11
9.29852
21
-3.74542
0
LINE
8
BLACK
6
CONTINUOUS
10
9.29852
20
-3.74542
11
9.29129
21
-3.74033
0
LINE
8
BLACK
6
CONTINUOUS
10
9.29129
20
-3.74033
11
9.28481
21
-3.7343
0
LINE
8
BLACK
6
CONTINUOUS
10
9.28481
20
-3.7343
11
9.27922
21
-3.72745
0
LINE
8
BLACK
6
CONTINUOUS
10
9.27922
20
-3.72745
11
9.2746
21
-3.71991
0
LINE
8
BLACK
6
CONTINUOUS
10
9.2746
20
-3.71991
11
9.2746
21
-3.71991
0
LINE
8
BLACK
6
CONTINUOUS
10
9.2746
20
-3.71991
11
9.2746
21
-3.71991
0
LINE
8
BLACK
6
CONTINUOUS
10
9.2746
20
-3.71991
11
9.2746
21
-3.7199
0
LINE
8
BLACK
6
CONTINUOUS
10
9.2746
20
-3.7199
11
9.2746
21
-3.7199
0
LINE
8
BLACK
6
CONTINUOUS
10
9.2746
20
-3.7199
11
9.2746
21
-3.7199
0
LINE
8
BLACK
6
CONTINUOUS
10
9.2746
20
-3.7199
11
9.27448
21
-3.71936
0
LINE
8
BLACK
6
CONTINUOUS
10
9.27448
20
-3.71936
11
9.26818
21
-3.70874
0
LINE
8
BLACK
6
CONTINUOUS
10
9.26818
20
-3.70874
11
9.26044
21
-3.69844
0
LINE
8
BLACK
6
CONTINUOUS
10
9.26044
20
-3.69844
11
9.25163
21
-3.68904
0
LINE
8
BLACK
6
CONTINUOUS
10
9.25163
20
-3.68904
11
9.24184
21
-3.68065
0
LINE
8
BLACK
6
CONTINUOUS
10
9.24184
20
-3.68065
11
9.2312
21
-3.67338
0
LINE
8
BLACK
6
CONTINUOUS
10
9.2312
20
-3.67338
11
9.21983
21
-3.66731
0
LINE
8
BLACK
6
CONTINUOUS
10
9.21983
20
-3.66731
11
9.20787
21
-3.66251
0
LINE
8
BLACK
6
CONTINUOUS
10
9.20787
20
-3.66251
11
9.19546
21
-3.65904
0
LINE
8
BLACK
6
CONTINUOUS
10
9.19546
20
-3.65904
11
9.18274
21
-3.65695
0
LINE
8
BLACK
6
CONTINUOUS
10
9.18274
20
-3.65695
11
9.16988
21
-3.65624
0
LINE
8
BLACK
6
CONTINUOUS
10
9.16988
20
-3.65624
11
9.15701
21
-3.65695
0
LINE
8
BLACK
6
CONTINUOUS
10
9.15701
20
-3.65695
11
9.14429
21
-3.65904
0
LINE
8
BLACK
6
CONTINUOUS
10
9.14429
20
-3.65904
11
9.13188
21
-3.66251
0
LINE
8
BLACK
6
CONTINUOUS
10
9.13188
20
-3.66251
11
9.11992
21
-3.66731
0
LINE
8
BLACK
6
CONTINUOUS
10
9.11992
20
-3.66731
11
9.10855
21
-3.67338
0
LINE
8
BLACK
6
CONTINUOUS
10
9.10855
20
-3.67338
11
9.09791
21
-3.68065
0
LINE
8
BLACK
6
CONTINUOUS
10
9.09791
20
-3.68065
11
9.08813
21
-3.68904
0
LINE
8
BLACK
6
CONTINUOUS
10
9.08813
20
-3.68904
11
9.07931
21
-3.69844
0
LINE
8
BLACK
6
CONTINUOUS
10
9.07931
20
-3.69844
11
9.07157
21
-3.70874
0
LINE
8
BLACK
6
CONTINUOUS
10
9.07157
20
-3.70874
11
9.06527
21
-3.71936
0
LINE
8
BLACK
6
CONTINUOUS
10
9.06527
20
-3.71936
11
9.06515
21
-3.7199
0
LINE
8
BLACK
6
CONTINUOUS
10
9.06515
20
-3.7199
11
9.06515
21
-3.7199
0
LINE
8
BLACK
6
CONTINUOUS
10
9.06515
20
-3.7199
11
9.06515
21
-3.71991
0
LINE
8
BLACK
6
CONTINUOUS
10
9.06515
20
-3.71991
11
9.06515
21
-3.71991
0
LINE
8
BLACK
6
CONTINUOUS
10
9.06515
20
-3.71991
11
9.06515
21
-3.71991
0
LINE
8
BLACK
6
CONTINUOUS
10
9.06515
20
-3.71991
11
9.06054
21
-3.72745
0
LINE
8
BLACK
6
CONTINUOUS
10
9.06054
20
-3.72745
11
9.05494
21
-3.7343
0
LINE
8
BLACK
6
CONTINUOUS
10
9.05494
20
-3.7343
11
9.04847
21
-3.74033
0
LINE
8
BLACK
6
CONTINUOUS
10
9.04847
20
-3.74033
11
9.04123
21
-3.74542
0
LINE
8
BLACK
6
CONTINUOUS
10
9.04123
20
-3.74542
11
9.03337
21
-3.74948
0
LINE
8
BLACK
6
CONTINUOUS
10
9.03337
20
-3.74948
11
9.02504
21
-3.75244
0
LINE
8
BLACK
6
CONTINUOUS
10
9.02504
20
-3.75244
11
9.01637
21
-3.75423
0
LINE
8
BLACK
6
CONTINUOUS
10
9.01637
20
-3.75423
11
9.00755
21
-3.75483
0
LINE
8
BLACK
6
CONTINUOUS
10
9.00755
20
-3.75483
11
9.00755
21
-3.75483
0
LINE
8
BLACK
6
CONTINUOUS
10
9.00755
20
-3.75483
11
2.2072
21
-3.75483
0
LINE
8
BLACK
6
CONTINUOUS
10
2.2072
20
-3.75483
11
2.2072
21
-3.75483
0
LINE
8
BLACK
6
CONTINUOUS
10
2.2072
20
-3.75483
11
2.19838
21
-3.75423
0
LINE
8
BLACK
6
CONTINUOUS
10
2.19838
20
-3.75423
11
2.18972
21
-3.75244
0
LINE
8
BLACK
6
CONTINUOUS
10
2.18972
20
-3.75244
11
2.18138
21
-3.74948
0
LINE
8
BLACK
6
CONTINUOUS
10
2.18138
20
-3.74948
11
2.17352
21
-3.74542
0
LINE
8
BLACK
6
CONTINUOUS
10
2.17352
20
-3.74542
11
2.16629
21
-3.74033
0
LINE
8
BLACK
6
CONTINUOUS
10
2.16629
20
-3.74033
11
2.15981
21
-3.7343
0
LINE
8
BLACK
6
CONTINUOUS
10
2.15981
20
-3.7343
11
2.15422
21
-3.72745
0
LINE
8
BLACK
6
CONTINUOUS
10
2.15422
20
-3.72745
11
2.1496
21
-3.71991
0
LINE
8
BLACK
6
CONTINUOUS
10
2.1496
20
-3.71991
11
2.1496
21
-3.71991
0
LINE
8
BLACK
6
CONTINUOUS
10
2.1496
20
-3.71991
11
2.1496
21
-3.71991
0
LINE
8
BLACK
6
CONTINUOUS
10
2.1496
20
-3.71991
11
2.1496
21
-3.7199
0
LINE
8
BLACK
6
CONTINUOUS
10
2.1496
20
-3.7199
11
2.14948
21
-3.71936
0
LINE
8
BLACK
6
CONTINUOUS
10
2.14948
20
-3.71936
11
2.14318
21
-3.70874
0
LINE
8
BLACK
6
CONTINUOUS
10
2.14318
20
-3.70874
11
2.13544
21
-3.69844
0
LINE
8
BLACK
6
CONTINUOUS
10
2.13544
20
-3.69844
11
2.12663
21
-3.68904
0
LINE
8
BLACK
6
CONTINUOUS
10
2.12663
20
-3.68904
11
2.11684
21
-3.68065
0
LINE
8
BLACK
6
CONTINUOUS
10
2.11684
20
-3.68065
11
2.1062
21
-3.67338
0
LINE
8
BLACK
6
CONTINUOUS
10
2.1062
20
-3.67338
11
2.09483
21
-3.66731
0
LINE
8
BLACK
6
CONTINUOUS
10
2.09483
20
-3.66731
11
2.08287
21
-3.66251
0
LINE
8
BLACK
6
CONTINUOUS
10
2.08287
20
-3.66251
11
2.07046
21
-3.65904
0
LINE
8
BLACK
6
CONTINUOUS
10
2.07046
20
-3.65904
11
2.05774
21
-3.65695
0
LINE
8
BLACK
6
CONTINUOUS
10
2.05774
20
-3.65695
11
2.04488
21
-3.65624
0
LINE
8
BLACK
6
CONTINUOUS
10
2.04488
20
-3.65624
11
2.03201
21
-3.65695
0
LINE
8
BLACK
6
CONTINUOUS
10
2.03201
20
-3.65695
11
2.01929
21
-3.65904
0
LINE
8
BLACK
6
CONTINUOUS
10
2.01929
20
-3.65904
11
2.00688
21
-3.66251
0
LINE
8
BLACK
6
CONTINUOUS
10
2.00688
20
-3.66251
11
1.99492
21
-3.66731
0
LINE
8
BLACK
6
CONTINUOUS
10
1.99492
20
-3.66731
11
1.98355
21
-3.67338
0
LINE
8
BLACK
6
CONTINUOUS
10
1.98355
20
-3.67338
11
1.97291
21
-3.68065
0
LINE
8
BLACK
6
CONTINUOUS
10
1.97291
20
-3.68065
11
1.96313
21
-3.68904
0
LINE
8
BLACK
6
CONTINUOUS
10
1.96313
20
-3.68904
11
1.95431
21
-3.69844
0
LINE
8
BLACK
6
CONTINUOUS
10
1.95431
20
-3.69844
11
1.94657
21
-3.70874
0
LINE
8
BLACK
6
CONTINUOUS
10
1.94657
20
-3.70874
11
1.94027
21
-3.71936
0
LINE
8
BLACK
6
CONTINUOUS
10
1.94027
20
-3.71936
11
1.94015
21
-3.7199
0
LINE
8
BLACK
6
CONTINUOUS
10
1.94015
20
-3.7199
11
1.94015
21
-3.7199
0
LINE
8
BLACK
6
CONTINUOUS
10
1.94015
20
-3.7199
11
1.94015
21
-3.71991
0
LINE
8
BLACK
6
CONTINUOUS
10
1.94015
20
-3.71991
11
1.94015
21
-3.71991
0
LINE
8
BLACK
6
CONTINUOUS
10
1.94015
20
-3.71991
11
1.94015
21
-3.71991
0
LINE
8
BLACK
6
CONTINUOUS
10
1.94015
20
-3.71991
11
1.93554
21
-3.72745
0
LINE
8
BLACK
6
CONTINUOUS
10
1.93554
20
-3.72745
11
1.92994
21
-3.7343
0
LINE
8
BLACK
6
CONTINUOUS
10
1.92994
20
-3.7343
11
1.92347
21
-3.74033
0
LINE
8
BLACK
6
CONTINUOUS
10
1.92347
20
-3.74033
11
1.91623
21
-3.74542
0
LINE
8
BLACK
6
CONTINUOUS
10
1.91623
20
-3.74542
11
1.90837
21
-3.74948
0
LINE
8
BLACK
6
CONTINUOUS
10
1.90837
20
-3.74948
11
1.90004
21
-3.75244
0
LINE
8
BLACK
6
CONTINUOUS
10
1.90004
20
-3.75244
11
1.89137
21
-3.75423
0
LINE
8
BLACK
6
CONTINUOUS
10
1.89137
20
-3.75423
11
1.88255
21
-3.75483
0
LINE
8
BLACK
6
CONTINUOUS
10
1.88255
20
-3.75483
11
1.88255
21
-3.75483
0
LINE
8
BLACK
6
CONTINUOUS
10
1.88255
20
-3.75483
11
0.0817861
21
-3.75483
0
LINE
8
BLACK
6
CONTINUOUS
10
0.0817861
20
-3.75483
11
0.0715832
21
-3.75421
0
LINE
8
BLACK
6
CONTINUOUS
10
0.0715832
20
-3.75421
11
0.0615291
21
-3.75237
0
LINE
8
BLACK
6
CONTINUOUS
10
0.0615291
20
-3.75237
11
0.0517703
21
-3.74933
0
LINE
8
BLACK
6
CONTINUOUS
10
0.0517703
20
-3.74933
11
0.0424493
21
-3.74513
0
LINE
8
BLACK
6
CONTINUOUS
10
0.0424493
20
-3.74513
11
0.0337019
21
-3.73985
0
LINE
8
BLACK
6
CONTINUOUS
10
0.0337019
20
-3.73985
11
0.0256556
21
-3.73354
0
LINE
8
BLACK
6
CONTINUOUS
10
0.0256556
20
-3.73354
11
0.0184279
21
-3.72631
0
LINE
8
BLACK
6
CONTINUOUS
10
0.0184279
20
-3.72631
11
0.0121241
21
-3.71827
0
LINE
8
BLACK
6
CONTINUOUS
10
0.0121241
20
-3.71827
11
0.00683606
21
-3.70952
0
LINE
8
BLACK
6
CONTINUOUS
10
0.00683606
20
-3.70952
11
0.00264102
21
-3.7002
0
LINE
8
BLACK
6
CONTINUOUS
10
0.00264102
20
-3.7002
11
-0.000399921
21
-3.69044
0
LINE
8
BLACK
6
CONTINUOUS
10
-0.000399921
20
-3.69044
11
-0.0022424
21
-3.68039
0
LINE
8
BLACK
6
CONTINUOUS
10
-0.0022424
20
-3.68039
11
-0.00285957
21
-3.67018
0
LINE
8
BLACK
6
CONTINUOUS
10
-0.00285957
20
-3.67018
11
-0.00285957
21
-2.30404
0
LINE
8
BLACK
6
CONTINUOUS
10
-0.00285957
20
-2.30404
11
-0.00206839
21
-2.30109
0
LINE
8
BLACK
6
CONTINUOUS
10
-0.00206839
20
-2.30109
11
9.3189e-05
21
-2.29893
0
LINE
8
BLACK
6
CONTINUOUS
10
9.3189e-05
20
-2.29893
11
0.00304594
21
-2.29814
0
LINE
8
BLACK
6
CONTINUOUS
10
0.00304594
20
-2.29814
11
0.152652
21
-2.29814
0
LINE
8
BLACK
6
CONTINUOUS
10
0.152652
20
-2.29814
11
0.153091
21
-2.29825
0
LINE
8
BLACK
6
CONTINUOUS
10
0.153091
20
-2.29825
11
0.160375
21
-2.29768
0
LINE
8
BLACK
6
CONTINUOUS
10
0.160375
20
-2.29768
11
0.167907
21
-2.29587
0
LINE
8
BLACK
6
CONTINUOUS
10
0.167907
20
-2.29587
11
0.175063
21
-2.29291
0
LINE
8
BLACK
6
CONTINUOUS
10
0.175063
20
-2.29291
11
0.181668
21
-2.28886
0
LINE
8
BLACK
6
CONTINUOUS
10
0.181668
20
-2.28886
11
0.187558
21
-2.28383
0
LINE
8
BLACK
6
CONTINUOUS
10
0.187558
20
-2.28383
11
0.192589
21
-2.27794
0
LINE
8
BLACK
6
CONTINUOUS
10
0.192589
20
-2.27794
11
0.196637
21
-2.27134
0
LINE
8
BLACK
6
CONTINUOUS
10
0.196637
20
-2.27134
11
0.199601
21
-2.26418
0
LINE
8
BLACK
6
CONTINUOUS
10
0.199601
20
-2.26418
11
0.201409
21
-2.25665
0
LINE
8
BLACK
6
CONTINUOUS
10
0.201409
20
-2.25665
11
0.201982
21
-2.24936
0
LINE
8
BLACK
6
CONTINUOUS
10
0.201982
20
-2.24936
11
0.201865
21
-2.24892
0
LINE
8
BLACK
6
CONTINUOUS
10
0.201865
20
-2.24892
11
0.201982
21
-2.24849
0
LINE
8
BLACK
6
CONTINUOUS
10
0.201982
20
-2.24849
11
0.201409
21
-2.2412
0
LINE
8
BLACK
6
CONTINUOUS
10
0.201409
20
-2.2412
11
0.199601
21
-2.23367
0
LINE
8
BLACK
6
CONTINUOUS
10
0.199601
20
-2.23367
11
0.196637
21
-2.22651
0
LINE
8
BLACK
6
CONTINUOUS
10
0.196637
20
-2.22651
11
0.192589
21
-2.21991
0
LINE
8
BLACK
6
CONTINUOUS
10
0.192589
20
-2.21991
11
0.187558
21
-2.21402
0
LINE
8
BLACK
6
CONTINUOUS
10
0.187558
20
-2.21402
11
0.181668
21
-2.20899
0
LINE
8
BLACK
6
CONTINUOUS
10
0.181668
20
-2.20899
11
0.175063
21
-2.20494
0
LINE
8
BLACK
6
CONTINUOUS
10
0.175063
20
-2.20494
11
0.167907
21
-2.20198
0
LINE
8
BLACK
6
CONTINUOUS
10
0.167907
20
-2.20198
11
0.160375
21
-2.20017
0
LINE
8
BLACK
6
CONTINUOUS
10
0.160375
20
-2.20017
11
0.153091
21
-2.19959
0
LINE
8
BLACK
6
CONTINUOUS
10
0.153091
20
-2.19959
11
0.152652
21
-2.19971
0
LINE
8
BLACK
6
CONTINUOUS
10
0.152652
20
-2.19971
11
0.00304594
21
-2.19971
0
LINE
8
BLACK
6
CONTINUOUS
10
0.00304594
20
-2.19971
11
9.3189e-05
21
-2.19892
0
LINE
8
BLACK
6
CONTINUOUS
10
9.3189e-05
20
-2.19892
11
-0.00206839
21
-2.19676
0
LINE
8
BLACK
6
CONTINUOUS
10
-0.00206839
20
-2.19676
11
-0.00285957
21
-2.19381
0
LINE
8
BLACK
6
CONTINUOUS
10
-0.00285957
20
-2.19381
11
-0.00285957
21
-0.103255
0
LINE
8
BLACK
6
CONTINUOUS
10
-0.00285957
20
-0.103255
11
-0.0022424
21
-0.0930522
0
LINE
8
BLACK
6
CONTINUOUS
10
-0.0022424
20
-0.0930522
11
-0.000399921
21
-0.0829981
0
LINE
8
BLACK
6
CONTINUOUS
10
-0.000399921
20
-0.0829981
11
0.00264102
21
-0.0732394
0
LINE
8
BLACK
6
CONTINUOUS
10
0.00264102
20
-0.0732394
11
0.00683606
21
-0.0639183
0
LINE
8
BLACK
6
CONTINUOUS
10
0.00683606
20
-0.0639183
11
0.0121241
21
-0.0551709
0
LINE
8
BLACK
6
CONTINUOUS
10
0.0121241
20
-0.0551709
11
0.0184279
21
-0.0471247
0
LINE
8
BLACK
6
CONTINUOUS
10
0.0184279
20
-0.0471247
11
0.0256556
21
-0.039897
0
LINE
8
BLACK
6
CONTINUOUS
10
0.0256556
20
-0.039897
11
0.0337019
21
-0.0335931
0
LINE
8
BLACK
6
CONTINUOUS
10
0.0337019
20
-0.0335931
11
0.0424493
21
-0.0283051
0
LINE
8
BLACK
6
CONTINUOUS
10
0.0424493
20
-0.0283051
11
0.0517703
21
-0.0241101
0
LINE
8
BLACK
6
CONTINUOUS
10
0.0517703
20
-0.0241101
11
0.0615291
21
-0.0210691
0
LINE
8
BLACK
6
CONTINUOUS
10
0.0615291
20
-0.0210691
11
0.0715832
21
-0.0192267
0
LINE
8
BLACK
6
CONTINUOUS
10
0.0715832
20
-0.0192267
11
0.0817861
21
-0.0186095
0
LINE
8
BLACK
6
CONTINUOUS
10
0.0817861
20
-0.0186095
11
1.32005
21
-0.0186095
0
LINE
8
BLACK
6
CONTINUOUS
10
1.32005
20
-0.0186095
11
1.32005
21
-0.0186097
0
LINE
8
BLACK
6
CONTINUOUS
10
1.32005
20
-0.0186097
11
1.32887
21
-0.0192091
0
LINE
8
BLACK
6
CONTINUOUS
10
1.32887
20
-0.0192091
11
1.33754
21
-0.0210028
0
LINE
8
BLACK
6
CONTINUOUS
10
1.33754
20
-0.0210028
11
1.34587
21
-0.0239574
0
LINE
8
BLACK
6
CONTINUOUS
10
1.34587
20
-0.0239574
11
1.35373
21
-0.0280179
0
LINE
8
BLACK
6
CONTINUOUS
10
1.35373
20
-0.0280179
11
1.36097
21
-0.0331091
0
LINE
8
BLACK
6
CONTINUOUS
10
1.36097
20
-0.0331091
11
1.36744
21
-0.0391363
0
LINE
8
BLACK
6
CONTINUOUS
10
1.36744
20
-0.0391363
11
1.37304
21
-0.0459878
0
LINE
8
BLACK
6
CONTINUOUS
10
1.37304
20
-0.0459878
11
1.37765
21
-0.0535328
0
LINE
8
BLACK
6
CONTINUOUS
10
1.37765
20
-0.0535328
11
1.37765
21
-0.0535336
0
LINE
8
BLACK
6
CONTINUOUS
10
1.37765
20
-0.0535336
11
1.37765
21
-0.0535343
0
LINE
8
BLACK
6
CONTINUOUS
10
1.37765
20
-0.0535343
11
1.37765
21
-0.0535363
0
LINE
8
BLACK
6
CONTINUOUS
10
1.37765
20
-0.0535363
11
1.37777
21
-0.0540786
0
LINE
8
BLACK
6
CONTINUOUS
10
1.37777
20
-0.0540786
11
1.38407
21
-0.0646982
0
LINE
8
BLACK
6
CONTINUOUS
10
1.38407
20
-0.0646982
11
1.39181
21
-0.0750016
0
LINE
8
BLACK
6
CONTINUOUS
10
1.39181
20
-0.0750016
11
1.40063
21
-0.0844018
0
LINE
8
BLACK
6
CONTINUOUS
10
1.40063
20
-0.0844018
11
1.41041
21
-0.0927872
0
LINE
8
BLACK
6
CONTINUOUS
10
1.41041
20
-0.0927872
11
1.42105
21
-0.100058
0
LINE
8
BLACK
6
CONTINUOUS
10
1.42105
20
-0.100058
11
1.43242
21
-0.106129
0
LINE
8
BLACK
6
CONTINUOUS
10
1.43242
20
-0.106129
11
1.44438
21
-0.110927
0
LINE
8
BLACK
6
CONTINUOUS
10
1.44438
20
-0.110927
11
1.45679
21
-0.114395
0
LINE
8
BLACK
6
CONTINUOUS
10
1.45679
20
-0.114395
11
1.46951
21
-0.116493
0
LINE
8
BLACK
6
CONTINUOUS
10
1.46951
20
-0.116493
11
1.48238
21
-0.117195
0
LINE
8
BLACK
6
CONTINUOUS
10
1.48238
20
-0.117195
11
1.49524
21
-0.116493
0
LINE
8
BLACK
6
CONTINUOUS
10
1.49524
20
-0.116493
11
1.50796
21
-0.114395
0
LINE
8
BLACK
6
CONTINUOUS
10
1.50796
20
-0.114395
11
1.52037
21
-0.110927
0
LINE
8
BLACK
6
CONTINUOUS
10
1.52037
20
-0.110927
11
1.53233
21
-0.106129
0
LINE
8
BLACK
6
CONTINUOUS
10
1.53233
20
-0.106129
11
1.5437
21
-0.100058
0
LINE
8
BLACK
6
CONTINUOUS
10
1.5437
20
-0.100058
11
1.55434
21
-0.0927873
0
LINE
8
BLACK
6
CONTINUOUS
10
1.55434
20
-0.0927873
11
1.56413
21
-0.0844019
0
LINE
8
BLACK
6
CONTINUOUS
10
1.56413
20
-0.0844019
11
1.57294
21
-0.0750016
0
LINE
8
BLACK
6
CONTINUOUS
10
1.57294
20
-0.0750016
11
1.58068
21
-0.0646982
0
LINE
8
BLACK
6
CONTINUOUS
10
1.58068
20
-0.0646982
11
1.58698
21
-0.0540787
0
LINE
8
BLACK
6
CONTINUOUS
10
1.58698
20
-0.0540787
11
1.5871
21
-0.0535364
0
LINE
8
BLACK
6
CONTINUOUS
10
1.5871
20
-0.0535364
11
1.5871
21
-0.0535362
0
LINE
8
BLACK
6
CONTINUOUS
10
1.5871
20
-0.0535362
11
1.5871
21
-0.0535345
0
LINE
8
BLACK
6
CONTINUOUS
10
1.5871
20
-0.0535345
11
1.5871
21
-0.0535337
0
LINE
8
BLACK
6
CONTINUOUS
10
1.5871
20
-0.0535337
11
1.58711
21
-0.0535326
0
LINE
8
BLACK
6
CONTINUOUS
10
1.58711
20
-0.0535326
11
1.59172
21
-0.0459879
0
LINE
8
BLACK
6
CONTINUOUS
10
1.59172
20
-0.0459879
11
1.59731
21
-0.0391364
0
LINE
8
BLACK
6
CONTINUOUS
10
1.59731
20
-0.0391364
11
1.60379
21
-0.0331091
0
LINE
8
BLACK
6
CONTINUOUS
10
1.60379
20
-0.0331091
11
1.61102
21
-0.0280179
0
LINE
8
BLACK
6
CONTINUOUS
10
1.61102
20
-0.0280179
11
1.61888
21
-0.0239574
0
LINE
8
BLACK
6
CONTINUOUS
10
1.61888
20
-0.0239574
11
1.62722
21
-0.0210028
0
LINE
8
BLACK
6
CONTINUOUS
10
1.62722
20
-0.0210028
11
1.63588
21
-0.0192091
0
LINE
8
BLACK
6
CONTINUOUS
10
1.63588
20
-0.0192091
11
1.6447
21
-0.0186097
0
LINE
8
BLACK
6
CONTINUOUS
10
1.6447
20
-0.0186097
11
1.6447
21
-0.0186095
0
LINE
8
BLACK
6
CONTINUOUS
10
1.6447
20
-0.0186095
11
4.88255
21
-0.0186095
0
LINE
8
BLACK
6
CONTINUOUS
10
4.88255
20
-0.0186095
11
4.88255
21
-0.0186097
0
LINE
8
BLACK
6
CONTINUOUS
10
4.88255
20
-0.0186097
11
4.89137
21
-0.0192091
0
LINE
8
BLACK
6
CONTINUOUS
10
4.89137
20
-0.0192091
11
4.90004
21
-0.0210028
0
LINE
8
BLACK
6
CONTINUOUS
10
4.90004
20
-0.0210028
11
4.90837
21
-0.0239574
0
LINE
8
BLACK
6
CONTINUOUS
10
4.90837
20
-0.0239574
11
4.91623
21
-0.0280179
0
LINE
8
BLACK
6
CONTINUOUS
10
4.91623
20
-0.0280179
11
4.92347
21
-0.0331091
0
LINE
8
BLACK
6
CONTINUOUS
10
4.92347
20
-0.0331091
11
4.92994
21
-0.0391363
0
LINE
8
BLACK
6
CONTINUOUS
10
4.92994
20
-0.0391363
11
4.93554
21
-0.0459878
0
LINE
8
BLACK
6
CONTINUOUS
10
4.93554
20
-0.0459878
11
4.94015
21
-0.0535328
0
LINE
8
BLACK
6
CONTINUOUS
10
4.94015
20
-0.0535328
11
4.94015
21
-0.0535336
0
LINE
8
BLACK
6
CONTINUOUS
10
4.94015
20
-0.0535336
11
4.94015
21
-0.0535343
0
LINE
8
BLACK
6
CONTINUOUS
10
4.94015
20
-0.0535343
11
4.94015
21
-0.0535363
0
LINE
8
BLACK
6
CONTINUOUS
10
4.94015
20
-0.0535363
11
4.94027
21
-0.0540786
0
LINE
8
BLACK
6
CONTINUOUS
10
4.94027
20
-0.0540786
11
4.94657
21
-0.0646982
0
LINE
8
BLACK
6
CONTINUOUS
10
4.94657
20
-0.0646982
11
4.95431
21
-0.0750016
0
LINE
8
BLACK
6
CONTINUOUS
10
4.95431
20
-0.0750016
11
4.96313
21
-0.0844018
0
LINE
8
BLACK
6
CONTINUOUS
10
4.96313
20
-0.0844018
11
4.97291
21
-0.0927872
0
LINE
8
BLACK
6
CONTINUOUS
10
4.97291
20
-0.0927872
11
4.98355
21
-0.100058
0
LINE
8
BLACK
6
CONTINUOUS
10
4.98355
20
-0.100058
11
4.99492
21
-0.106129
0
LINE
8
BLACK
6
CONTINUOUS
10
4.99492
20
-0.106129
11
5.00688
21
-0.110927
0
LINE
8
BLACK
6
CONTINUOUS
10
5.00688
20
-0.110927
11
5.01929
21
-0.114395
0
LINE
8
BLACK
6
CONTINUOUS
10
5.01929
20
-0.114395
11
5.03201
21
-0.116493
0
LINE
8
BLACK
6
CONTINUOUS
10
5.03201
20
-0.116493
11
5.04488
21
-0.117195
0
LINE
8
BLACK
6
CONTINUOUS
10
5.04488
20
-0.117195
11
5.05774
21
-0.116493
0
LINE
8
BLACK
6
CONTINUOUS
10
5.05774
20
-0.116493
11
5.07046
21
-0.114395
0
LINE
8
BLACK
6
CONTINUOUS
10
5.07046
20
-0.114395
11
5.08287
21
-0.110927
0
LINE
8
BLACK
6
CONTINUOUS
10
5.08287
20
-0.110927
11
5.09483
21
-0.106129
0
LINE
8
BLACK
6
CONTINUOUS
10
5.09483
20
-0.106129
11
5.1062
21
-0.100058
0
LINE
8
BLACK
6
CONTINUOUS
10
5.1062
20
-0.100058
11
5.11684
21
-0.0927873
0
LINE
8
BLACK
6
CONTINUOUS
10
5.11684
20
-0.0927873
11
5.12663
21
-0.0844019
0
LINE
8
BLACK
6
CONTINUOUS
10
5.12663
20
-0.0844019
11
5.13544
21
-0.0750016
0
LINE
8
BLACK
6
CONTINUOUS
10
5.13544
20
-0.0750016
11
5.14318
21
-0.0646982
0
LINE
8
BLACK
6
CONTINUOUS
10
5.14318
20
-0.0646982
11
5.14948
21
-0.0540787
0
LINE
8
BLACK
6
CONTINUOUS
10
5.14948
20
-0.0540787
11
5.1496
21
-0.0535364
0
LINE
8
BLACK
6
CONTINUOUS
10
5.1496
20
-0.0535364
11
5.1496
21
-0.0535362
0
LINE
8
BLACK
6
CONTINUOUS
10
5.1496
20
-0.0535362
11
5.1496
21
-0.0535345
0
LINE
8
BLACK
6
CONTINUOUS
10
5.1496
20
-0.0535345
11
5.1496
21
-0.0535337
0
LINE
8
BLACK
6
CONTINUOUS
10
5.1496
20
-0.0535337
11
5.14961
21
-0.0535326
0
LINE
8
BLACK
6
CONTINUOUS
10
5.14961
20
-0.0535326
11
5.15422
21
-0.0459879
0
LINE
8
BLACK
6
CONTINUOUS
10
5.15422
20
-0.0459879
11
5.15981
21
-0.0391364
0
LINE
8
BLACK
6
CONTINUOUS
10
5.15981
20
-0.0391364
11
5.16629
21
-0.0331091
0
LINE
8
BLACK
6
CONTINUOUS
10
5.16629
20
-0.0331091
11
5.17352
21
-0.0280179
0
LINE
8
BLACK
6
CONTINUOUS
10
5.17352
20
-0.0280179
11
5.18138
21
-0.0239574
0
LINE
8
BLACK
6
CONTINUOUS
10
5.18138
20
-0.0239574
11
5.18972
21
-0.0210028
0
LINE
8
BLACK
6
CONTINUOUS
10
5.18972
20
-0.0210028
11
5.19838
21
-0.0192091
0
LINE
8
BLACK
6
CONTINUOUS
10
5.19838
20
-0.0192091
11
5.2072
21
-0.0186097
0
LINE
8
BLACK
6
CONTINUOUS
10
5.2072
20
-0.0186097
11
5.2072
21
-0.0186095
0
LINE
8
BLACK
6
CONTINUOUS
10
5.2072
20
-0.0186095
11
9.57005
21
-0.0186095
0
LINE
8
BLACK
6
CONTINUOUS
10
9.57005
20
-0.0186095
11
9.57005
21
-0.0186097
0
LINE
8
BLACK
6
CONTINUOUS
10
9.57005
20
-0.0186097
11
9.57887
21
-0.0192091
0
LINE
8
BLACK
6
CONTINUOUS
10
9.57887
20
-0.0192091
11
9.58754
21
-0.0210028
0
LINE
8
BLACK
6
CONTINUOUS
10
9.58754
20
-0.0210028
11
9.59587
21
-0.0239573
0
LINE
8
BLACK
6
CONTINUOUS
10
9.59587
20
-0.0239573
11
9.60373
21
-0.0280179
0
LINE
8
BLACK
6
CONTINUOUS
10
9.60373
20
-0.0280179
11
9.61097
21
-0.0331091
0
LINE
8
BLACK
6
CONTINUOUS
10
9.61097
20
-0.0331091
11
9.61744
21
-0.0391363
0
LINE
8
BLACK
6
CONTINUOUS
10
9.61744
20
-0.0391363
11
9.62304
21
-0.0459878
0
LINE
8
BLACK
6
CONTINUOUS
10
9.62304
20
-0.0459878
11
9.62765
21
-0.0535327
0
LINE
8
BLACK
6
CONTINUOUS
10
9.62765
20
-0.0535327
11
9.62765
21
-0.0535337
0
LINE
8
BLACK
6
CONTINUOUS
10
9.62765
20
-0.0535337
11
9.62765
21
-0.0535344
0
LINE
8
BLACK
6
CONTINUOUS
10
9.62765
20
-0.0535344
11
9.62765
21
-0.0535363
0
LINE
8
BLACK
6
CONTINUOUS
10
9.62765
20
-0.0535363
11
9.62765
21
-0.0535363
0
LINE
8
BLACK
6
CONTINUOUS
10
9.62765
20
-0.0535363
11
9.62777
21
-0.0540788
0
LINE
8
BLACK
6
CONTINUOUS
10
9.62777
20
-0.0540788
11
9.63407
21
-0.0646983
0
LINE
8
BLACK
6
CONTINUOUS
10
9.63407
20
-0.0646983
11
9.64181
21
-0.0750018
0
LINE
8
BLACK
6
CONTINUOUS
10
9.64181
20
-0.0750018
11
9.65063
21
-0.0844021
0
LINE
8
BLACK
6
CONTINUOUS
10
9.65063
20
-0.0844021
11
9.66041
21
-0.0927876
0
LINE
8
BLACK
6
CONTINUOUS
10
9.66041
20
-0.0927876
11
9.67105
21
-0.100059
0
LINE
8
BLACK
6
CONTINUOUS
10
9.67105
20
-0.100059
11
9.68242
21
-0.106129
0
LINE
8
BLACK
6
CONTINUOUS
10
9.68242
20
-0.106129
11
9.69438
21
-0.110927
0
LINE
8
BLACK
6
CONTINUOUS
10
9.69438
20
-0.110927
11
9.70679
21
-0.114396
0
LINE
8
BLACK
6
CONTINUOUS
10
9.70679
20
-0.114396
11
9.71951
21
-0.116493
0
LINE
8
BLACK
6
CONTINUOUS
10
9.71951
20
-0.116493
11
9.73238
21
-0.117195
0
LINE
8
BLACK
6
CONTINUOUS
10
9.73238
20
-0.117195
11
9.74524
21
-0.116493
0
LINE
8
BLACK
6
CONTINUOUS
10
9.74524
20
-0.116493
11
9.75796
21
-0.114396
0
LINE
8
BLACK
6
CONTINUOUS
10
9.75796
20
-0.114396
11
9.77037
21
-0.110927
0
LINE
8
BLACK
6
CONTINUOUS
10
9.77037
20
-0.110927
11
9.78233
21
-0.106129
0
LINE
8
BLACK
6
CONTINUOUS
10
9.78233
20
-0.106129
11
9.7937
21
-0.100059
0
LINE
8
BLACK
6
CONTINUOUS
10
9.7937
20
-0.100059
11
9.80434
21
-0.0927876
0
LINE
8
BLACK
6
CONTINUOUS
10
9.80434
20
-0.0927876
11
9.81413
21
-0.0844021
0
LINE
8
BLACK
6
CONTINUOUS
10
9.81413
20
-0.0844021
11
9.82294
21
-0.0750019
0
LINE
8
BLACK
6
CONTINUOUS
10
9.82294
20
-0.0750019
11
9.83068
21
-0.0646983
0
LINE
8
BLACK
6
CONTINUOUS
10
9.83068
20
-0.0646983
11
9.83698
21
-0.0540787
0
LINE
8
BLACK
6
CONTINUOUS
10
9.83698
20
-0.0540787
11
9.8371
21
-0.0535367
0
LINE
8
BLACK
6
CONTINUOUS
10
9.8371
20
-0.0535367
11
9.8371
21
-0.0535346
0
LINE
8
BLACK
6
CONTINUOUS
10
9.8371
20
-0.0535346
11
9.8371
21
-0.0535337
0
LINE
8
BLACK
6
CONTINUOUS
10
9.8371
20
-0.0535337
11
9.83711
21
-0.0535326
0
LINE
8
BLACK
6
CONTINUOUS
10
9.83711
20
-0.0535326
11
9.84171
21
-0.0459878
0
LINE
8
BLACK
6
CONTINUOUS
10
9.84171
20
-0.0459878
11
9.84731
21
-0.0391359
0
LINE
8
BLACK
6
CONTINUOUS
10
9.84731
20
-0.0391359
11
9.85379
21
-0.0331084
0
LINE
8
BLACK
6
CONTINUOUS
10
9.85379
20
-0.0331084
11
9.86102
21
-0.0280171
0
LINE
8
BLACK
6
CONTINUOUS
10
9.86102
20
-0.0280171
11
9.86888
21
-0.0239565
0
LINE
8
BLACK
6
CONTINUOUS
10
9.86888
20
-0.0239565
11
9.87722
21
-0.0210021
0
LINE
8
BLACK
6
CONTINUOUS
10
9.87722
20
-0.0210021
11
9.88588
21
-0.0192086
0
LINE
8
BLACK
6
CONTINUOUS
10
9.88588
20
-0.0192086
11
9.8947
21
-0.0186097
0
LINE
8
BLACK
6
CONTINUOUS
10
9.8947
20
-0.0186097
11
9.8947
21
-0.0186095
0
LINE
8
BLACK
6
CONTINUOUS
10
9.8947
20
-0.0186095
11
11.1448
21
-0.0186095
0
LINE
8
BLACK
6
CONTINUOUS
10
11.1448
20
-0.0186095
11
11.155
21
-0.0192267
0
LINE
8
BLACK
6
CONTINUOUS
10
11.155
20
-0.0192267
11
11.165
21
-0.0210691
0
LINE
8
BLACK
6
CONTINUOUS
10
0.169845
20
-2.19037
11
0.178002
21
-2.19342
0
LINE
8
BLACK
6
CONTINUOUS
10
0.178002
20
-2.19342
11
0.185644
21
-2.19759
0
LINE
8
BLACK
6
CONTINUOUS
10
0.185644
20
-2.19759
11
0.192614
21
-2.20281
0
LINE
8
BLACK
6
CONTINUOUS
10
0.192614
20
-2.20281
11
0.198771
21
-2.20896
0
LINE
8
BLACK
6
CONTINUOUS
10
0.198771
20
-2.20896
11
0.203989
21
-2.21593
0
LINE
8
BLACK
6
CONTINUOUS
10
0.203989
20
-2.21593
11
0.208161
21
-2.22357
0
LINE
8
BLACK
6
CONTINUOUS
10
0.208161
20
-2.22357
11
0.211204
21
-2.23173
0
LINE
8
BLACK
6
CONTINUOUS
10
0.211204
20
-2.23173
11
0.213055
21
-2.24024
0
LINE
8
BLACK
6
CONTINUOUS
10
0.213055
20
-2.24024
11
0.213676
21
-2.24892
0
LINE
8
BLACK
6
CONTINUOUS
10
0.213676
20
-2.24892
11
0.213055
21
-2.25761
0
LINE
8
BLACK
6
CONTINUOUS
10
0.213055
20
-2.25761
11
0.211204
21
-2.26612
0
LINE
8
BLACK
6
CONTINUOUS
10
0.211204
20
-2.26612
11
0.208161
21
-2.27427
0
LINE
8
BLACK
6
CONTINUOUS
10
0.208161
20
-2.27427
11
0.203989
21
-2.28192
0
LINE
8
BLACK
6
CONTINUOUS
10
0.203989
20
-2.28192
11
0.198771
21
-2.28889
0
LINE
8
BLACK
6
CONTINUOUS
10
0.198771
20
-2.28889
11
0.192614
21
-2.29504
0
LINE
8
BLACK
6
CONTINUOUS
10
0.192614
20
-2.29504
11
0.185644
21
-2.30026
0
LINE
8
BLACK
6
CONTINUOUS
10
0.185644
20
-2.30026
11
0.178002
21
-2.30443
0
LINE
8
BLACK
6
CONTINUOUS
10
0.178002
20
-2.30443
11
0.169845
21
-2.30748
0
LINE
8
BLACK
6
CONTINUOUS
10
0.169845
20
-2.30748
11
0.161337
21
-2.30933
0
LINE
8
BLACK
6
CONTINUOUS
10
0.161337
20
-2.30933
11
0.152652
21
-2.30995
0
LINE
8
BLACK
6
CONTINUOUS
10
0.152652
20
-2.30995
11
0.00895146
21
-2.30995
0
LINE
8
BLACK
6
CONTINUOUS
10
0.00895146
20
-2.30995
11
0.00895146
21
-3.67018
0
LINE
8
BLACK
6
CONTINUOUS
10
0.00895146
20
-3.67018
11
0.00882591
21
-3.67065
0
LINE
8
BLACK
6
CONTINUOUS
10
0.00882591
20
-3.67065
11
0.00941965
21
-3.67971
0
LINE
8
BLACK
6
CONTINUOUS
10
0.00941965
20
-3.67971
11
0.0112823
21
-3.68908
0
LINE
8
BLACK
6
CONTINUOUS
10
0.0112823
20
-3.68908
11
0.0143513
21
-3.69812
0
LINE
8
BLACK
6
CONTINUOUS
10
0.0143513
20
-3.69812
11
0.0185741
21
-3.70668
0
LINE
8
BLACK
6
CONTINUOUS
10
0.0185741
20
-3.70668
11
0.0238785
21
-3.71462
0
LINE
8
BLACK
6
CONTINUOUS
10
0.0238785
20
-3.71462
11
0.0301737
21
-3.7218
0
LINE
8
BLACK
6
CONTINUOUS
10
0.0301737
20
-3.7218
11
0.037352
21
-3.72809
0
LINE
8
BLACK
6
CONTINUOUS
10
0.037352
20
-3.72809
11
0.0452906
21
-3.7334
0
LINE
8
BLACK
6
CONTINUOUS
10
0.0452906
20
-3.7334
11
0.0538537
21
-3.73762
0
LINE
8
BLACK
6
CONTINUOUS
10
0.0538537
20
-3.73762
11
0.0628946
21
-3.74069
0
LINE
8
BLACK
6
CONTINUOUS
10
0.0628946
20
-3.74069
11
0.0722589
21
-3.74255
0
LINE
8
BLACK
6
CONTINUOUS
10
0.0722589
20
-3.74255
11
0.0813176
21
-3.74314
0
LINE
8
BLACK
6
CONTINUOUS
10
0.0813176
20
-3.74314
11
0.0817861
21
-3.74302
0
LINE
8
BLACK
6
CONTINUOUS
10
0.0817861
20
-3.74302
11
1.88255
21
-3.74302
0
LINE
8
BLACK
6
CONTINUOUS
10
1.88255
20
-3.74302
11
1.88255
21
-3.74302
0
LINE
8
BLACK
6
CONTINUOUS
10
1.88255
20
-3.74302
11
1.88255
21
-3.74302
0
LINE
8
BLACK
6
CONTINUOUS
10
1.88255
20
-3.74302
11
1.88303
21
-3.74315
0
LINE
8
BLACK
6
CONTINUOUS
10
1.88303
20
-3.74315
11
1.89082
21
-3.74254
0
LINE
8
BLACK
6
CONTINUOUS
10
1.89082
20
-3.74254
11
1.89889
21
-3.74062
0
LINE
8
BLACK
6
CONTINUOUS
10
1.89889
20
-3.74062
11
1.90656
21
-3.73747
0
LINE
8
BLACK
6
CONTINUOUS
10
1.90656
20
-3.73747
11
1.91366
21
-3.73317
0
LINE
8
BLACK
6
CONTINUOUS
10
1.91366
20
-3.73317
11
1.92
21
-3.72782
0
LINE
8
BLACK
6
CONTINUOUS
10
1.92
20
-3.72782
11
1.92543
21
-3.72156
0
LINE
8
BLACK
6
CONTINUOUS
10
1.92543
20
-3.72156
11
1.92957
21
-3.71493
0
LINE
8
BLACK
6
CONTINUOUS
10
1.92957
20
-3.71493
11
1.92968
21
-3.71445
0
LINE
8
BLACK
6
CONTINUOUS
10
1.92968
20
-3.71445
11
1.92968
21
-3.71444
0
LINE
8
BLACK
6
CONTINUOUS
10
1.92968
20
-3.71444
11
1.92968
21
-3.71444
0
LINE
8
BLACK
6
CONTINUOUS
10
1.92968
20
-3.71444
11
1.92968
21
-3.71444
0
LINE
8
BLACK
6
CONTINUOUS
10
1.92968
20
-3.71444
11
1.93652
21
-3.70283
0
LINE
8
BLACK
6
CONTINUOUS
10
1.93652
20
-3.70283
11
1.94454
21
-3.69199
0
LINE
8
BLACK
6
CONTINUOUS
10
1.94454
20
-3.69199
11
1.95363
21
-3.68204
0
LINE
8
BLACK
6
CONTINUOUS
10
1.95363
20
-3.68204
11
1.96371
21
-3.67308
0
LINE
8
BLACK
6
CONTINUOUS
10
1.96371
20
-3.67308
11
1.97466
21
-3.66521
0
LINE
8
BLACK
6
CONTINUOUS
10
1.97466
20
-3.66521
11
1.98637
21
-3.65853
0
LINE
8
BLACK
6
CONTINUOUS
10
1.98637
20
-3.65853
11
1.9987
21
-3.65309
0
LINE
8
BLACK
6
CONTINUOUS
10
1.9987
20
-3.65309
11
2.01153
21
-3.64896
0
LINE
8
BLACK
6
CONTINUOUS
10
2.01153
20
-3.64896
11
2.02473
21
-3.64618
0
LINE
8
BLACK
6
CONTINUOUS
10
2.02473
20
-3.64618
11
2.03814
21
-3.64478
0
LINE
8
BLACK
6
CONTINUOUS
10
2.03814
20
-3.64478
11
2.05162
21
-3.64478
0
LINE
8
BLACK
6
CONTINUOUS
10
2.05162
20
-3.64478
11
2.06503
21
-3.64618
0
LINE
8
BLACK
6
CONTINUOUS
10
2.06503
20
-3.64618
11
2.07822
21
-3.64896
0
LINE
8
BLACK
6
CONTINUOUS
10
2.07822
20
-3.64896
11
2.09105
21
-3.65309
0
LINE
8
BLACK
6
CONTINUOUS
10
2.09105
20
-3.65309
11
2.10339
21
-3.65853
0
LINE
8
BLACK
6
CONTINUOUS
10
2.10339
20
-3.65853
11
2.11509
21
-3.66521
0
LINE
8
BLACK
6
CONTINUOUS
10
2.11509
20
-3.66521
11
2.12604
21
-3.67308
0
LINE
8
BLACK
6
CONTINUOUS
10
2.12604
20
-3.67308
11
2.13612
21
-3.68204
0
LINE
8
BLACK
6
CONTINUOUS
10
2.13612
20
-3.68204
11
2.14521
21
-3.69199
0
LINE
8
BLACK
6
CONTINUOUS
10
2.14521
20
-3.69199
11
2.15323
21
-3.70283
0
LINE
8
BLACK
6
CONTINUOUS
10
2.15323
20
-3.70283
11
2.16008
21
-3.71444
0
LINE
8
BLACK
6
CONTINUOUS
10
2.16008
20
-3.71444
11
2.16008
21
-3.71444
0
LINE
8
BLACK
6
CONTINUOUS
10
2.16008
20
-3.71444
11
2.16008
21
-3.71444
0
LINE
8
BLACK
6
CONTINUOUS
10
2.16008
20
-3.71444
11
2.16008
21
-3.71445
0
LINE
8
BLACK
6
CONTINUOUS
10
2.16008
20
-3.71445
11
2.16018
21
-3.71493
0
LINE
8
BLACK
6
CONTINUOUS
10
2.16018
20
-3.71493
11
2.16433
21
-3.72156
0
LINE
8
BLACK
6
CONTINUOUS
10
2.16433
20
-3.72156
11
2.16976
21
-3.72782
0
LINE
8
BLACK
6
CONTINUOUS
10
2.16976
20
-3.72782
11
2.1761
21
-3.73317
0
LINE
8
BLACK
6
CONTINUOUS
10
2.1761
20
-3.73317
11
2.18319
21
-3.73747
0
LINE
8
BLACK
6
CONTINUOUS
10
2.18319
20
-3.73747
11
2.19086
21
-3.74062
0
LINE
8
BLACK
6
CONTINUOUS
10
2.19086
20
-3.74062
11
2.19893
21
-3.74254
0
LINE
8
BLACK
6
CONTINUOUS
10
2.19893
20
-3.74254
11
2.20673
21
-3.74315
0
LINE
8
BLACK
6
CONTINUOUS
10
2.20673
20
-3.74315
11
2.2072
21
-3.74302
0
LINE
8
BLACK
6
CONTINUOUS
10
2.2072
20
-3.74302
11
2.2072
21
-3.74302
0
LINE
8
BLACK
6
CONTINUOUS
10
2.2072
20
-3.74302
11
2.2072
21
-3.74302
0
LINE
8
BLACK
6
CONTINUOUS
10
2.2072
20
-3.74302
11
9.00755
21
-3.74302
0
LINE
8
BLACK
6
CONTINUOUS
10
9.00755
20
-3.74302
11
9.00755
21
-3.74302
0
LINE
8
BLACK
6
CONTINUOUS
10
9.00755
20
-3.74302
11
9.00755
21
-3.74302
0
LINE
8
BLACK
6
CONTINUOUS
10
9.00755
20
-3.74302
11
9.00803
21
-3.74315
0
LINE
8
BLACK
6
CONTINUOUS
10
9.00803
20
-3.74315
11
9.01582
21
-3.74254
0
LINE
8
BLACK
6
CONTINUOUS
10
9.01582
20
-3.74254
11
9.02389
21
-3.74062
0
LINE
8
BLACK
6
CONTINUOUS
10
9.02389
20
-3.74062
11
9.03157
21
-3.73748
0
LINE
8
BLACK
6
CONTINUOUS
10
9.03157
20
-3.73748
11
9.03866
21
-3.73317
0
LINE
8
BLACK
6
CONTINUOUS
10
9.03866
20
-3.73317
11
9.045
21
-3.72783
0
LINE
8
BLACK
6
CONTINUOUS
10
9.045
20
-3.72783
11
9.05043
21
-3.72156
0
LINE
8
BLACK
6
CONTINUOUS
10
9.05043
20
-3.72156
11
9.05457
21
-3.71493
0
LINE
8
BLACK
6
CONTINUOUS
10
9.05457
20
-3.71493
11
9.05468
21
-3.71445
0
LINE
8
BLACK
6
CONTINUOUS
10
9.05468
20
-3.71445
11
9.05468
21
-3.71444
0
LINE
8
BLACK
6
CONTINUOUS
10
9.05468
20
-3.71444
11
9.05468
21
-3.71444
0
LINE
8
BLACK
6
CONTINUOUS
10
9.05468
20
-3.71444
11
9.05468
21
-3.71444
0
LINE
8
BLACK
6
CONTINUOUS
10
9.05468
20
-3.71444
11
9.06152
21
-3.70283
0
LINE
8
BLACK
6
CONTINUOUS
10
9.06152
20
-3.70283
11
9.06954
21
-3.69199
0
LINE
8
BLACK
6
CONTINUOUS
10
9.06954
20
-3.69199
11
9.07863
21
-3.68204
0
LINE
8
BLACK
6
CONTINUOUS
10
9.07863
20
-3.68204
11
9.08871
21
-3.67308
0
LINE
8
BLACK
6
CONTINUOUS
10
9.08871
20
-3.67308
11
9.09966
21
-3.66521
0
LINE
8
BLACK
6
CONTINUOUS
10
9.09966
20
-3.66521
11
9.11137
21
-3.65853
0
LINE
8
BLACK
6
CONTINUOUS
10
9.11137
20
-3.65853
11
9.1237
21
-3.65309
0
LINE
8
BLACK
6
CONTINUOUS
10
9.1237
20
-3.65309
11
9.13653
21
-3.64896
0
LINE
8
BLACK
6
CONTINUOUS
10
9.13653
20
-3.64896
11
9.14973
21
-3.64618
0
LINE
8
BLACK
6
CONTINUOUS
10
9.14973
20
-3.64618
11
9.16314
21
-3.64478
0
LINE
8
BLACK
6
CONTINUOUS
10
9.16314
20
-3.64478
11
9.17662
21
-3.64478
0
LINE
8
BLACK
6
CONTINUOUS
10
9.17662
20
-3.64478
11
9.19003
21
-3.64618
0
LINE
8
BLACK
6
CONTINUOUS
10
9.19003
20
-3.64618
11
9.20322
21
-3.64896
0
LINE
8
BLACK
6
CONTINUOUS
10
9.20322
20
-3.64896
11
9.21605
21
-3.65309
0
LINE
8
BLACK
6
CONTINUOUS
10
9.21605
20
-3.65309
11
9.22839
21
-3.65853
0
LINE
8
BLACK
6
CONTINUOUS
10
9.22839
20
-3.65853
11
9.24009
21
-3.66521
0
LINE
8
BLACK
6
CONTINUOUS
10
9.24009
20
-3.66521
11
9.25104
21
-3.67308
0
LINE
8
BLACK
6
CONTINUOUS
10
9.25104
20
-3.67308
11
9.26112
21
-3.68204
0
LINE
8
BLACK
6
CONTINUOUS
10
9.26112
20
-3.68204
11
9.27021
21
-3.69199
0
LINE
8
BLACK
6
CONTINUOUS
10
9.27021
20
-3.69199
11
9.27823
21
-3.70283
0
LINE
8
BLACK
6
CONTINUOUS
10
9.27823
20
-3.70283
11
9.28508
21
-3.71444
0
LINE
8
BLACK
6
CONTINUOUS
10
9.28508
20
-3.71444
11
9.28508
21
-3.71444
0
LINE
8
BLACK
6
CONTINUOUS
10
9.28508
20
-3.71444
11
9.28508
21
-3.71444
0
LINE
8
BLACK
6
CONTINUOUS
10
9.28508
20
-3.71444
11
9.28508
21
-3.71445
0
LINE
8
BLACK
6
CONTINUOUS
10
9.28508
20
-3.71445
11
9.28518
21
-3.71493
0
LINE
8
BLACK
6
CONTINUOUS
10
9.28518
20
-3.71493
11
9.28933
21
-3.72156
0
LINE
8
BLACK
6
CONTINUOUS
10
9.28933
20
-3.72156
11
9.29476
21
-3.72782
0
LINE
8
BLACK
6
CONTINUOUS
10
9.29476
20
-3.72782
11
9.3011
21
-3.73317
0
LINE
8
BLACK
6
CONTINUOUS
10
9.3011
20
-3.73317
11
9.30819
21
-3.73747
0
LINE
8
BLACK
6
CONTINUOUS
10
9.30819
20
-3.73747
11
9.31586
21
-3.74062
0
LINE
8
BLACK
6
CONTINUOUS
10
9.31586
20
-3.74062
11
9.32393
21
-3.74254
0
LINE
8
BLACK
6
CONTINUOUS
10
9.32393
20
-3.74254
11
9.33173
21
-3.74315
0
LINE
8
BLACK
6
CONTINUOUS
10
9.33173
20
-3.74315
11
9.3322
21
-3.74302
0
LINE
8
BLACK
6
CONTINUOUS
10
9.3322
20
-3.74302
11
9.3322
21
-3.74302
0
LINE
8
BLACK
6
CONTINUOUS
10
9.3322
20
-3.74302
11
9.3322
21
-3.74302
0
LINE
8
BLACK
6
CONTINUOUS
10
9.3322
20
-3.74302
11
11.1448
21
-3.74302
0
LINE
8
BLACK
6
CONTINUOUS
10
11.1448
20
-3.74302
11
11.1452
21
-3.74314
0
LINE
8
BLACK
6
CONTINUOUS
10
11.1452
20
-3.74314
11
11.1543
21
-3.74255
0
LINE
8
BLACK
6
CONTINUOUS
10
11.1543
20
-3.74255
11
11.1637
21
-3.74069
0
LINE
8
BLACK
6
CONTINUOUS
10
11.1637
20
-3.74069
11
11.1727
21
-3.73762
0
LINE
8
BLACK
6
CONTINUOUS
10
11.1727
20
-3.73762
11
11.1813
21
-3.7334
0
LINE
8
BLACK
6
CONTINUOUS
10
11.1813
20
-3.7334
11
11.1892
21
-3.72809
0
LINE
8
BLACK
6
CONTINUOUS
10
11.1892
20
-3.72809
11
11.1964
21
-3.7218
0
LINE
8
BLACK
6
CONTINUOUS
10
11.1964
20
-3.7218
11
11.2027
21
-3.71462
0
LINE
8
BLACK
6
CONTINUOUS
10
11.2027
20
-3.71462
11
11.208
21
-3.70668
0
LINE
8
BLACK
6
CONTINUOUS
10
11.208
20
-3.70668
11
11.2122
21
-3.69812
0
LINE
8
BLACK
6
CONTINUOUS
10
11.2122
20
-3.69812
11
11.2153
21
-3.68908
0
LINE
8
BLACK
6
CONTINUOUS
10
11.2153
20
-3.68908
11
11.2171
21
-3.67971
0
LINE
8
BLACK
6
CONTINUOUS
10
11.2171
20
-3.67971
11
11.2177
21
-3.67065
0
LINE
8
BLACK
6
CONTINUOUS
10
11.2177
20
-3.67065
11
11.2176
21
-3.67018
0
LINE
8
BLACK
6
CONTINUOUS
10
11.2176
20
-3.67018
11
11.2176
21
-2.30995
0
LINE
8
BLACK
6
CONTINUOUS
10
11.2176
20
-2.30995
11
11.0739
21
-2.30995
0
LINE
8
BLACK
6
CONTINUOUS
10
11.0739
20
-2.30995
11
11.0652
21
-2.30933
0
LINE
8
BLACK
6
CONTINUOUS
10
11.0652
20
-2.30933
11
11.0567
21
-2.30748
0
LINE
8
BLACK
6
CONTINUOUS
10
11.0567
20
-2.30748
11
11.0486
21
-2.30443
0
LINE
8
BLACK
6
CONTINUOUS
10
11.0486
20
-2.30443
11
11.0409
21
-2.30026
0
LINE
8
BLACK
6
CONTINUOUS
10
11.0409
20
-2.30026
11
11.034
21
-2.29504
0
LINE
8
BLACK
6
CONTINUOUS
10
11.034
20
-2.29504
11
11.0278
21
-2.28889
0
LINE
8
BLACK
6
CONTINUOUS
10
11.0278
20
-2.28889
11
11.0226
21
-2.28192
0
LINE
8
BLACK
6
CONTINUOUS
10
11.0226
20
-2.28192
11
11.0184
21
-2.27427
0
LINE
8
BLACK
6
CONTINUOUS
10
11.0184
20
-2.27427
11
11.0154
21
-2.26612
0
LINE
8
BLACK
6
CONTINUOUS
10
11.0154
20
-2.26612
11
11.0135
21
-2.25761
0
LINE
8
BLACK
6
CONTINUOUS
10
11.0135
20
-2.25761
11
11.0129
21
-2.24892
0
LINE
8
BLACK
6
CONTINUOUS
10
11.0129
20
-2.24892
11
11.0135
21
-2.24024
0
LINE
8
BLACK
6
CONTINUOUS
10
11.0135
20
-2.24024
11
11.0154
21
-2.23173
0
LINE
8
BLACK
6
CONTINUOUS
10
11.0154
20
-2.23173
11
11.0184
21
-2.22357
0
LINE
8
BLACK
6
CONTINUOUS
10
11.0184
20
-2.22357
11
11.0226
21
-2.21593
0
LINE
8
BLACK
6
CONTINUOUS
10
11.0226
20
-2.21593
11
11.0278
21
-2.20896
0
LINE
8
BLACK
6
CONTINUOUS
10
11.0278
20
-2.20896
11
11.034
21
-2.20281
0
LINE
8
BLACK
6
CONTINUOUS
10
11.034
20
-2.20281
11
11.0409
21
-2.19759
0
LINE
8
BLACK
6
CONTINUOUS
10
11.0409
20
-2.19759
11
11.0486
21
-2.19342
0
LINE
8
BLACK
6
CONTINUOUS
10
11.0486
20
-2.19342
11
11.0567
21
-2.19037
0
LINE
8
BLACK
6
CONTINUOUS
10
11.0567
20
-2.19037
11
11.0652
21
-2.18852
0
LINE
8
BLACK
6
CONTINUOUS
10
11.0652
20
-2.18852
11
11.0739
21
-2.1879
0
LINE
8
BLACK
6
CONTINUOUS
10
11.0739
20
-2.1879
11
11.2176
21
-2.1879
0
LINE
8
BLACK
6
CONTINUOUS
10
11.2176
20
-2.1879
11
11.2176
21
-0.103255
0
LINE
8
BLACK
6
CONTINUOUS
10
11.2176
20
-0.103255
11
11.2177
21
-0.102787
0
LINE
8
BLACK
6
CONTINUOUS
10
11.2177
20
-0.102787
11
11.2171
21
-0.0937279
0
LINE
8
BLACK
6
CONTINUOUS
10
11.2171
20
-0.0937279
11
11.2153
21
-0.0843637
0
LINE
8
BLACK
6
CONTINUOUS
10
11.2153
20
-0.0843637
11
11.2122
21
-0.0753228
0
LINE
8
BLACK
6
CONTINUOUS
10
11.2122
20
-0.0753228
11
11.208
21
-0.0667597
0
LINE
8
BLACK
6
CONTINUOUS
10
11.208
20
-0.0667597
11
11.2027
21
-0.0588211
0
LINE
8
BLACK
6
CONTINUOUS
10
11.2027
20
-0.0588211
11
11.1964
21
-0.0516428
0
LINE
8
BLACK
6
CONTINUOUS
10
11.1964
20
-0.0516428
11
11.1892
21
-0.0453476
0
LINE
8
BLACK
6
CONTINUOUS
10
11.1892
20
-0.0453476
11
11.1813
21
-0.0400431
0
LINE
8
BLACK
6
CONTINUOUS
10
11.1813
20
-0.0400431
11
11.1727
21
-0.0358204
0
LINE
8
BLACK
6
CONTINUOUS
10
11.1727
20
-0.0358204
11
11.1637
21
-0.0327513
0
LINE
8
BLACK
6
CONTINUOUS
10
11.1637
20
-0.0327513
11
11.1543
21
-0.0308887
0
LINE
8
BLACK
6
CONTINUOUS
10
11.1543
20
-0.0308887
11
11.1452
21
-0.030295
0
LINE
8
BLACK
6
CONTINUOUS
10
11.1452
20
-0.030295
11
11.1448
21
-0.0304205
0
LINE
8
BLACK
6
CONTINUOUS
10
11.1448
20
-0.0304205
11
9.8947
21
-0.0304205
0
LINE
8
BLACK
6
CONTINUOUS
10
9.8947
20
-0.0304205
11
9.8947
21
-0.0304202
0
LINE
8
BLACK
6
CONTINUOUS
10
9.8947
20
-0.0304202
11
9.8947
21
-0.0304205
0
LINE
8
BLACK
6
CONTINUOUS
10
9.8947
20
-0.0304205
11
9.89423
21
-0.0302931
0
LINE
8
BLACK
6
CONTINUOUS
10
9.89423
20
-0.0302931
11
9.88643
21
-0.0308987
0
LINE
8
BLACK
6
CONTINUOUS
10
9.88643
20
-0.0308987
11
9.87836
21
-0.0328168
0
LINE
8
BLACK
6
CONTINUOUS
10
9.87836
20
-0.0328168
11
9.87069
21
-0.0359642
0
LINE
8
BLACK
6
CONTINUOUS
10
9.87069
20
-0.0359642
11
9.8636
21
-0.0402646
0
LINE
8
BLACK
6
CONTINUOUS
10
9.8636
20
-0.0402646
11
9.85726
21
-0.0456139
0
LINE
8
BLACK
6
CONTINUOUS
10
9.85726
20
-0.0456139
11
9.85182
21
-0.0518821
0
LINE
8
BLACK
6
CONTINUOUS
10
9.85182
20
-0.0518821
11
9.84768
21
-0.0585139
0
LINE
8
BLACK
6
CONTINUOUS
10
9.84768
20
-0.0585139
11
9.84758
21
-0.0589935
0
LINE
8
BLACK
6
CONTINUOUS
10
9.84758
20
-0.0589935
11
9.84758
21
-0.0589948
0
LINE
8
BLACK
6
CONTINUOUS
10
9.84758
20
-0.0589948
11
9.84758
21
-0.0589965
0
LINE
8
BLACK
6
CONTINUOUS
10
9.84758
20
-0.0589965
11
9.84073
21
-0.0706099
0
LINE
8
BLACK
6
CONTINUOUS
10
9.84073
20
-0.0706099
11
9.83271
21
-0.0814513
0
LINE
8
BLACK
6
CONTINUOUS
10
9.83271
20
-0.0814513
11
9.82362
21
-0.091404
0
LINE
8
BLACK
6
CONTINUOUS
10
9.82362
20
-0.091404
11
9.81354
21
-0.100361
0
LINE
8
BLACK
6
CONTINUOUS
10
9.81354
20
-0.100361
11
9.80259
21
-0.108225
0
LINE
8
BLACK
6
CONTINUOUS
10
9.80259
20
-0.108225
11
9.79089
21
-0.114913
0
LINE
8
BLACK
6
CONTINUOUS
10
9.79089
20
-0.114913
11
9.77855
21
-0.120351
0
LINE
8
BLACK
6
CONTINUOUS
10
9.77855
20
-0.120351
11
9.76572
21
-0.124482
0
LINE
8
BLACK
6
CONTINUOUS
10
9.76572
20
-0.124482
11
9.75253
21
-0.127261
0
LINE
8
BLACK
6
CONTINUOUS
10
9.75253
20
-0.127261
11
9.73912
21
-0.128658
0
LINE
8
BLACK
6
CONTINUOUS
10
9.73912
20
-0.128658
11
9.72564
21
-0.128658
0
LINE
8
BLACK
6
CONTINUOUS
10
9.72564
20
-0.128658
11
9.71223
21
-0.127261
0
LINE
8
BLACK
6
CONTINUOUS
10
9.71223
20
-0.127261
11
9.69903
21
-0.124482
0
LINE
8
BLACK
6
CONTINUOUS
10
9.69903
20
-0.124482
11
9.6862
21
-0.120351
0
LINE
8
BLACK
6
CONTINUOUS
10
9.6862
20
-0.120351
11
9.67387
21
-0.114913
0
LINE
8
BLACK
6
CONTINUOUS
10
9.67387
20
-0.114913
11
9.66216
21
-0.108225
0
LINE
8
BLACK
6
CONTINUOUS
10
9.66216
20
-0.108225
11
9.65121
21
-0.100361
0
LINE
8
BLACK
6
CONTINUOUS
10
9.65121
20
-0.100361
11
9.64113
21
-0.091404
0
LINE
8
BLACK
6
CONTINUOUS
10
9.64113
20
-0.091404
11
9.63204
21
-0.0814513
0
LINE
8
BLACK
6
CONTINUOUS
10
9.63204
20
-0.0814513
11
9.62402
21
-0.0706099
0
LINE
8
BLACK
6
CONTINUOUS
10
9.62402
20
-0.0706099
11
9.61718
21
-0.0589964
0
LINE
8
BLACK
6
CONTINUOUS
10
9.61718
20
-0.0589964
11
9.61718
21
-0.0589949
0
LINE
8
BLACK
6
CONTINUOUS
10
9.61718
20
-0.0589949
11
9.61718
21
-0.0589937
0
LINE
8
BLACK
6
CONTINUOUS
10
9.61718
20
-0.0589937
11
9.61707
21
-0.0585141
0
LINE
8
BLACK
6
CONTINUOUS
10
9.61707
20
-0.0585141
11
9.61293
21
-0.0518826
0
LINE
8
BLACK
6
CONTINUOUS
10
9.61293
20
-0.0518826
11
9.6075
21
-0.0456145
0
LINE
8
BLACK
6
CONTINUOUS
10
9.6075
20
-0.0456145
11
9.60116
21
-0.0402654
0
LINE
8
BLACK
6
CONTINUOUS
10
9.60116
20
-0.0402654
11
9.59406
21
-0.035965
0
LINE
8
BLACK
6
CONTINUOUS
10
9.59406
20
-0.035965
11
9.58639
21
-0.0328174
0
LINE
8
BLACK
6
CONTINUOUS
10
9.58639
20
-0.0328174
11
9.57832
21
-0.030899
0
LINE
8
BLACK
6
CONTINUOUS
10
9.57832
20
-0.030899
11
9.57053
21
-0.0302931
0
LINE
8
BLACK
6
CONTINUOUS
10
9.57053
20
-0.0302931
11
9.57005
21
-0.0304205
0
LINE
8
BLACK
6
CONTINUOUS
10
9.57005
20
-0.0304205
11
9.57005
21
-0.0304202
0
LINE
8
BLACK
6
CONTINUOUS
10
9.57005
20
-0.0304202
11
9.57005
21
-0.0304205
0
LINE
8
BLACK
6
CONTINUOUS
10
9.57005
20
-0.0304205
11
5.2072
21
-0.0304205
0
LINE
8
BLACK
6
CONTINUOUS
10
5.2072
20
-0.0304205
11
5.2072
21
-0.0304202
0
LINE
8
BLACK
6
CONTINUOUS
10
5.2072
20
-0.0304202
11
5.2072
21
-0.0304205
0
LINE
8
BLACK
6
CONTINUOUS
10
5.2072
20
-0.0304205
11
5.20673
21
-0.0302932
0
LINE
8
BLACK
6
CONTINUOUS
10
5.20673
20
-0.0302932
11
5.19893
21
-0.0308991
0
LINE
8
BLACK
6
CONTINUOUS
10
5.19893
20
-0.0308991
11
5.19086
21
-0.0328174
0
LINE
8
BLACK
6
CONTINUOUS
10
5.19086
20
-0.0328174
11
5.18319
21
-0.035965
0
LINE
8
BLACK
6
CONTINUOUS
10
5.18319
20
-0.035965
11
5.1761
21
-0.0402654
0
LINE
8
BLACK
6
CONTINUOUS
10
5.1761
20
-0.0402654
11
5.16976
21
-0.0456145
0
LINE
8
BLACK
6
CONTINUOUS
10
5.16976
20
-0.0456145
11
5.16433
21
-0.0518826
0
LINE
8
BLACK
6
CONTINUOUS
10
5.16433
20
-0.0518826
11
5.16018
21
-0.058514
0
LINE
8
BLACK
6
CONTINUOUS
10
5.16018
20
-0.058514
11
5.16008
21
-0.0589938
0
LINE
8
BLACK
6
CONTINUOUS
10
5.16008
20
-0.0589938
11
5.16008
21
-0.0589951
0
LINE
8
BLACK
6
CONTINUOUS
10
5.16008
20
-0.0589951
11
5.16008
21
-0.0589965
0
LINE
8
BLACK
6
CONTINUOUS
10
5.16008
20
-0.0589965
11
5.15323
21
-0.0706099
0
LINE
8
BLACK
6
CONTINUOUS
10
5.15323
20
-0.0706099
11
5.14521
21
-0.0814512
0
LINE
8
BLACK
6
CONTINUOUS
10
5.14521
20
-0.0814512
11
5.13612
21
-0.0914038
0
LINE
8
BLACK
6
CONTINUOUS
10
5.13612
20
-0.0914038
11
5.12604
21
-0.100361
0
LINE
8
BLACK
6
CONTINUOUS
10
5.12604
20
-0.100361
11
5.11509
21
-0.108225
0
LINE
8
BLACK
6
CONTINUOUS
10
5.11509
20
-0.108225
11
5.10339
21
-0.114912
0
LINE
8
BLACK
6
CONTINUOUS
10
5.10339
20
-0.114912
11
5.09105
21
-0.120351
0
LINE
8
BLACK
6
CONTINUOUS
10
5.09105
20
-0.120351
11
5.07822
21
-0.124482
0
LINE
8
BLACK
6
CONTINUOUS
10
5.07822
20
-0.124482
11
5.06503
21
-0.12726
0
LINE
8
BLACK
6
CONTINUOUS
10
5.06503
20
-0.12726
11
5.05162
21
-0.128657
0
LINE
8
BLACK
6
CONTINUOUS
10
5.05162
20
-0.128657
11
5.03814
21
-0.128657
0
LINE
8
BLACK
6
CONTINUOUS
10
5.03814
20
-0.128657
11
5.02473
21
-0.12726
0
LINE
8
BLACK
6
CONTINUOUS
10
5.02473
20
-0.12726
11
5.01153
21
-0.124482
0
LINE
8
BLACK
6
CONTINUOUS
10
5.01153
20
-0.124482
11
4.9987
21
-0.120351
0
LINE
8
BLACK
6
CONTINUOUS
10
4.9987
20
-0.120351
11
4.98637
21
-0.114912
0
LINE
8
BLACK
6
CONTINUOUS
10
4.98637
20
-0.114912
11
4.97466
21
-0.108225
0
LINE
8
BLACK
6
CONTINUOUS
10
4.97466
20
-0.108225
11
4.96371
21
-0.10036
0
LINE
8
BLACK
6
CONTINUOUS
10
4.96371
20
-0.10036
11
4.95363
21
-0.0914038
0
LINE
8
BLACK
6
CONTINUOUS
10
4.95363
20
-0.0914038
11
4.94454
21
-0.0814512
0
LINE
8
BLACK
6
CONTINUOUS
10
4.94454
20
-0.0814512
11
4.93652
21
-0.0706098
0
LINE
8
BLACK
6
CONTINUOUS
10
4.93652
20
-0.0706098
11
4.92968
21
-0.0589965
0
LINE
8
BLACK
6
CONTINUOUS
10
4.92968
20
-0.0589965
11
4.92968
21
-0.0589965
0
LINE
8
BLACK
6
CONTINUOUS
10
4.92968
20
-0.0589965
11
4.92968
21
-0.0589965
0
LINE
8
BLACK
6
CONTINUOUS
10
4.92968
20
-0.0589965
11
4.92968
21
-0.0589949
0
LINE
8
BLACK
6
CONTINUOUS
10
4.92968
20
-0.0589949
11
4.92968
21
-0.0589937
0
LINE
8
BLACK
6
CONTINUOUS
10
4.92968
20
-0.0589937
11
4.92957
21
-0.0585141
0
LINE
8
BLACK
6
CONTINUOUS
10
4.92957
20
-0.0585141
11
4.92543
21
-0.0518826
0
LINE
8
BLACK
6
CONTINUOUS
10
4.92543
20
-0.0518826
11
4.92
21
-0.0456145
0
LINE
8
BLACK
6
CONTINUOUS
10
4.92
20
-0.0456145
11
4.91366
21
-0.0402654
0
LINE
8
BLACK
6
CONTINUOUS
10
4.91366
20
-0.0402654
11
4.90656
21
-0.035965
0
LINE
8
BLACK
6
CONTINUOUS
10
4.90656
20
-0.035965
11
4.89889
21
-0.0328174
0
LINE
8
BLACK
6
CONTINUOUS
10
4.89889
20
-0.0328174
11
4.89082
21
-0.030899
0
LINE
8
BLACK
6
CONTINUOUS
10
4.89082
20
-0.030899
11
4.88303
21
-0.0302931
0
LINE
8
BLACK
6
CONTINUOUS
10
4.88303
20
-0.0302931
11
4.88255
21
-0.0304205
0
LINE
8
BLACK
6
CONTINUOUS
10
4.88255
20
-0.0304205
11
4.88255
21
-0.0304202
0
LINE
8
BLACK
6
CONTINUOUS
10
4.88255
20
-0.0304202
11
4.88255
21
-0.0304205
0
LINE
8
BLACK
6
CONTINUOUS
10
4.88255
20
-0.0304205
11
1.6447
21
-0.0304205
0
LINE
8
BLACK
6
CONTINUOUS
10
1.6447
20
-0.0304205
11
1.6447
21
-0.0304202
0
LINE
8
BLACK
6
CONTINUOUS
10
1.6447
20
-0.0304202
11
1.6447
21
-0.0304205
0
LINE
8
BLACK
6
CONTINUOUS
10
1.6447
20
-0.0304205
11
1.64423
21
-0.0302932
0
LINE
8
BLACK
6
CONTINUOUS
10
1.64423
20
-0.0302932
11
1.63643
21
-0.0308991
0
LINE
8
BLACK
6
CONTINUOUS
10
1.63643
20
-0.0308991
11
1.62836
21
-0.0328174
0
LINE
8
BLACK
6
CONTINUOUS
10
1.62836
20
-0.0328174
11
1.62069
21
-0.035965
0
LINE
8
BLACK
6
CONTINUOUS
10
1.62069
20
-0.035965
11
1.6136
21
-0.0402654
0
LINE
8
BLACK
6
CONTINUOUS
10
1.6136
20
-0.0402654
11
1.60726
21
-0.0456145
0
LINE
8
BLACK
6
CONTINUOUS
10
1.60726
20
-0.0456145
11
1.60183
21
-0.0518826
0
LINE
8
BLACK
6
CONTINUOUS
10
1.60183
20
-0.0518826
11
1.59768
21
-0.058514
0
LINE
8
BLACK
6
CONTINUOUS
10
1.59768
20
-0.058514
11
1.59758
21
-0.0589938
0
LINE
8
BLACK
6
CONTINUOUS
10
1.59758
20
-0.0589938
11
1.59758
21
-0.0589951
0
LINE
8
BLACK
6
CONTINUOUS
10
1.59758
20
-0.0589951
11
1.59758
21
-0.0589965
0
LINE
8
BLACK
6
CONTINUOUS
10
1.59758
20
-0.0589965
11
1.59073
21
-0.0706099
0
LINE
8
BLACK
6
CONTINUOUS
10
1.59073
20
-0.0706099
11
1.58271
21
-0.0814512
0
LINE
8
BLACK
6
CONTINUOUS
10
1.58271
20
-0.0814512
11
1.57362
21
-0.0914038
0
LINE
8
BLACK
6
CONTINUOUS
10
1.57362
20
-0.0914038
11
1.56354
21
-0.100361
0
LINE
8
BLACK
6
CONTINUOUS
10
1.56354
20
-0.100361
11
1.55259
21
-0.108225
0
LINE
8
BLACK
6
CONTINUOUS
10
1.55259
20
-0.108225
11
1.54089
21
-0.114912
0
LINE
8
BLACK
6
CONTINUOUS
10
1.54089
20
-0.114912
11
1.52855
21
-0.120351
0
LINE
8
BLACK
6
CONTINUOUS
10
1.52855
20
-0.120351
11
1.51572
21
-0.124482
0
LINE
8
BLACK
6
CONTINUOUS
10
1.51572
20
-0.124482
11
1.50253
21
-0.12726
0
LINE
8
BLACK
6
CONTINUOUS
10
1.50253
20
-0.12726
11
1.48912
21
-0.128657
0
LINE
8
BLACK
6
CONTINUOUS
10
1.48912
20
-0.128657
11
1.47564
21
-0.128657
0
LINE
8
BLACK
6
CONTINUOUS
10
1.47564
20
-0.128657
11
1.46223
21
-0.12726
0
LINE
8
BLACK
6
CONTINUOUS
10
1.46223
20
-0.12726
11
1.44903
21
-0.124482
0
LINE
8
BLACK
6
CONTINUOUS
10
1.44903
20
-0.124482
11
1.4362
21
-0.120351
0
LINE
8
BLACK
6
CONTINUOUS
10
1.4362
20
-0.120351
11
1.42387
21
-0.114912
0
LINE
8
BLACK
6
CONTINUOUS
10
1.42387
20
-0.114912
11
1.41216
21
-0.108225
0
LINE
8
BLACK
6
CONTINUOUS
10
1.41216
20
-0.108225
11
1.40121
21
-0.10036
0
LINE
8
BLACK
6
CONTINUOUS
10
1.40121
20
-0.10036
11
1.39113
21
-0.0914038
0
LINE
8
BLACK
6
CONTINUOUS
10
1.39113
20
-0.0914038
11
1.38204
21
-0.0814512
0
LINE
8
BLACK
6
CONTINUOUS
10
1.38204
20
-0.0814512
11
1.37402
21
-0.0706098
0
LINE
8
BLACK
6
CONTINUOUS
10
1.37402
20
-0.0706098
11
1.36718
21
-0.0589965
0
LINE
8
BLACK
6
CONTINUOUS
10
1.36718
20
-0.0589965
11
1.36718
21
-0.0589965
0
LINE
8
BLACK
6
CONTINUOUS
10
1.36718
20
-0.0589965
11
1.36718
21
-0.0589965
0
LINE
8
BLACK
6
CONTINUOUS
10
1.36718
20
-0.0589965
11
1.36718
21
-0.0589949
0
LINE
8
BLACK
6
CONTINUOUS
10
1.36718
20
-0.0589949
11
1.36718
21
-0.0589937
0
LINE
8
BLACK
6
CONTINUOUS
10
1.36718
20
-0.0589937
11
1.36707
21
-0.0585141
0
LINE
8
BLACK
6
CONTINUOUS
10
1.36707
20
-0.0585141
11
1.36293
21
-0.0518826
0
LINE
8
BLACK
6
CONTINUOUS
10
1.36293
20
-0.0518826
11
1.3575
21
-0.0456145
0
LINE
8
BLACK
6
CONTINUOUS
10
1.3575
20
-0.0456145
11
1.35116
21
-0.0402654
0
LINE
8
BLACK
6
CONTINUOUS
10
1.35116
20
-0.0402654
11
1.34406
21
-0.035965
0
LINE
8
BLACK
6
CONTINUOUS
10
1.34406
20
-0.035965
11
1.33639
21
-0.0328174
0
LINE
8
BLACK
6
CONTINUOUS
10
1.33639
20
-0.0328174
11
1.32832
21
-0.030899
0
LINE
8
BLACK
6
CONTINUOUS
10
1.32832
20
-0.030899
11
1.32053
21
-0.0302931
0
LINE
8
BLACK
6
CONTINUOUS
10
1.32053
20
-0.0302931
11
1.32005
21
-0.0304205
0
LINE
8
BLACK
6
CONTINUOUS
10
1.32005
20
-0.0304205
11
1.32005
21
-0.0304202
0
LINE
8
BLACK
6
CONTINUOUS
10
1.32005
20
-0.0304202
11
1.32005
21
-0.0304205
0
LINE
8
BLACK
6
CONTINUOUS
10
1.32005
20
-0.0304205
11
0.0817861
21
-0.0304205
0
LINE
8
BLACK
6
CONTINUOUS
10
0.0817861
20
-0.0304205
11
0.0813176
21
-0.030295
0
LINE
8
BLACK
6
CONTINUOUS
10
0.0813176
20
-0.030295
11
0.0722589
21
-0.0308887
0
LINE
8
BLACK
6
CONTINUOUS
10
0.0722589
20
-0.0308887
11
0.0628946
21
-0.0327513
0
LINE
8
BLACK
6
CONTINUOUS
10
0.0628946
20
-0.0327513
11
0.0538537
21
-0.0358204
0
LINE
8
BLACK
6
CONTINUOUS
10
0.0538537
20
-0.0358204
11
0.0452906
21
-0.0400431
0
LINE
8
BLACK
6
CONTINUOUS
10
0.0452906
20
-0.0400431
11
0.037352
21
-0.0453476
0
LINE
8
BLACK
6
CONTINUOUS
10
0.037352
20
-0.0453476
11
0.0301737
21
-0.0516428
0
LINE
8
BLACK
6
CONTINUOUS
10
0.0301737
20
-0.0516428
11
0.0238785
21
-0.0588211
0
LINE
8
BLACK
6
CONTINUOUS
10
0.0238785
20
-0.0588211
11
0.0185741
21
-0.0667597
0
LINE
8
BLACK
6
CONTINUOUS
10
0.0185741
20
-0.0667597
11
0.0143513
21
-0.0753228
0
LINE
8
BLACK
6
CONTINUOUS
10
0.0143513
20
-0.0753228
11
0.0112823
21
-0.0843637
0
LINE
8
BLACK
6
CONTINUOUS
10
0.0112823
20
-0.0843637
11
0.00941965
21
-0.0937279
0
LINE
8
BLACK
6
CONTINUOUS
10
0.00941965
20
-0.0937279
11
0.00882591
21
-0.102787
0
LINE
8
BLACK
6
CONTINUOUS
10
0.00882591
20
-0.102787
11
0.00895146
21
-0.103255
0
LINE
8
BLACK
6
CONTINUOUS
10
0.00895146
20
-0.103255
11
0.00895146
21
-2.1879
0
LINE
8
BLACK
6
CONTINUOUS
10
0.00895146
20
-2.1879
11
0.152652
21
-2.1879
0
LINE
8
BLACK
6
CONTINUOUS
10
0.152652
20
-2.1879
11
0.161337
21
-2.18852
0
LINE
8
BLACK
6
CONTINUOUS
10
0.161337
20
-2.18852
11
0.169845
21
-2.19037
  0
ENDSEC
  0
EOF
