0
SECTION
2
HEADER
9
$INSUNITS
70
4
9
$ACADVER
1
AC1014
9
$HANDSEED
5
FFFF
0
ENDSEC
0
SECTION
2
TABLES
0
TABLE
2
VPORT
5
8
100
AcDbSymbolTable
0
ENDTAB
0
TABLE
2
LTYPE
5
5
100
AcDbSymbolTable
0
LTYPE
5
14
100
AcDbSymbolTableRecord
100
AcDbLinetypeTableRecord
2
BYBLOCK
70
0
0
LTYPE
5
15
100
AcDbSymbolTableRecord
100
AcDbLinetypeTableRecord
2
BYLAYER
70
0
0
ENDTAB
0
TABLE
2
LAYER
5
2
100
AcDbSymbolTable
70
2
0
LAYER
5
50
100
AcDbSymbolTableRecord
100
AcDbLayerTableRecord
2
0
70
0
6
CONTINUOUS
0
ENDTAB
0
TABLE
2
STYLE
5
3
100
AcDbSymbolTable
70
1
0
STYLE
5
11
100
AcDbSymbolTableRecord
100
AcDbTextStyleTableRecord
2
STANDARD
70
0
0
ENDTAB
0
TABLE
2
VIEW
5
6
100
AcDbSymbolTable
70
0
0
ENDTAB
0
TABLE
2
UCS
5
7
100
AcDbSymbolTable
70
0
0
ENDTAB
0
TABLE
2
APPID
5
9
100
AcDbSymbolTable
70
2
0
APPID
5
12
100
AcDbSymbolTableRecord
100
AcDbRegAppTableRecord
2
ACAD
70
0
0
ENDTAB
0
TABLE
2
DIMSTYLE
5
A
100
AcDbSymbolTable
70
1
0
ENDTAB
0
TABLE
2
BLOCK_RECORD
5
1
100
AcDbSymbolTable
70
1
0
BLOCK_RECORD
5
1F
100
AcDbSymbolTableRecord
100
AcDbBlockTableRecord
2
*MODEL_SPACE
0
BLOCK_RECORD
5
1B
100
AcDbSymbolTableRecord
100
AcDbBlockTableRecord
2
*PAPER_SPACE
0
ENDTAB
0
ENDSEC
0
SECTION
2
BLOCKS
0
BLOCK
5
20
100
AcDbEntity
100
AcDbBlockBegin
2
*MODEL_SPACE
0
ENDBLK
5
21
100
AcDbEntity
100
AcDbBlockEnd
0
BLOCK
5
1C
100
AcDbEntity
100
AcDbBlockBegin
2
*PAPER_SPACE
0
ENDBLK
5
1D
100
AcDbEntity
100
AcDbBlockEnd
0
ENDSEC
0
SECTION
2
ENTITIES
0
LWPOLYLINE
5
100
100
AcDbEntity
8
0
100
AcDbPolyline
90
38
70
1
43
0.0
10
-295.58345379853978
20
-9.2945742201527963
42
0.4142135623730947
10
-297.58345379853978
20
-11.2945742201528
10
-297.58345379853978
20
-101.89457423304056
42
0.41421356237309764
10
-295.58345379853972
20
-103.89457423304057
10
-282.25845779854023
20
-103.89457423304054
42
-0.41421356237309503
10
-280.65845779854027
20
-105.49457423304055
10
-280.65845779854027
20
-106.89459451449609
42
0.99999999999999989
10
-277.15845779854027
20
-106.89459451449609
10
-277.15845779854027
20
-105.49457423304055
42
-0.41421356237309503
10
-275.55845779854025
20
-103.89457423304054
10
-148.90845779854001
20
-103.89457423304054
42
-0.41421356237309503
10
-147.30845779854002
20
-105.49457423304055
10
-147.30845779854002
20
-106.89459284216613
42
0.99999999999999989
10
-143.80845779853999
20
-106.89459284216613
10
-143.80845779853999
20
-105.49457423304055
42
-0.41421356237309503
10
-142.20845779854
20
-103.89457423304054
10
-34.608457798539902
20
-103.89457423304054
42
-0.41421356237309503
10
-33.008457798539901
20
-105.49457423304055
10
-33.008457798539901
20
-106.89457657430691
42
0.99999999999999989
10
-29.508457798539904
20
-106.89457657430691
10
-29.508457798539904
20
-105.49457423304055
42
-0.41421356237309503
10
-27.908457798539903
20
-103.89457423304054
10
-14.583429555644834
20
-103.89457423304054
42
0.41421356237309537
10
-12.583429555644837
20
-101.89457423304056
10
-12.583429555644834
20
-11.294574220152782
42
0.4142135623730937
10
-14.583429555644827
20
-9.294574220152791
10
-46.958457570740606
20
-9.2945742201527892
42
-0.41421360407274888
10
-48.558457570740572
20
-7.6945739923583369
10
-48.558457229053964
20
-5.2946096742231594
42
0.99999999999999989
10
-52.058457229053936
20
-5.2946091759227967
10
-52.058457570740664
20
-7.6945744479472422
42
-0.4142135206734408
10
-53.658457570740659
20
-9.294574220152791
10
-256.50845757074183
20
-9.2945742201528141
42
-0.41421360407275276
10
-258.10845757074179
20
-7.6945739923583396
10
-258.1084572290531
20
-5.2945947572461289
42
0.99999999999999989
10
-261.6084572290531
20
-5.2945942589457502
10
-261.6084575707419
20
-7.6945744479472511
42
-0.41421352067343864
10
-263.20845757074187
20
-9.2945742201527963
0
LWPOLYLINE
5
101
100
AcDbEntity
8
0
100
AcDbPolyline
90
8
70
1
43
0.0
10
-205.50245779853952
20
-12.132114511295562
10
-205.50245779853952
20
-24.857114511295961
10
-206.01045779853933
20
-25.365114511295754
10
-218.45645779853925
20
-25.365114511295754
10
-218.96445779853906
20
-24.857114511295961
10
-218.96445779853906
20
-12.132114511295562
10
-218.45645779853925
20
-11.624114511295769
10
-206.01045779853933
20
-11.624114511295769
0
LWPOLYLINE
5
102
100
AcDbEntity
8
0
100
AcDbPolyline
90
6
70
1
43
0.0
10
-292.52720779853996
20
-51.326614511295134
10
-289.52720779853996
20
-49.594614511295134
10
-263.52720779853996
20
-49.594614511295134
10
-260.52720779853996
20
-51.326614511295134
10
-260.52720779853996
20
-63.59461451129512
10
-292.52720779853996
20
-63.59461451129512
0
LWPOLYLINE
5
103
100
AcDbEntity
8
0
100
AcDbPolyline
90
8
70
1
43
0.0
10
-254.93970779854033
20
-43.243614511296471
10
-256.2407077985398
20
-44.544614511295975
10
-268.23870779853939
20
-44.544614511295975
10
-269.53970779853887
20
-43.243614511296471
10
-269.53970779853887
20
-31.845614511295359
10
-268.23870779853939
20
-30.544614511295958
10
-256.2407077985398
20
-30.544614511295958
10
-254.93970779854033
20
-31.845614511295359
0
LWPOLYLINE
5
104
100
AcDbEntity
8
0
100
AcDbPolyline
90
8
70
1
43
0.0
10
-289.66995779853897
20
-25.494614511294849
10
-290.97095779854033
20
-24.193614511295358
10
-290.97095779854033
20
-12.795614511296165
10
-289.66995779853897
20
-11.494614511294863
10
-277.67195779853949
20
-11.494614511294863
10
-276.37095779853996
20
-12.795614511296165
10
-276.37095779853996
20
-24.193614511295358
10
-277.67195779853949
20
-25.494614511294849
0
LWPOLYLINE
5
105
100
AcDbEntity
8
0
100
AcDbPolyline
90
8
70
1
43
0.0
10
-267.15845779854027
20
-12.795614511296165
10
-265.85745779853892
20
-11.494614511294863
10
-253.85945779853949
20
-11.494614511294863
10
-252.55845779853999
20
-12.795614511296165
10
-252.55845779853999
20
-24.193614511295358
10
-253.85945779853949
20
-25.494614511294849
10
-265.85745779853892
20
-25.494614511294849
10
-267.15845779854027
20
-24.193614511295358
0
LWPOLYLINE
5
106
100
AcDbEntity
8
0
100
AcDbPolyline
90
8
70
1
43
0.0
10
-242.044957798539
20
-25.494614511294849
10
-243.34595779854027
20
-24.193614511295358
10
-243.34595779854027
20
-12.795614511296165
10
-242.044957798539
20
-11.494614511294863
10
-230.04695779853955
20
-11.494614511294863
10
-228.74595779853996
20
-12.795614511296165
10
-228.74595779853996
20
-24.193614511295358
10
-230.04695779853955
20
-25.494614511294849
0
LWPOLYLINE
5
107
100
AcDbEntity
8
0
100
AcDbPolyline
90
8
70
1
43
0.0
10
-14.433457798540097
20
-100.39361451129599
10
-15.734457798539552
20
-101.69461451129548
10
-27.732457798539158
20
-101.69461451129548
10
-29.033457798540425
20
-100.39361451129599
10
-29.033457798540425
20
-88.995614511294988
10
-27.732457798539158
20
-87.694614511295498
10
-15.734457798539552
20
-87.694614511295498
10
-14.433457798540097
20
-88.995614511294988
0
CIRCLE
5
108
100
AcDbEntity
8
0
100
AcDbCircle
10
-250.20314579854031
20
-18.494614511294873
30
0
40
0.81150000000000944
210
0
220
-0
230
1
0
LWPOLYLINE
5
109
100
AcDbEntity
8
0
100
AcDbPolyline
90
8
70
1
43
0.0
10
-224.29595779853935
20
-31.845614511295359
10
-222.99495779853984
20
-30.544614511295958
10
-210.99695779854022
20
-30.544614511295958
10
-209.6959577985389
20
-31.845614511295359
10
-209.6959577985389
20
-43.243614511296471
10
-210.99695779854022
20
-44.544614511295975
10
-222.99495779853984
20
-44.544614511295975
10
-224.29595779853935
20
-43.243614511296471
0
CIRCLE
5
110
100
AcDbEntity
8
0
100
AcDbCircle
10
-207.47095779854035
20
-37.544614511295968
30
0
40
0.81150000000000944
210
0
220
-0
230
1
0
CIRCLE
5
111
100
AcDbEntity
8
0
100
AcDbCircle
10
-169.37095779854005
20
-37.544614511295947
30
0
40
0.81150000000000944
210
0
220
-0
230
1
0
LWPOLYLINE
5
112
100
AcDbEntity
8
0
100
AcDbPolyline
90
8
70
1
43
0.0
10
-109.68345779854003
20
-100.39361451129602
10
-110.98445779853955
20
-101.69461451129551
10
-122.98245779853906
20
-101.69461451129551
10
-124.28345779854035
20
-100.39361451129602
10
-124.28345779854035
20
-88.995614511295017
10
-122.98245779853906
20
-87.694614511295526
10
-110.98445779853955
20
-87.694614511295526
10
-109.68345779854003
20
-88.995614511295017
0
CIRCLE
5
113
100
AcDbEntity
8
0
100
AcDbCircle
10
-245.57095779853887
20
-37.544614511295968
30
0
40
0.81150000000000944
210
0
220
-0
230
1
0
LWPOLYLINE
5
114
100
AcDbEntity
8
0
100
AcDbPolyline
90
8
70
1
43
0.0
10
-238.27095779853954
20
-50.895614511296458
10
-238.27095779853954
20
-62.293614511295758
10
-239.57195779853913
20
-63.59461451129512
10
-251.56995779854049
20
-63.59461451129512
10
-252.87095779853999
20
-62.293614511295758
10
-252.87095779853999
20
-50.895614511296458
10
-251.56995779854049
20
-49.594614511295134
10
-239.57195779853913
20
-49.594614511295134
0
LWPOLYLINE
5
115
100
AcDbEntity
8
0
100
AcDbPolyline
90
8
70
1
43
0.0
10
-220.5219577985398
20
-63.59461451129512
10
-232.51995779853942
20
-63.59461451129512
10
-233.82095779853893
20
-62.293614511295758
10
-233.82095779853893
20
-50.895614511296458
10
-232.51995779853942
20
-49.594614511295134
10
-220.5219577985398
20
-49.594614511295134
10
-219.22095779854033
20
-50.895614511296458
10
-219.22095779854033
20
-62.293614511295758
0
CIRCLE
5
116
100
AcDbEntity
8
0
100
AcDbCircle
10
-164.60845779853935
20
-18.494614511294856
30
0
40
0.81150000000000944
210
0
220
-0
230
1
0
CIRCLE
5
117
100
AcDbEntity
8
0
100
AcDbCircle
10
-255.09595779854033
20
-56.594614511295106
30
0
40
0.81150000000000944
210
0
220
-0
230
1
0
LWPOLYLINE
5
118
100
AcDbEntity
8
0
100
AcDbPolyline
90
8
70
1
43
0.0
10
-80.119957798539886
20
-25.494614511294831
10
-81.420957798539391
20
-24.19361451129534
10
-81.420957798539391
20
-12.795614511296147
10
-80.119957798539886
20
-11.494614511294845
10
-68.121957798540251
20
-11.494614511294845
10
-66.820957798538984
20
-12.795614511296147
10
-66.820957798538984
20
-24.19361451129534
10
-68.121957798540251
20
-25.494614511294831
0
LWPOLYLINE
5
119
100
AcDbEntity
8
0
100
AcDbPolyline
90
8
70
1
43
0.0
10
-90.633457798538956
20
-88.995614511294988
10
-90.633457798538956
20
-100.39361451129599
10
-91.934457798540251
20
-101.69461451129548
10
-103.93245779853983
20
-101.69461451129551
10
-105.23345779853935
20
-100.39361451129602
10
-105.23345779853935
20
-88.995614511295017
10
-103.93245779853983
20
-87.694614511295526
10
-91.934457798540251
20
-87.694614511295498
0
LWPOLYLINE
5
120
100
AcDbEntity
8
0
100
AcDbPolyline
90
8
70
1
43
0.0
10
-72.884457798539188
20
-87.694614511295498
10
-71.583457798539712
20
-88.995614511294988
10
-71.583457798539712
20
-100.39361451129599
10
-72.884457798539188
20
-101.69461451129548
10
-84.882457798540599
20
-101.69461451129548
10
-86.183457798540076
20
-100.39361451129599
10
-86.183457798540076
20
-88.995614511294988
10
-84.882457798540599
20
-87.694614511295498
0
LWPOLYLINE
5
121
100
AcDbEntity
8
0
100
AcDbPolyline
90
8
70
1
43
0.0
10
-53.834457798539873
20
-101.69461451129548
10
-65.83245779853948
20
-101.69461451129548
10
-67.133457798538984
20
-100.39361451129599
10
-67.133457798538984
20
-88.995614511294988
10
-65.83245779853948
20
-87.694614511295498
10
-53.834457798539873
20
-87.694614511295498
10
-52.533457798540368
20
-88.995614511294988
10
-52.533457798540368
20
-100.39361451129599
0
LWPOLYLINE
5
122
100
AcDbEntity
8
0
100
AcDbPolyline
90
8
70
1
43
0.0
10
-19.195957798538998
20
-81.343614511294874
10
-20.496957798540265
20
-82.644614511296183
10
-32.494957798539872
20
-82.644614511296183
10
-33.795957798539362
20
-81.343614511294874
10
-33.795957798539362
20
-69.945614511295688
10
-32.494957798539872
20
-68.644614511296197
10
-20.496957798540265
20
-68.644614511296197
10
-19.195957798538998
20
-69.945614511295688
0
CIRCLE
5
123
100
AcDbEntity
8
0
100
AcDbCircle
10
-88.408457798540354
20
-94.694614511295484
30
0
40
0.81149999999999167
210
0
220
-0
230
1
0
LWPOLYLINE
5
124
100
AcDbEntity
8
0
100
AcDbPolyline
90
8
70
1
43
0.0
10
-161.08245779853945
20
-87.694614511295526
10
-149.08445779853983
20
-87.694614511295526
10
-147.78345779854033
20
-88.995614511295017
10
-147.78345779854033
20
-100.39361451129602
10
-149.08445779853983
20
-101.69461451129551
10
-161.08245779853945
20
-101.69461451129551
10
-162.38345779853893
20
-100.39361451129602
10
-162.38345779853893
20
-88.995614511295017
0
LWPOLYLINE
5
125
100
AcDbEntity
8
0
100
AcDbPolyline
90
8
70
1
43
0.0
10
-184.89495779853939
20
-44.544614511295975
10
-186.19595779853896
20
-43.243614511296471
10
-186.19595779853896
20
-31.845614511295359
10
-184.89495779853939
20
-30.544614511295958
10
-172.89695779853986
20
-30.54461451129594
10
-171.59595779854038
20
-31.845614511295341
10
-171.59595779854038
20
-43.243614511296457
10
-172.89695779853986
20
-44.544614511295961
0
LWPOLYLINE
5
126
100
AcDbEntity
8
0
100
AcDbPolyline
90
8
70
1
43
0.0
10
-34.784457798540629
20
-101.69461451129548
10
-46.7824577985402
20
-101.69461451129548
10
-48.083457798539712
20
-100.39361451129599
10
-48.083457798539712
20
-88.995614511294988
10
-46.7824577985402
20
-87.694614511295498
10
-34.784457798540629
20
-87.694614511295498
10
-33.483457798539362
20
-88.995614511294988
10
-33.483457798539362
20
-100.39361451129599
0
LWPOLYLINE
5
127
100
AcDbEntity
8
0
100
AcDbPolyline
90
8
70
1
43
0.0
10
-143.33345779853965
20
-88.995614511295017
10
-142.03245779854012
20
-87.694614511295526
10
-130.03445779854053
20
-87.694614511295526
10
-128.73345779853929
20
-88.995614511295017
10
-128.73345779853929
20
-100.39361451129602
10
-130.03445779854053
20
-101.69461451129551
10
-142.03245779854012
20
-101.69461451129551
10
-143.33345779853965
20
-100.39361451129602
0
CIRCLE
5
128
100
AcDbEntity
8
0
100
AcDbCircle
10
-37.783457798540439
20
-75.99461451129477
30
0
40
0.81150000000000055
210
0
220
-0
230
1
0
LWPOLYLINE
5
129
100
AcDbEntity
8
0
100
AcDbPolyline
90
8
70
1
43
0.0
10
-81.108457798539391
20
-81.343614511294874
10
-82.4094577985406
20
-82.644614511296183
10
-94.407457798540179
20
-82.644614511296183
10
-95.708457798539683
20
-81.343614511294874
10
-95.708457798539683
20
-69.945614511295688
10
-94.407457798540179
20
-68.644614511296197
10
-82.4094577985406
20
-68.644614511296197
10
-81.108457798539391
20
-69.945614511295688
0
CIRCLE
5
130
100
AcDbEntity
8
0
100
AcDbCircle
10
-16.970957798540447
20
-75.644614511296183
30
0
40
0.81150000000000055
210
0
220
-0
230
1
0
CIRCLE
5
131
100
AcDbEntity
8
0
100
AcDbCircle
10
-126.5084577985389
20
-94.694614511295526
30
0
40
0.81149999999999167
210
0
220
-0
230
1
0
LWPOLYLINE
5
132
100
AcDbEntity
8
0
100
AcDbPolyline
90
8
70
1
43
0.0
10
-91.710457798540062
20
-11.624114511295751
10
-91.202457798540252
20
-12.132114511295544
10
-91.202457798540252
20
-24.857114511295944
10
-91.710457798540062
20
-25.365114511295737
10
-104.15645779853995
20
-25.365114511295737
10
-104.66445779853976
20
-24.857114511295944
10
-104.66445779853976
20
-12.132114511295544
10
-104.15645779853995
20
-11.624114511295751
0
CIRCLE
5
133
100
AcDbEntity
8
0
100
AcDbCircle
10
-50.308457798540104
20
-94.694614511295484
30
0
40
0.81150000000000055
210
0
220
-0
230
1
0
LWPOLYLINE
5
134
100
AcDbEntity
8
0
100
AcDbPolyline
90
8
70
1
43
0.0
10
-149.08445779853986
20
-25.494614511294831
10
-161.08245779853945
20
-25.494614511294831
10
-162.38345779853893
20
-24.19361451129534
10
-162.38345779853893
20
-12.795614511296147
10
-161.08245779853945
20
-11.494614511294845
10
-149.08445779853986
20
-11.494614511294845
10
-147.78345779854038
20
-12.795614511296147
10
-147.78345779854038
20
-24.19361451129534
0
LWPOLYLINE
5
135
100
AcDbEntity
8
0
100
AcDbPolyline
90
8
70
1
43
0.0
10
-181.12095779854002
20
-50.895614511296458
10
-181.12095779854002
20
-62.293614511295758
10
-182.42195779853958
20
-63.59461451129512
10
-194.41995779853903
20
-63.59461451129512
10
-195.72095779854038
20
-62.293614511295758
10
-195.72095779854038
20
-50.895614511296458
10
-194.41995779853903
20
-49.594614511295134
10
-182.42195779853958
20
-49.594614511295134
0
LWPOLYLINE
5
136
100
AcDbEntity
8
0
100
AcDbPolyline
90
8
70
1
43
0.0
10
-162.07095779853893
20
-50.895614511296436
10
-162.07095779853893
20
-62.293614511295736
10
-163.37195779854028
20
-63.594614511295106
10
-175.36995779853982
20
-63.594614511295106
10
-176.67095779853929
20
-62.293614511295736
10
-176.67095779853929
20
-50.895614511296436
10
-175.36995779853982
20
-49.59461451129512
10
-163.37195779854028
20
-49.59461451129512
0
LWPOLYLINE
5
137
100
AcDbEntity
8
0
100
AcDbPolyline
90
8
70
1
43
0.0
10
-214.77095779853968
20
-62.293614511295758
10
-214.77095779853968
20
-50.895614511296458
10
-213.46995779854018
20
-49.594614511295134
10
-201.47195779854053
20
-49.594614511295134
10
-200.17095779853932
20
-50.895614511296458
10
-200.17095779853932
20
-62.293614511295758
10
-201.47195779854053
20
-63.59461451129512
10
-213.46995779854018
20
-63.59461451129512
0
LWPOLYLINE
5
138
100
AcDbEntity
8
0
100
AcDbPolyline
90
8
70
1
43
0.0
10
-203.94495779854054
20
-44.544614511295975
10
-205.24595779854002
20
-43.243614511296471
10
-205.24595779854002
20
-31.845614511295359
10
-203.94495779854054
20
-30.544614511295958
10
-191.94695779853916
20
-30.544614511295958
10
-190.64595779853965
20
-31.845614511295359
10
-190.64595779853965
20
-43.243614511296471
10
-191.94695779853916
20
-44.544614511295975
0
LWPOLYLINE
5
139
100
AcDbEntity
8
0
100
AcDbPolyline
90
8
70
1
43
0.0
10
-152.54595779853935
20
-43.243614511296457
10
-153.84695779854059
20
-44.544614511295961
10
-165.84495779854018
20
-44.544614511295961
10
-167.14595779853965
20
-43.243614511296457
10
-167.14595779853965
20
-31.845614511295341
10
-165.84495779854018
20
-30.54461451129594
10
-153.84695779854059
20
-30.54461451129594
10
-152.54595779853935
20
-31.845614511295341
0
LWPOLYLINE
5
140
100
AcDbEntity
8
0
100
AcDbPolyline
90
8
70
1
43
0.0
10
-68.121957798540251
20
-49.59461451129512
10
-66.820957798538984
20
-50.895614511296436
10
-66.820957798538984
20
-62.293614511295736
10
-68.121957798540251
20
-63.594614511295106
10
-80.119957798539886
20
-63.594614511295106
10
-81.420957798539391
20
-62.293614511295736
10
-81.420957798539391
20
-50.895614511296436
10
-80.119957798539886
20
-49.59461451129512
0
CIRCLE
5
141
100
AcDbEntity
8
0
100
AcDbCircle
10
-216.99595779854002
20
-56.594614511295106
30
0
40
0.81150000000000944
210
0
220
-0
230
1
0
LWPOLYLINE
5
142
100
AcDbEntity
8
0
100
AcDbPolyline
90
8
70
1
43
0.0
10
-87.17195779853958
20
-63.594614511295106
10
-99.169957798539073
20
-63.594614511295106
10
-100.47095779854034
20
-62.293614511295736
10
-100.47095779854034
20
-50.895614511296436
10
-99.169957798539073
20
-49.59461451129512
10
-87.17195779853958
20
-49.59461451129512
10
-85.870957798540076
20
-50.895614511296436
10
-85.870957798540076
20
-62.293614511295736
0
LWPOLYLINE
5
143
100
AcDbEntity
8
0
100
AcDbPolyline
90
8
70
1
43
0.0
10
-89.644957798539451
20
-30.54461451129594
10
-77.646957798539873
20
-30.54461451129594
10
-76.345957798540368
20
-31.845614511295341
10
-76.345957798540368
20
-43.243614511296457
10
-77.646957798539873
20
-44.544614511295961
10
-89.644957798539451
20
-44.544614511295961
10
-90.945957798538956
20
-43.243614511296457
10
-90.945957798538956
20
-31.845614511295341
0
LWPOLYLINE
5
144
100
AcDbEntity
8
0
100
AcDbPolyline
90
8
70
1
43
0.0
10
-34.876207798540229
20
-63.594614511295106
10
-36.177207798539754
20
-62.293614511295736
10
-36.177207798539754
20
-50.895614511296436
10
-34.876207798540229
20
-49.59461451129512
10
-22.878207798540657
20
-49.59461451129512
10
-21.577207798539355
20
-50.895614511296436
10
-21.577207798539355
20
-62.293614511295736
10
-22.878207798540657
20
-63.594614511295106
0
LWPOLYLINE
5
145
100
AcDbEntity
8
0
100
AcDbPolyline
90
8
70
1
43
0.0
10
-71.895957798539712
20
-43.243614511296457
10
-71.895957798539712
20
-31.845614511295341
10
-70.594957798540193
20
-30.54461451129594
10
-58.596957798540586
20
-30.54461451129594
10
-57.295957798539376
20
-31.845614511295341
10
-57.295957798539376
20
-43.243614511296457
10
-58.596957798540586
20
-44.544614511295961
10
-70.594957798540193
20
-44.544614511295961
0
LWPOLYLINE
5
146
100
AcDbEntity
8
0
100
AcDbPolyline
90
8
70
1
43
0.0
10
-106.22195779854059
20
-49.59461451129512
10
-104.92095779853939
20
-50.895614511296436
10
-104.92095779853939
20
-62.293614511295736
10
-106.22195779854059
20
-63.594614511295106
10
-118.21995779854019
20
-63.594614511295106
10
-119.52095779853968
20
-62.293614511295736
10
-119.52095779853968
20
-50.895614511296436
10
-118.21995779854019
20
-49.59461451129512
0
LWPOLYLINE
5
147
100
AcDbEntity
8
0
100
AcDbPolyline
90
6
70
1
43
0.0
10
-49.639707798539391
20
-32.276614511295847
10
-46.639707798539391
20
-30.54461451129594
10
-20.639707798539355
20
-30.54461451129594
10
-17.639707798539348
20
-32.276614511295833
10
-17.639707798539348
20
-44.544614511295947
10
-49.639707798539391
20
-44.544614511295961
0
CIRCLE
5
148
100
AcDbEntity
8
0
100
AcDbCircle
10
-55.070957798538984
20
-37.544614511295947
30
0
40
0.81150000000000055
210
0
220
-0
230
1
0
LWPOLYLINE
5
149
100
AcDbEntity
8
0
100
AcDbPolyline
90
8
70
1
43
0.0
10
-47.770957798539712
20
-62.293614511295736
10
-49.071957798539202
20
-63.594614511295106
10
-61.069957798540585
20
-63.594614511295106
10
-62.37095779854009
20
-62.293614511295736
10
-62.37095779854009
20
-50.895614511296436
10
-61.069957798540585
20
-49.59461451129512
10
-49.071957798539202
20
-49.59461451129512
10
-47.770957798539712
20
-50.895614511296436
0
CIRCLE
5
150
100
AcDbEntity
8
0
100
AcDbCircle
10
-64.595957798540383
20
-56.594614511295092
30
0
40
0.81150000000000055
210
0
220
-0
230
1
0
LWPOLYLINE
5
151
100
AcDbEntity
8
0
100
AcDbPolyline
90
8
70
1
43
0.0
10
-96.696957798539188
20
-30.54461451129594
10
-95.395957798539683
20
-31.845614511295341
10
-95.395957798539683
20
-43.243614511296457
10
-96.696957798539188
20
-44.544614511295961
10
-108.69495779854061
20
-44.544614511295961
10
-109.99595779854006
20
-43.243614511296457
10
-109.99595779854006
20
-31.845614511295341
10
-108.69495779854061
20
-30.54461451129594
0
CIRCLE
5
152
100
AcDbEntity
8
0
100
AcDbCircle
10
-102.69595779853896
20
-56.594614511295092
30
0
40
0.81149999999999167
210
0
220
-0
230
1
0
LWPOLYLINE
5
153
100
AcDbEntity
8
0
100
AcDbPolyline
90
8
70
1
43
0.0
10
-144.32195779853916
20
-63.594614511295106
10
-156.31995779854057
20
-63.594614511295106
10
-157.6209577985401
20
-62.293614511295736
10
-157.6209577985401
20
-50.895614511296436
10
-156.31995779854057
20
-49.59461451129512
10
-144.32195779853916
20
-49.59461451129512
10
-143.02095779853968
20
-50.895614511296436
10
-143.02095779853968
20
-62.293614511295736
0
LWPOLYLINE
5
154
100
AcDbEntity
8
0
100
AcDbPolyline
90
8
70
1
43
0.0
10
-127.74495779853984
20
-44.544614511295961
10
-129.04595779853932
20
-43.243614511296457
10
-129.04595779853932
20
-31.845614511295341
10
-127.74495779853984
20
-30.54461451129594
10
-115.74695779854024
20
-30.54461451129594
10
-114.44595779853897
20
-31.845614511295341
10
-114.44595779853897
20
-43.243614511296457
10
-115.74695779854024
20
-44.544614511295961
0
LWPOLYLINE
5
155
100
AcDbEntity
8
0
100
AcDbPolyline
90
8
70
1
43
0.0
10
-190.9584577985396
20
-81.343614511294916
10
-190.9584577985396
20
-69.945614511295716
10
-189.65745779854012
20
-68.644614511296226
10
-177.6594577985405
20
-68.644614511296226
10
-176.35845779853929
20
-69.945614511295716
10
-176.35845779853929
20
-81.343614511294916
10
-177.6594577985405
20
-82.644614511296211
10
-189.65745779854012
20
-82.644614511296211
0
LWPOLYLINE
5
156
100
AcDbEntity
8
0
100
AcDbPolyline
90
8
70
1
43
0.0
10
-137.26995779853945
20
-63.594614511295106
10
-138.57095779853896
20
-62.293614511295736
10
-138.57095779853896
20
-50.895614511296436
10
-137.26995779853945
20
-49.59461451129512
10
-125.27195779853984
20
-49.59461451129512
10
-123.9709577985404
20
-50.895614511296436
10
-123.9709577985404
20
-62.293614511295736
10
-125.27195779853984
20
-63.594614511295106
0
LWPOLYLINE
5
157
100
AcDbEntity
8
0
100
AcDbPolyline
90
8
70
1
43
0.0
10
-146.79495779853912
20
-44.544614511295961
10
-148.09595779854038
20
-43.243614511296457
10
-148.09595779854038
20
-31.845614511295341
10
-146.79495779853912
20
-30.54461451129594
10
-134.79695779853958
20
-30.54461451129594
10
-133.49595779854008
20
-31.845614511295341
10
-133.49595779854008
20
-43.243614511296457
10
-134.79695779853958
20
-44.544614511295961
0
CIRCLE
5
158
100
AcDbEntity
8
0
100
AcDbCircle
10
-93.170957798539376
20
-37.544614511295947
30
0
40
0.81149999999999167
210
0
220
-0
230
1
0
CIRCLE
5
159
100
AcDbEntity
8
0
100
AcDbCircle
10
-86.027207798540076
20
-18.494614511294856
30
0
40
0.81149999999999167
210
0
220
-0
230
1
0
LWPOLYLINE
5
160
100
AcDbEntity
8
0
100
AcDbPolyline
90
8
70
1
43
0.0
10
-33.795957798539362
20
-24.19361451129534
10
-33.795957798539362
20
-12.795614511296147
10
-32.494957798539872
20
-11.494614511294845
10
-20.496957798540265
20
-11.494614511294845
10
-19.195957798538998
20
-12.795614511296129
10
-19.195957798538998
20
-24.193614511295323
10
-20.496957798540265
20
-25.494614511294831
10
-32.494957798539872
20
-25.494614511294831
0
LWPOLYLINE
5
161
100
AcDbEntity
8
0
100
AcDbPolyline
90
8
70
1
43
0.0
10
-57.608457798539376
20
-12.795614511296147
10
-56.307457798539872
20
-11.494614511294845
10
-44.309457798540279
20
-11.494614511294845
10
-43.008457798539013
20
-12.795614511296147
10
-43.008457798539013
20
-24.19361451129534
10
-44.309457798540279
20
-25.494614511294831
10
-56.307457798539872
20
-25.494614511294831
10
-57.608457798539376
20
-24.19361451129534
0
CIRCLE
5
162
100
AcDbEntity
8
0
100
AcDbCircle
10
-178.89595779853963
20
-56.594614511295092
30
0
40
0.81150000000000944
210
0
220
-0
230
1
0
CIRCLE
5
163
100
AcDbEntity
8
0
100
AcDbCircle
10
-38.40220779854009
20
-18.494614511294856
30
0
40
0.81150000000000055
210
0
220
-0
230
1
0
LWPOLYLINE
5
164
100
AcDbEntity
8
0
100
AcDbPolyline
90
8
70
1
43
0.0
10
-208.70745779853939
20
-68.644614511296226
10
-196.70945779853974
20
-68.644614511296226
10
-195.40845779854033
20
-69.945614511295716
10
-195.40845779854033
20
-81.343614511294916
10
-196.70945779853974
20
-82.644614511296211
10
-208.70745779853939
20
-82.644614511296211
10
-210.0084577985389
20
-81.343614511294916
10
-210.0084577985389
20
-69.945614511295716
0
CIRCLE
5
165
100
AcDbEntity
8
0
100
AcDbCircle
10
-193.18345779853999
20
-75.644614511296226
30
0
40
0.81150000000000944
210
0
220
-0
230
1
0
LWPOLYLINE
5
166
100
AcDbEntity
8
0
100
AcDbPolyline
90
8
70
1
43
0.0
10
-227.75745779854049
20
-82.644614511296211
10
-229.05845779853996
20
-81.343614511294916
10
-229.05845779853996
20
-69.945614511295716
10
-227.75745779854049
20
-68.644614511296226
10
-215.7594577985391
20
-68.644614511296226
10
-214.4584577985396
20
-69.945614511295716
10
-214.4584577985396
20
-81.343614511294916
10
-215.7594577985391
20
-82.644614511296211
0
LWPOLYLINE
5
167
100
AcDbEntity
8
0
100
AcDbPolyline
90
8
70
1
43
0.0
10
-171.9084577985403
20
-69.945614511295716
10
-170.60745779853903
20
-68.644614511296226
10
-158.60945779853955
20
-68.644614511296226
10
-157.30845779854005
20
-69.945614511295716
10
-157.30845779854005
20
-81.343614511294916
10
-158.60945779853955
20
-82.644614511296211
10
-170.60745779853903
20
-82.644614511296211
10
-171.9084577985403
20
-81.343614511294916
0
LWPOLYLINE
5
168
100
AcDbEntity
8
0
100
AcDbPolyline
90
8
70
1
43
0.0
10
-267.15845779854027
20
-69.945614511295716
10
-265.85745779853892
20
-68.644614511296226
10
-253.85945779853949
20
-68.644614511296226
10
-252.55845779853991
20
-69.945614511295716
10
-252.55845779853991
20
-81.343614511294916
10
-253.85945779853949
20
-82.644614511296211
10
-265.85745779853892
20
-82.644614511296211
10
-267.15845779854027
20
-81.343614511294916
0
LWPOLYLINE
5
169
100
AcDbEntity
8
0
100
AcDbPolyline
90
8
70
1
43
0.0
10
-62.05845779854009
20
-69.945614511295688
10
-62.05845779854009
20
-81.343614511294874
10
-63.35945779853958
20
-82.644614511296183
10
-75.357457798539087
20
-82.644614511296183
10
-76.658457798540368
20
-81.343614511294874
10
-76.658457798540368
20
-69.945614511295688
10
-75.357457798539087
20
-68.644614511296197
10
-63.35945779853958
20
-68.644614511296197
0
LWPOLYLINE
5
170
100
AcDbEntity
8
0
100
AcDbPolyline
90
8
70
1
43
0.0
10
-289.66995779853897
20
-82.644614511296211
10
-290.97095779854033
20
-81.343614511294916
10
-290.97095779854033
20
-69.945614511295716
10
-289.66995779853897
20
-68.644614511296226
10
-277.67195779853949
20
-68.644614511296226
10
-276.37095779853996
20
-69.945614511295716
10
-276.37095779853996
20
-81.343614511294916
10
-277.67195779853949
20
-82.644614511296211
0
LWPOLYLINE
5
171
100
AcDbEntity
8
0
100
AcDbPolyline
90
8
70
1
43
0.0
10
-234.80945779854017
20
-68.644614511296226
10
-233.50845779853884
20
-69.945614511295716
10
-233.50845779853884
20
-81.343614511294916
10
-234.80945779854017
20
-82.644614511296211
10
-246.80745779853979
20
-82.644614511296211
10
-248.10845779853929
20
-81.343614511294916
10
-248.10845779853929
20
-69.945614511295716
10
-246.80745779853979
20
-68.644614511296226
0
CIRCLE
5
172
100
AcDbEntity
8
0
100
AcDbCircle
10
-272.68545779854037
20
-75.982614511296006
30
0
40
0.81150000000000944
210
0
220
-0
230
1
0
CIRCLE
5
173
100
AcDbEntity
8
0
100
AcDbCircle
10
-231.28345779854021
20
-75.644614511296226
30
0
40
0.81150000000000944
210
0
220
-0
230
1
0
LWPOLYLINE
5
174
100
AcDbEntity
8
0
100
AcDbPolyline
90
8
70
1
43
0.0
10
-100.15845779854031
20
-81.343614511294916
10
-101.45945779853983
20
-82.644614511296211
10
-113.45745779853941
20
-82.644614511296211
10
-114.75845779853893
20
-81.343614511294916
10
-114.75845779853893
20
-69.945614511295716
10
-113.45745779853941
20
-68.644614511296226
10
-101.45945779853983
20
-68.644614511296226
10
-100.15845779854031
20
-69.945614511295716
0
LWPOLYLINE
5
175
100
AcDbEntity
8
0
100
AcDbPolyline
90
8
70
1
43
0.0
10
-44.309457798540279
20
-68.644614511296197
10
-43.008457798539013
20
-69.945614511295688
10
-43.008457798539013
20
-81.343614511294874
10
-44.309457798540279
20
-82.644614511296183
10
-56.307457798539872
20
-82.644614511296183
10
-57.608457798539376
20
-81.343614511294874
10
-57.608457798539376
20
-69.945614511295688
10
-56.307457798539872
20
-68.644614511296197
0
CIRCLE
5
176
100
AcDbEntity
8
0
100
AcDbCircle
10
-164.60845779853926
20
-94.694614511295526
30
0
40
0.81150000000000944
210
0
220
-0
230
1
0
LWPOLYLINE
5
177
100
AcDbEntity
8
0
100
AcDbPolyline
90
8
70
1
43
0.0
10
-139.55945779854022
20
-68.644614511296226
10
-138.2584577985389
20
-69.945614511295716
10
-138.2584577985389
20
-81.343614511294916
10
-139.55945779854022
20
-82.644614511296211
10
-151.55745779853982
20
-82.644614511296211
10
-152.85845779853932
20
-81.343614511294916
10
-152.85845779853932
20
-69.945614511295716
10
-151.55745779853982
20
-68.644614511296226
0
LWPOLYLINE
5
178
100
AcDbEntity
8
0
100
AcDbPolyline
90
8
70
1
43
0.0
10
-168.13445779853907
20
-87.694614511295526
10
-166.8334577985396
20
-88.995614511295017
10
-166.8334577985396
20
-100.39361451129602
10
-168.13445779853907
20
-101.69461451129551
10
-180.13245779854054
20
-101.69461451129551
10
-181.43345779854002
20
-100.39361451129602
10
-181.43345779854002
20
-88.995614511295017
10
-180.13245779854054
20
-87.694614511295526
0
CIRCLE
5
179
100
AcDbEntity
8
0
100
AcDbCircle
10
-140.79595779853935
20
-56.894614511296226
30
0
40
0.81149999999999167
210
0
220
-0
230
1
0
CIRCLE
5
180
100
AcDbEntity
8
0
100
AcDbCircle
10
-116.98345779853932
20
-75.644614511296226
30
0
40
0.81149999999999167
210
0
220
-0
230
1
0
LWPOLYLINE
5
181
100
AcDbEntity
8
0
100
AcDbPolyline
90
8
70
1
43
0.0
10
-199.18245779853976
20
-101.69461451129551
10
-200.48345779853932
20
-100.39361451129602
10
-200.48345779853932
20
-88.995614511295017
10
-199.18245779853976
20
-87.694614511295526
10
-187.18445779854017
20
-87.694614511295526
10
-185.88345779853887
20
-88.995614511295017
10
-185.88345779853887
20
-100.39361451129602
10
-187.18445779854017
20
-101.69461451129551
0
LWPOLYLINE
5
182
100
AcDbEntity
8
0
100
AcDbPolyline
90
8
70
1
43
0.0
10
-237.28245779854007
20
-87.694614511295526
10
-225.28445779854047
20
-87.694614511295526
10
-223.98345779853935
20
-88.995614511295017
10
-223.98345779853935
20
-100.39361451129602
10
-225.28445779854047
20
-101.69461451129551
10
-237.28245779854007
20
-101.69461451129551
10
-238.58345779853954
20
-100.39361451129602
10
-238.58345779853954
20
-88.995614511295017
0
LWPOLYLINE
5
183
100
AcDbEntity
8
0
100
AcDbPolyline
90
8
70
1
43
0.0
10
-133.80845779854005
20
-69.945614511295716
10
-132.50745779854054
20
-68.644614511296226
10
-120.50945779853913
20
-68.644614511296226
10
-119.20845779853964
20
-69.945614511295716
10
-119.20845779853964
20
-81.343614511294916
10
-120.50945779853913
20
-82.644614511296211
10
-132.50745779854054
20
-82.644614511296211
10
-133.80845779854005
20
-81.343614511294916
0
CIRCLE
5
184
100
AcDbEntity
8
0
100
AcDbCircle
10
-78.883457798538956
20
-75.644614511296183
30
0
40
0.81150000000000055
210
0
220
-0
230
1
0
CIRCLE
5
185
100
AcDbEntity
8
0
100
AcDbCircle
10
-155.08345779853965
20
-75.644614511296226
30
0
40
0.81149999999999167
210
0
220
-0
230
1
0
LWPOLYLINE
5
186
100
AcDbEntity
8
0
100
AcDbPolyline
90
8
70
1
43
0.0
10
-218.23245779853897
20
-101.69461451129551
10
-219.53345779854027
20
-100.39361451129602
10
-219.53345779854027
20
-88.995614511295017
10
-218.23245779853897
20
-87.694614511295526
10
-206.23445779853952
20
-87.694614511295526
10
-204.93345779853996
20
-88.995614511295017
10
-204.93345779853996
20
-100.39361451129602
10
-206.23445779853952
20
-101.69461451129551
0
LWPOLYLINE
5
187
100
AcDbEntity
8
0
100
AcDbPolyline
90
8
70
1
43
0.0
10
-281.13345779853887
20
-31.845614511295359
10
-281.13345779853887
20
-43.243614511296471
10
-282.43445779854017
20
-44.544614511295975
10
-294.43245779853982
20
-44.544614511295975
10
-295.73345779853929
20
-43.243614511296471
10
-295.73345779853929
20
-31.845614511295359
10
-294.43245779853982
20
-30.544614511295958
10
-282.43445779854017
20
-30.544614511295958
0
LWPOLYLINE
5
188
100
AcDbEntity
8
0
100
AcDbPolyline
90
8
70
1
43
0.0
10
-257.63345779853887
20
-100.39361451129602
10
-257.63345779853887
20
-88.995614511295017
10
-256.33245779853939
20
-87.694614511295526
10
-244.33445779853974
20
-87.694614511295526
10
-243.03345779854027
20
-88.995614511295017
10
-243.03345779854027
20
-100.39361451129602
10
-244.33445779853974
20
-101.69461451129551
10
-256.33245779853939
20
-101.69461451129551
0
LWPOLYLINE
5
189
100
AcDbEntity
8
0
100
AcDbPolyline
90
6
70
1
43
0.0
10
-262.90845779854021
20
-101.69461451129551
10
-294.90845779854027
20
-101.69461451129551
10
-294.90845779854027
20
-89.426614511295512
10
-291.90845779854033
20
-87.694614511295526
10
-265.90845779854027
20
-87.694614511295526
10
-262.90845779854021
20
-89.426614511295512
0
CIRCLE
5
190
100
AcDbEntity
8
0
100
AcDbCircle
10
-202.70845779853965
20
-94.694614511295526
30
0
40
0.81150000000000944
210
0
220
-0
230
1
0
LWPOLYLINE
5
191
100
AcDbEntity
8
0
100
AcDbPolyline
90
8
70
1
43
0.0
10
-243.34595779854027
20
-43.243614511296471
10
-243.34595779854027
20
-31.845614511295359
10
-242.044957798539
20
-30.544614511295958
10
-230.04695779853955
20
-30.544614511295958
10
-228.74595779853996
20
-31.845614511295359
10
-228.74595779853996
20
-43.243614511296471
10
-230.04695779853955
20
-44.544614511295975
10
-242.044957798539
20
-44.544614511295975
0
CIRCLE
5
192
100
AcDbEntity
8
0
100
AcDbCircle
10
-31.258457798539901
20
-106.89457657430691
30
0
40
0.99999999999999645
210
0
220
-0
230
1
0
CIRCLE
5
193
100
AcDbEntity
8
0
100
AcDbCircle
10
-259.85845722905304
20
-5.2945945080959405
30
0
40
1.0000000000000142
210
0
220
-0
230
1
0
CIRCLE
5
194
100
AcDbEntity
8
0
100
AcDbCircle
10
-145.55845779853999
20
-106.89459284216613
30
0
40
0.99999999999999645
210
0
220
-0
230
1
0
CIRCLE
5
195
100
AcDbEntity
8
0
100
AcDbCircle
10
-278.90845779854027
20
-106.89459451449609
30
0
40
0.99999999999997868
210
0
220
-0
230
1
0
CIRCLE
5
196
100
AcDbEntity
8
0
100
AcDbCircle
10
-50.308457229053957
20
-5.294609425072978
30
0
40
0.99999999999999645
210
0
220
-0
230
1
0
LWPOLYLINE
5
197
100
AcDbEntity
8
0
100
AcDbPolyline
90
38
70
1
43
0.0
10
-12.583429555644837
20
-101.89457423304056
10
-12.583429555644834
20
-11.294574220152782
42
0.4142135623730937
10
-14.583429555644827
20
-9.294574220152791
10
-46.958457570740606
20
-9.2945742201527892
42
-0.41421360407274888
10
-48.558457570740572
20
-7.6945739923583369
10
-48.558457229053964
20
-5.2946096742231594
42
0.99999999999999989
10
-52.058457229053936
20
-5.2946091759227967
10
-52.058457570740664
20
-7.6945744479472422
42
-0.4142135206734408
10
-53.658457570740659
20
-9.294574220152791
10
-256.50845757074183
20
-9.2945742201528141
42
-0.41421360407275276
10
-258.10845757074179
20
-7.6945739923583396
10
-258.1084572290531
20
-5.2945947572461289
42
0.99999999999999989
10
-261.6084572290531
20
-5.2945942589457502
10
-261.6084575707419
20
-7.6945744479472511
42
-0.41421352067343864
10
-263.20845757074187
20
-9.2945742201527963
10
-295.58345379853978
20
-9.2945742201527963
42
0.4142135623730947
10
-297.58345379853978
20
-11.2945742201528
10
-297.58345379853978
20
-101.89457423304056
42
0.41421356237309764
10
-295.58345379853972
20
-103.89457423304057
10
-282.25845779854023
20
-103.89457423304054
42
-0.41421356237309503
10
-280.65845779854027
20
-105.49457423304055
10
-280.65845779854027
20
-106.89459451449609
42
0.99999999999999989
10
-277.15845779854027
20
-106.89459451449609
10
-277.15845779854027
20
-105.49457423304055
42
-0.41421356237309503
10
-275.55845779854025
20
-103.89457423304054
10
-148.90845779854001
20
-103.89457423304054
42
-0.41421356237309503
10
-147.30845779854002
20
-105.49457423304055
10
-147.30845779854002
20
-106.89459284216613
42
0.99999999999999989
10
-143.80845779853999
20
-106.89459284216613
10
-143.80845779853999
20
-105.49457423304055
42
-0.41421356237309503
10
-142.20845779854
20
-103.89457423304054
10
-34.608457798539902
20
-103.89457423304054
42
-0.41421356237309503
10
-33.008457798539901
20
-105.49457423304055
10
-33.008457798539901
20
-106.89457657430691
42
0.99999999999999989
10
-29.508457798539904
20
-106.89457657430691
10
-29.508457798539904
20
-105.49457423304055
42
-0.41421356237309503
10
-27.908457798539903
20
-103.89457423304054
10
-14.583429555644834
20
-103.89457423304054
42
0.41421356237309537
0
LWPOLYLINE
5
198
100
AcDbEntity
8
0
100
AcDbPolyline
90
8
70
1
43
0.0
10
-133.80845779854005
20
-81.343614511294916
10
-133.80845779854005
20
-69.945614511295716
10
-132.50745779854054
20
-68.644614511296226
10
-120.50945779853913
20
-68.644614511296226
10
-119.20845779853964
20
-69.945614511295716
10
-119.20845779853964
20
-81.343614511294916
10
-120.50945779853913
20
-82.644614511296211
10
-132.50745779854054
20
-82.644614511296211
0
LWPOLYLINE
5
199
100
AcDbEntity
8
0
100
AcDbPolyline
90
8
70
1
43
0.0
10
-119.52095779853968
20
-62.293614511295736
10
-119.52095779853968
20
-50.895614511296436
10
-118.21995779854019
20
-49.59461451129512
10
-106.22195779854059
20
-49.59461451129512
10
-104.92095779853939
20
-50.895614511296436
10
-104.92095779853939
20
-62.293614511295736
10
-106.22195779854059
20
-63.594614511295106
10
-118.21995779854019
20
-63.594614511295106
0
LWPOLYLINE
5
200
100
AcDbEntity
8
0
100
AcDbPolyline
90
8
70
1
43
0.0
10
-147.78345779854038
20
-12.795614511296147
10
-147.78345779854038
20
-24.19361451129534
10
-149.08445779853986
20
-25.494614511294831
10
-161.08245779853945
20
-25.494614511294831
10
-162.38345779853893
20
-24.19361451129534
10
-162.38345779853893
20
-12.795614511296147
10
-161.08245779853945
20
-11.494614511294845
10
-149.08445779853986
20
-11.494614511294845
0
LWPOLYLINE
5
201
100
AcDbEntity
8
0
100
AcDbPolyline
90
8
70
1
43
0.0
10
-68.121957798540251
20
-49.59461451129512
10
-66.820957798538984
20
-50.895614511296436
10
-66.820957798538984
20
-62.293614511295736
10
-68.121957798540251
20
-63.594614511295106
10
-80.119957798539886
20
-63.594614511295106
10
-81.420957798539391
20
-62.293614511295736
10
-81.420957798539391
20
-50.895614511296436
10
-80.119957798539886
20
-49.59461451129512
0
LWPOLYLINE
5
202
100
AcDbEntity
8
0
100
AcDbPolyline
90
8
70
1
43
0.0
10
-228.74595779853996
20
-43.243614511296471
10
-230.04695779853955
20
-44.544614511295975
10
-242.044957798539
20
-44.544614511295975
10
-243.34595779854027
20
-43.243614511296471
10
-243.34595779854027
20
-31.845614511295359
10
-242.044957798539
20
-30.544614511295958
10
-230.04695779853955
20
-30.544614511295958
10
-228.74595779853996
20
-31.845614511295359
0
LWPOLYLINE
5
203
100
AcDbEntity
8
0
100
AcDbPolyline
90
8
70
1
43
0.0
10
-134.79695779853958
20
-44.544614511295961
10
-146.79495779853912
20
-44.544614511295961
10
-148.09595779854038
20
-43.243614511296457
10
-148.09595779854038
20
-31.845614511295341
10
-146.79495779853912
20
-30.54461451129594
10
-134.79695779853958
20
-30.54461451129594
10
-133.49595779854008
20
-31.845614511295341
10
-133.49595779854008
20
-43.243614511296457
0
CIRCLE
5
204
100
AcDbEntity
8
0
100
AcDbCircle
10
-140.79595779853935
20
-56.894614511296226
30
0
40
0.81149999999999167
210
0
220
-0
230
1
0
LWPOLYLINE
5
205
100
AcDbEntity
8
0
100
AcDbPolyline
90
8
70
1
43
0.0
10
-253.85945779853949
20
-82.644614511296211
10
-265.85745779853892
20
-82.644614511296211
10
-267.15845779854027
20
-81.343614511294916
10
-267.15845779854027
20
-69.945614511295716
10
-265.85745779853892
20
-68.644614511296226
10
-253.85945779853949
20
-68.644614511296226
10
-252.55845779853991
20
-69.945614511295716
10
-252.55845779853991
20
-81.343614511294916
0
LWPOLYLINE
5
206
100
AcDbEntity
8
0
100
AcDbPolyline
90
8
70
1
43
0.0
10
-138.2584577985389
20
-69.945614511295716
10
-138.2584577985389
20
-81.343614511294916
10
-139.55945779854022
20
-82.644614511296211
10
-151.55745779853982
20
-82.644614511296211
10
-152.85845779853932
20
-81.343614511294916
10
-152.85845779853932
20
-69.945614511295716
10
-151.55745779853982
20
-68.644614511296226
10
-139.55945779854022
20
-68.644614511296226
0
LWPOLYLINE
5
207
100
AcDbEntity
8
0
100
AcDbPolyline
90
8
70
1
43
0.0
10
-114.75845779853893
20
-81.343614511294916
10
-114.75845779853893
20
-69.945614511295716
10
-113.45745779853941
20
-68.644614511296226
10
-101.45945779853983
20
-68.644614511296226
10
-100.15845779854031
20
-69.945614511295716
10
-100.15845779854031
20
-81.343614511294916
10
-101.45945779853983
20
-82.644614511296211
10
-113.45745779853941
20
-82.644614511296211
0
LWPOLYLINE
5
208
100
AcDbEntity
8
0
100
AcDbPolyline
90
8
70
1
43
0.0
10
-219.22095779854033
20
-50.895614511296458
10
-219.22095779854033
20
-62.293614511295758
10
-220.5219577985398
20
-63.59461451129512
10
-232.51995779853942
20
-63.59461451129512
10
-233.82095779853893
20
-62.293614511295758
10
-233.82095779853893
20
-50.895614511296458
10
-232.51995779853942
20
-49.594614511295134
10
-220.5219577985398
20
-49.594614511295134
0
LWPOLYLINE
5
209
100
AcDbEntity
8
0
100
AcDbPolyline
90
8
70
1
43
0.0
10
-114.44595779853897
20
-43.243614511296457
10
-115.74695779854024
20
-44.544614511295961
10
-127.74495779853984
20
-44.544614511295961
10
-129.04595779853932
20
-43.243614511296457
10
-129.04595779853932
20
-31.845614511295341
10
-127.74495779853984
20
-30.54461451129594
10
-115.74695779854024
20
-30.54461451129594
10
-114.44595779853897
20
-31.845614511295341
0
LWPOLYLINE
5
210
100
AcDbEntity
8
0
100
AcDbPolyline
90
8
70
1
43
0.0
10
-184.89495779853939
20
-44.544614511295975
10
-186.19595779853896
20
-43.243614511296471
10
-186.19595779853896
20
-31.845614511295359
10
-184.89495779853939
20
-30.544614511295958
10
-172.89695779853986
20
-30.54461451129594
10
-171.59595779854038
20
-31.845614511295341
10
-171.59595779854038
20
-43.243614511296457
10
-172.89695779853986
20
-44.544614511295961
0
LWPOLYLINE
5
211
100
AcDbEntity
8
0
100
AcDbPolyline
90
8
70
1
43
0.0
10
-195.40845779854033
20
-69.945614511295716
10
-195.40845779854033
20
-81.343614511294916
10
-196.70945779853974
20
-82.644614511296211
10
-208.70745779853939
20
-82.644614511296211
10
-210.0084577985389
20
-81.343614511294916
10
-210.0084577985389
20
-69.945614511295716
10
-208.70745779853939
20
-68.644614511296226
10
-196.70945779853974
20
-68.644614511296226
0
LWPOLYLINE
5
212
100
AcDbEntity
8
0
100
AcDbPolyline
90
8
70
1
43
0.0
10
-138.57095779853896
20
-62.293614511295736
10
-138.57095779853896
20
-50.895614511296436
10
-137.26995779853945
20
-49.59461451129512
10
-125.27195779853984
20
-49.59461451129512
10
-123.9709577985404
20
-50.895614511296436
10
-123.9709577985404
20
-62.293614511295736
10
-125.27195779853984
20
-63.594614511295106
10
-137.26995779853945
20
-63.594614511295106
0
LWPOLYLINE
5
213
100
AcDbEntity
8
0
100
AcDbPolyline
90
8
70
1
43
0.0
10
-100.47095779854034
20
-50.895614511296436
10
-99.169957798539073
20
-49.59461451129512
10
-87.17195779853958
20
-49.59461451129512
10
-85.870957798540076
20
-50.895614511296436
10
-85.870957798540076
20
-62.293614511295736
10
-87.17195779853958
20
-63.594614511295106
10
-99.169957798539073
20
-63.594614511295106
10
-100.47095779854034
20
-62.293614511295736
0
LWPOLYLINE
5
214
100
AcDbEntity
8
0
100
AcDbPolyline
90
8
70
1
43
0.0
10
-239.57195779853913
20
-63.59461451129512
10
-251.56995779854049
20
-63.59461451129512
10
-252.87095779853999
20
-62.293614511295758
10
-252.87095779853999
20
-50.895614511296458
10
-251.56995779854049
20
-49.594614511295134
10
-239.57195779853913
20
-49.594614511295134
10
-238.27095779853954
20
-50.895614511296458
10
-238.27095779853954
20
-62.293614511295758
0
LWPOLYLINE
5
215
100
AcDbEntity
8
0
100
AcDbPolyline
90
8
70
1
43
0.0
10
-89.644957798539451
20
-44.544614511295961
10
-90.945957798538956
20
-43.243614511296457
10
-90.945957798538956
20
-31.845614511295341
10
-89.644957798539451
20
-30.54461451129594
10
-77.646957798539873
20
-30.54461451129594
10
-76.345957798540368
20
-31.845614511295341
10
-76.345957798540368
20
-43.243614511296457
10
-77.646957798539873
20
-44.544614511295961
0
LWPOLYLINE
5
216
100
AcDbEntity
8
0
100
AcDbPolyline
90
8
70
1
43
0.0
10
-195.72095779854038
20
-50.895614511296458
10
-194.41995779853903
20
-49.594614511295134
10
-182.42195779853958
20
-49.594614511295134
10
-181.12095779854002
20
-50.895614511296458
10
-181.12095779854002
20
-62.293614511295758
10
-182.42195779853958
20
-63.59461451129512
10
-194.41995779853903
20
-63.59461451129512
10
-195.72095779854038
20
-62.293614511295758
0
LWPOLYLINE
5
217
100
AcDbEntity
8
0
100
AcDbPolyline
90
8
70
1
43
0.0
10
-289.66995779853897
20
-82.644614511296211
10
-290.97095779854033
20
-81.343614511294916
10
-290.97095779854033
20
-69.945614511295716
10
-289.66995779853897
20
-68.644614511296226
10
-277.67195779853949
20
-68.644614511296226
10
-276.37095779853996
20
-69.945614511295716
10
-276.37095779853996
20
-81.343614511294916
10
-277.67195779853949
20
-82.644614511296211
0
LWPOLYLINE
5
218
100
AcDbEntity
8
0
100
AcDbPolyline
90
8
70
1
43
0.0
10
-214.77095779853968
20
-62.293614511295758
10
-214.77095779853968
20
-50.895614511296458
10
-213.46995779854018
20
-49.594614511295134
10
-201.47195779854053
20
-49.594614511295134
10
-200.17095779853932
20
-50.895614511296458
10
-200.17095779853932
20
-62.293614511295758
10
-201.47195779854053
20
-63.59461451129512
10
-213.46995779854018
20
-63.59461451129512
0
LWPOLYLINE
5
219
100
AcDbEntity
8
0
100
AcDbPolyline
90
8
70
1
43
0.0
10
-143.02095779853968
20
-62.293614511295736
10
-144.32195779853916
20
-63.594614511295106
10
-156.31995779854057
20
-63.594614511295106
10
-157.6209577985401
20
-62.293614511295736
10
-157.6209577985401
20
-50.895614511296436
10
-156.31995779854057
20
-49.59461451129512
10
-144.32195779853916
20
-49.59461451129512
10
-143.02095779853968
20
-50.895614511296436
0
LWPOLYLINE
5
220
100
AcDbEntity
8
0
100
AcDbPolyline
90
8
70
1
43
0.0
10
-190.9584577985396
20
-69.945614511295716
10
-189.65745779854012
20
-68.644614511296226
10
-177.6594577985405
20
-68.644614511296226
10
-176.35845779853929
20
-69.945614511295716
10
-176.35845779853929
20
-81.343614511294916
10
-177.6594577985405
20
-82.644614511296211
10
-189.65745779854012
20
-82.644614511296211
10
-190.9584577985396
20
-81.343614511294916
0
LWPOLYLINE
5
221
100
AcDbEntity
8
0
100
AcDbPolyline
90
8
70
1
43
0.0
10
-229.05845779853996
20
-81.343614511294916
10
-229.05845779853996
20
-69.945614511295716
10
-227.75745779854049
20
-68.644614511296226
10
-215.7594577985391
20
-68.644614511296226
10
-214.4584577985396
20
-69.945614511295716
10
-214.4584577985396
20
-81.343614511294916
10
-215.7594577985391
20
-82.644614511296211
10
-227.75745779854049
20
-82.644614511296211
0
LWPOLYLINE
5
222
100
AcDbEntity
8
0
100
AcDbPolyline
90
6
70
1
43
0.0
10
-260.52720779853996
20
-63.59461451129512
10
-292.52720779853996
20
-63.59461451129512
10
-292.52720779853996
20
-51.326614511295134
10
-289.52720779853996
20
-49.594614511295134
10
-263.52720779853996
20
-49.594614511295134
10
-260.52720779853996
20
-51.326614511295134
0
CIRCLE
5
223
100
AcDbEntity
8
0
100
AcDbCircle
10
-193.18345779853999
20
-75.644614511296226
30
0
40
0.81150000000000944
210
0
220
-0
230
1
0
LWPOLYLINE
5
224
100
AcDbEntity
8
0
100
AcDbPolyline
90
8
70
1
43
0.0
10
-210.99695779854022
20
-44.544614511295975
10
-222.99495779853984
20
-44.544614511295975
10
-224.29595779853935
20
-43.243614511296471
10
-224.29595779853935
20
-31.845614511295359
10
-222.99495779853984
20
-30.544614511295958
10
-210.99695779854022
20
-30.544614511295958
10
-209.6959577985389
20
-31.845614511295359
10
-209.6959577985389
20
-43.243614511296471
0
LWPOLYLINE
5
225
100
AcDbEntity
8
0
100
AcDbPolyline
90
8
70
1
43
0.0
10
-105.23345779853935
20
-100.39361451129602
10
-105.23345779853935
20
-88.995614511295017
10
-103.93245779853983
20
-87.694614511295526
10
-91.934457798540251
20
-87.694614511295498
10
-90.633457798538956
20
-88.995614511294988
10
-90.633457798538956
20
-100.39361451129599
10
-91.934457798540251
20
-101.69461451129548
10
-103.93245779853983
20
-101.69461451129551
0
CIRCLE
5
226
100
AcDbEntity
8
0
100
AcDbCircle
10
-102.69595779853896
20
-56.594614511295092
30
0
40
0.81149999999999167
210
0
220
-0
230
1
0
CIRCLE
5
227
100
AcDbEntity
8
0
100
AcDbCircle
10
-216.99595779854002
20
-56.594614511295106
30
0
40
0.81150000000000944
210
0
220
-0
230
1
0
LWPOLYLINE
5
228
100
AcDbEntity
8
0
100
AcDbPolyline
90
8
70
1
43
0.0
10
-248.10845779853929
20
-69.945614511295716
10
-246.80745779853979
20
-68.644614511296226
10
-234.80945779854017
20
-68.644614511296226
10
-233.50845779853884
20
-69.945614511295716
10
-233.50845779853884
20
-81.343614511294916
10
-234.80945779854017
20
-82.644614511296211
10
-246.80745779853979
20
-82.644614511296211
10
-248.10845779853929
20
-81.343614511294916
0
LWPOLYLINE
5
229
100
AcDbEntity
8
0
100
AcDbPolyline
90
8
70
1
43
0.0
10
-95.395957798539683
20
-31.845614511295341
10
-95.395957798539683
20
-43.243614511296457
10
-96.696957798539188
20
-44.544614511295961
10
-108.69495779854061
20
-44.544614511295961
10
-109.99595779854006
20
-43.243614511296457
10
-109.99595779854006
20
-31.845614511295341
10
-108.69495779854061
20
-30.54461451129594
10
-96.696957798539188
20
-30.54461451129594
0
LWPOLYLINE
5
230
100
AcDbEntity
8
0
100
AcDbPolyline
90
8
70
1
43
0.0
10
-95.708457798539683
20
-81.343614511294874
10
-95.708457798539683
20
-69.945614511295688
10
-94.407457798540179
20
-68.644614511296197
10
-82.4094577985406
20
-68.644614511296197
10
-81.108457798539391
20
-69.945614511295688
10
-81.108457798539391
20
-81.343614511294874
10
-82.4094577985406
20
-82.644614511296183
10
-94.407457798540179
20
-82.644614511296183
0
LWPOLYLINE
5
231
100
AcDbEntity
8
0
100
AcDbPolyline
90
8
70
1
43
0.0
10
-203.94495779854054
20
-44.544614511295975
10
-205.24595779854002
20
-43.243614511296471
10
-205.24595779854002
20
-31.845614511295359
10
-203.94495779854054
20
-30.544614511295958
10
-191.94695779853916
20
-30.544614511295958
10
-190.64595779853965
20
-31.845614511295359
10
-190.64595779853965
20
-43.243614511296471
10
-191.94695779853916
20
-44.544614511295975
0
CIRCLE
5
232
100
AcDbEntity
8
0
100
AcDbCircle
10
-116.98345779853932
20
-75.644614511296226
30
0
40
0.81149999999999167
210
0
220
-0
230
1
0
CIRCLE
5
233
100
AcDbEntity
8
0
100
AcDbCircle
10
-272.68545779854037
20
-75.982614511296006
30
0
40
0.81150000000000944
210
0
220
-0
230
1
0
LWPOLYLINE
5
234
100
AcDbEntity
8
0
100
AcDbPolyline
90
8
70
1
43
0.0
10
-109.68345779854003
20
-88.995614511295017
10
-109.68345779854003
20
-100.39361451129602
10
-110.98445779853955
20
-101.69461451129551
10
-122.98245779853906
20
-101.69461451129551
10
-124.28345779854035
20
-100.39361451129602
10
-124.28345779854035
20
-88.995614511295017
10
-122.98245779853906
20
-87.694614511295526
10
-110.98445779853955
20
-87.694614511295526
0
LWPOLYLINE
5
235
100
AcDbEntity
8
0
100
AcDbPolyline
90
8
70
1
43
0.0
10
-205.50245779853952
20
-24.857114511295961
10
-206.01045779853933
20
-25.365114511295754
10
-218.45645779853925
20
-25.365114511295754
10
-218.96445779853906
20
-24.857114511295961
10
-218.96445779853906
20
-12.132114511295562
10
-218.45645779853925
20
-11.624114511295769
10
-206.01045779853933
20
-11.624114511295769
10
-205.50245779853952
20
-12.132114511295562
0
LWPOLYLINE
5
236
100
AcDbEntity
8
0
100
AcDbPolyline
90
8
70
1
43
0.0
10
-238.58345779853954
20
-88.995614511295017
10
-237.28245779854007
20
-87.694614511295526
10
-225.28445779854047
20
-87.694614511295526
10
-223.98345779853935
20
-88.995614511295017
10
-223.98345779853935
20
-100.39361451129602
10
-225.28445779854047
20
-101.69461451129551
10
-237.28245779854007
20
-101.69461451129551
10
-238.58345779853954
20
-100.39361451129602
0
CIRCLE
5
237
100
AcDbEntity
8
0
100
AcDbCircle
10
-231.28345779854021
20
-75.644614511296226
30
0
40
0.81150000000000944
210
0
220
-0
230
1
0
LWPOLYLINE
5
238
100
AcDbEntity
8
0
100
AcDbPolyline
90
6
70
1
43
0.0
10
-265.90845779854027
20
-87.694614511295526
10
-262.90845779854021
20
-89.426614511295512
10
-262.90845779854021
20
-101.69461451129551
10
-294.90845779854027
20
-101.69461451129551
10
-294.90845779854027
20
-89.426614511295512
10
-291.90845779854033
20
-87.694614511295526
0
CIRCLE
5
239
100
AcDbEntity
8
0
100
AcDbCircle
10
-93.170957798539376
20
-37.544614511295947
30
0
40
0.81149999999999167
210
0
220
-0
230
1
0
CIRCLE
5
240
100
AcDbEntity
8
0
100
AcDbCircle
10
-255.09595779854033
20
-56.594614511295106
30
0
40
0.81150000000000944
210
0
220
-0
230
1
0
LWPOLYLINE
5
241
100
AcDbEntity
8
0
100
AcDbPolyline
90
8
70
1
43
0.0
10
-268.23870779853939
20
-44.544614511295975
10
-269.53970779853887
20
-43.243614511296471
10
-269.53970779853887
20
-31.845614511295359
10
-268.23870779853939
20
-30.544614511295958
10
-256.2407077985398
20
-30.544614511295958
10
-254.93970779854033
20
-31.845614511295359
10
-254.93970779854033
20
-43.243614511296471
10
-256.2407077985398
20
-44.544614511295975
0
LWPOLYLINE
5
242
100
AcDbEntity
8
0
100
AcDbPolyline
90
8
70
1
43
0.0
10
-282.43445779854017
20
-44.544614511295975
10
-294.43245779853982
20
-44.544614511295975
10
-295.73345779853929
20
-43.243614511296471
10
-295.73345779853929
20
-31.845614511295359
10
-294.43245779853982
20
-30.544614511295958
10
-282.43445779854017
20
-30.544614511295958
10
-281.13345779853887
20
-31.845614511295359
10
-281.13345779853887
20
-43.243614511296471
0
LWPOLYLINE
5
243
100
AcDbEntity
8
0
100
AcDbPolyline
90
8
70
1
43
0.0
10
-81.420957798539391
20
-24.19361451129534
10
-81.420957798539391
20
-12.795614511296147
10
-80.119957798539886
20
-11.494614511294845
10
-68.121957798540251
20
-11.494614511294845
10
-66.820957798538984
20
-12.795614511296147
10
-66.820957798538984
20
-24.19361451129534
10
-68.121957798540251
20
-25.494614511294831
10
-80.119957798539886
20
-25.494614511294831
0
LWPOLYLINE
5
244
100
AcDbEntity
8
0
100
AcDbPolyline
90
8
70
1
43
0.0
10
-130.03445779854053
20
-101.69461451129551
10
-142.03245779854012
20
-101.69461451129551
10
-143.33345779853965
20
-100.39361451129602
10
-143.33345779853965
20
-88.995614511295017
10
-142.03245779854012
20
-87.694614511295526
10
-130.03445779854053
20
-87.694614511295526
10
-128.73345779853929
20
-88.995614511295017
10
-128.73345779853929
20
-100.39361451129602
0
CIRCLE
5
245
100
AcDbEntity
8
0
100
AcDbCircle
10
-278.90845779854027
20
-106.89459451449609
30
0
40
0.99999999999997868
210
0
220
-0
230
1
0
LWPOLYLINE
5
246
100
AcDbEntity
8
0
100
AcDbPolyline
90
8
70
1
43
0.0
10
-147.78345779854033
20
-88.995614511295017
10
-147.78345779854033
20
-100.39361451129602
10
-149.08445779853983
20
-101.69461451129551
10
-161.08245779853945
20
-101.69461451129551
10
-162.38345779853893
20
-100.39361451129602
10
-162.38345779853893
20
-88.995614511295017
10
-161.08245779853945
20
-87.694614511295526
10
-149.08445779853983
20
-87.694614511295526
0
LWPOLYLINE
5
247
100
AcDbEntity
8
0
100
AcDbPolyline
90
8
70
1
43
0.0
10
-84.882457798540599
20
-101.69461451129548
10
-86.183457798540076
20
-100.39361451129599
10
-86.183457798540076
20
-88.995614511294988
10
-84.882457798540599
20
-87.694614511295498
10
-72.884457798539188
20
-87.694614511295498
10
-71.583457798539712
20
-88.995614511294988
10
-71.583457798539712
20
-100.39361451129599
10
-72.884457798539188
20
-101.69461451129548
0
LWPOLYLINE
5
248
100
AcDbEntity
8
0
100
AcDbPolyline
90
8
70
1
43
0.0
10
-104.66445779853976
20
-24.857114511295944
10
-104.66445779853976
20
-12.132114511295544
10
-104.15645779853995
20
-11.624114511295751
10
-91.710457798540062
20
-11.624114511295751
10
-91.202457798540252
20
-12.132114511295544
10
-91.202457798540252
20
-24.857114511295944
10
-91.710457798540062
20
-25.365114511295737
10
-104.15645779853995
20
-25.365114511295737
0
LWPOLYLINE
5
249
100
AcDbEntity
8
0
100
AcDbPolyline
90
8
70
1
43
0.0
10
-170.60745779853903
20
-82.644614511296211
10
-171.9084577985403
20
-81.343614511294916
10
-171.9084577985403
20
-69.945614511295716
10
-170.60745779853903
20
-68.644614511296226
10
-158.60945779853955
20
-68.644614511296226
10
-157.30845779854005
20
-69.945614511295716
10
-157.30845779854005
20
-81.343614511294916
10
-158.60945779853955
20
-82.644614511296211
0
CIRCLE
5
250
100
AcDbEntity
8
0
100
AcDbCircle
10
-207.47095779854035
20
-37.544614511295968
30
0
40
0.81150000000000944
210
0
220
-0
230
1
0
LWPOLYLINE
5
251
100
AcDbEntity
8
0
100
AcDbPolyline
90
8
70
1
43
0.0
10
-256.33245779853939
20
-101.69461451129551
10
-257.63345779853887
20
-100.39361451129602
10
-257.63345779853887
20
-88.995614511295017
10
-256.33245779853939
20
-87.694614511295526
10
-244.33445779853974
20
-87.694614511295526
10
-243.03345779854027
20
-88.995614511295017
10
-243.03345779854027
20
-100.39361451129602
10
-244.33445779853974
20
-101.69461451129551
0
CIRCLE
5
252
100
AcDbEntity
8
0
100
AcDbCircle
10
-145.55845779853999
20
-106.89459284216613
30
0
40
0.99999999999999645
210
0
220
-0
230
1
0
LWPOLYLINE
5
253
100
AcDbEntity
8
0
100
AcDbPolyline
90
8
70
1
43
0.0
10
-57.295957798539376
20
-43.243614511296457
10
-58.596957798540586
20
-44.544614511295961
10
-70.594957798540193
20
-44.544614511295961
10
-71.895957798539712
20
-43.243614511296457
10
-71.895957798539712
20
-31.845614511295341
10
-70.594957798540193
20
-30.54461451129594
10
-58.596957798540586
20
-30.54461451129594
10
-57.295957798539376
20
-31.845614511295341
0
CIRCLE
5
254
100
AcDbEntity
8
0
100
AcDbCircle
10
-78.883457798538956
20
-75.644614511296183
30
0
40
0.81150000000000055
210
0
220
-0
230
1
0
CIRCLE
5
255
100
AcDbEntity
8
0
100
AcDbCircle
10
-202.70845779853965
20
-94.694614511295526
30
0
40
0.81150000000000944
210
0
220
-0
230
1
0
CIRCLE
5
256
100
AcDbEntity
8
0
100
AcDbCircle
10
-88.408457798540354
20
-94.694614511295484
30
0
40
0.81149999999999167
210
0
220
-0
230
1
0
LWPOLYLINE
5
257
100
AcDbEntity
8
0
100
AcDbPolyline
90
8
70
1
43
0.0
10
-162.07095779853893
20
-50.895614511296436
10
-162.07095779853893
20
-62.293614511295736
10
-163.37195779854028
20
-63.594614511295106
10
-175.36995779853982
20
-63.594614511295106
10
-176.67095779853929
20
-62.293614511295736
10
-176.67095779853929
20
-50.895614511296436
10
-175.36995779853982
20
-49.59461451129512
10
-163.37195779854028
20
-49.59461451129512
0
LWPOLYLINE
5
258
100
AcDbEntity
8
0
100
AcDbPolyline
90
8
70
1
43
0.0
10
-199.18245779853976
20
-101.69461451129551
10
-200.48345779853932
20
-100.39361451129602
10
-200.48345779853932
20
-88.995614511295017
10
-199.18245779853976
20
-87.694614511295526
10
-187.18445779854017
20
-87.694614511295526
10
-185.88345779853887
20
-88.995614511295017
10
-185.88345779853887
20
-100.39361451129602
10
-187.18445779854017
20
-101.69461451129551
0
CIRCLE
5
259
100
AcDbEntity
8
0
100
AcDbCircle
10
-164.60845779853935
20
-18.494614511294856
30
0
40
0.81150000000000944
210
0
220
-0
230
1
0
CIRCLE
5
260
100
AcDbEntity
8
0
100
AcDbCircle
10
-259.85845722905304
20
-5.2945945080959405
30
0
40
1.0000000000000142
210
0
220
-0
230
1
0
CIRCLE
5
261
100
AcDbEntity
8
0
100
AcDbCircle
10
-86.027207798540076
20
-18.494614511294856
30
0
40
0.81149999999999167
210
0
220
-0
230
1
0
LWPOLYLINE
5
262
100
AcDbEntity
8
0
100
AcDbPolyline
90
8
70
1
43
0.0
10
-252.55845779853999
20
-24.193614511295358
10
-253.85945779853949
20
-25.494614511294849
10
-265.85745779853892
20
-25.494614511294849
10
-267.15845779854027
20
-24.193614511295358
10
-267.15845779854027
20
-12.795614511296165
10
-265.85745779853892
20
-11.494614511294863
10
-253.85945779853949
20
-11.494614511294863
10
-252.55845779853999
20
-12.795614511296165
0
LWPOLYLINE
5
263
100
AcDbEntity
8
0
100
AcDbPolyline
90
8
70
1
43
0.0
10
-49.071957798539202
20
-63.594614511295106
10
-61.069957798540585
20
-63.594614511295106
10
-62.37095779854009
20
-62.293614511295736
10
-62.37095779854009
20
-50.895614511296436
10
-61.069957798540585
20
-49.59461451129512
10
-49.071957798539202
20
-49.59461451129512
10
-47.770957798539712
20
-50.895614511296436
10
-47.770957798539712
20
-62.293614511295736
0
LWPOLYLINE
5
264
100
AcDbEntity
8
0
100
AcDbPolyline
90
6
70
1
43
0.0
10
-17.639707798539348
20
-44.544614511295947
10
-49.639707798539391
20
-44.544614511295961
10
-49.639707798539391
20
-32.276614511295847
10
-46.639707798539391
20
-30.54461451129594
10
-20.639707798539355
20
-30.54461451129594
10
-17.639707798539348
20
-32.276614511295833
0
CIRCLE
5
265
100
AcDbEntity
8
0
100
AcDbCircle
10
-126.5084577985389
20
-94.694614511295526
30
0
40
0.81149999999999167
210
0
220
-0
230
1
0
LWPOLYLINE
5
266
100
AcDbEntity
8
0
100
AcDbPolyline
90
8
70
1
43
0.0
10
-242.044957798539
20
-25.494614511294849
10
-243.34595779854027
20
-24.193614511295358
10
-243.34595779854027
20
-12.795614511296165
10
-242.044957798539
20
-11.494614511294863
10
-230.04695779853955
20
-11.494614511294863
10
-228.74595779853996
20
-12.795614511296165
10
-228.74595779853996
20
-24.193614511295358
10
-230.04695779853955
20
-25.494614511294849
0
LWPOLYLINE
5
267
100
AcDbEntity
8
0
100
AcDbPolyline
90
8
70
1
43
0.0
10
-63.35945779853958
20
-82.644614511296183
10
-75.357457798539087
20
-82.644614511296183
10
-76.658457798540368
20
-81.343614511294874
10
-76.658457798540368
20
-69.945614511295688
10
-75.357457798539087
20
-68.644614511296197
10
-63.35945779853958
20
-68.644614511296197
10
-62.05845779854009
20
-69.945614511295688
10
-62.05845779854009
20
-81.343614511294874
0
LWPOLYLINE
5
268
100
AcDbEntity
8
0
100
AcDbPolyline
90
8
70
1
43
0.0
10
-36.177207798539754
20
-62.293614511295736
10
-36.177207798539754
20
-50.895614511296436
10
-34.876207798540229
20
-49.59461451129512
10
-22.878207798540657
20
-49.59461451129512
10
-21.577207798539355
20
-50.895614511296436
10
-21.577207798539355
20
-62.293614511295736
10
-22.878207798540657
20
-63.594614511295106
10
-34.876207798540229
20
-63.594614511295106
0
LWPOLYLINE
5
269
100
AcDbEntity
8
0
100
AcDbPolyline
90
8
70
1
43
0.0
10
-218.23245779853897
20
-101.69461451129551
10
-219.53345779854027
20
-100.39361451129602
10
-219.53345779854027
20
-88.995614511295017
10
-218.23245779853897
20
-87.694614511295526
10
-206.23445779853952
20
-87.694614511295526
10
-204.93345779853996
20
-88.995614511295017
10
-204.93345779853996
20
-100.39361451129602
10
-206.23445779853952
20
-101.69461451129551
0
LWPOLYLINE
5
270
100
AcDbEntity
8
0
100
AcDbPolyline
90
8
70
1
43
0.0
10
-289.66995779853897
20
-25.494614511294849
10
-290.97095779854033
20
-24.193614511295358
10
-290.97095779854033
20
-12.795614511296165
10
-289.66995779853897
20
-11.494614511294863
10
-277.67195779853949
20
-11.494614511294863
10
-276.37095779853996
20
-12.795614511296165
10
-276.37095779853996
20
-24.193614511295358
10
-277.67195779853949
20
-25.494614511294849
0
LWPOLYLINE
5
271
100
AcDbEntity
8
0
100
AcDbPolyline
90
8
70
1
43
0.0
10
-19.195957798538998
20
-81.343614511294874
10
-20.496957798540265
20
-82.644614511296183
10
-32.494957798539872
20
-82.644614511296183
10
-33.795957798539362
20
-81.343614511294874
10
-33.795957798539362
20
-69.945614511295688
10
-32.494957798539872
20
-68.644614511296197
10
-20.496957798540265
20
-68.644614511296197
10
-19.195957798538998
20
-69.945614511295688
0
CIRCLE
5
272
100
AcDbEntity
8
0
100
AcDbCircle
10
-55.070957798538984
20
-37.544614511295947
30
0
40
0.81150000000000055
210
0
220
-0
230
1
0
CIRCLE
5
273
100
AcDbEntity
8
0
100
AcDbCircle
10
-245.57095779853887
20
-37.544614511295968
30
0
40
0.81150000000000944
210
0
220
-0
230
1
0
LWPOLYLINE
5
274
100
AcDbEntity
8
0
100
AcDbPolyline
90
8
70
1
43
0.0
10
-57.608457798539376
20
-81.343614511294874
10
-57.608457798539376
20
-69.945614511295688
10
-56.307457798539872
20
-68.644614511296197
10
-44.309457798540279
20
-68.644614511296197
10
-43.008457798539013
20
-69.945614511295688
10
-43.008457798539013
20
-81.343614511294874
10
-44.309457798540279
20
-82.644614511296183
10
-56.307457798539872
20
-82.644614511296183
0
LWPOLYLINE
5
275
100
AcDbEntity
8
0
100
AcDbPolyline
90
8
70
1
43
0.0
10
-167.14595779853965
20
-43.243614511296457
10
-167.14595779853965
20
-31.845614511295341
10
-165.84495779854018
20
-30.54461451129594
10
-153.84695779854059
20
-30.54461451129594
10
-152.54595779853935
20
-31.845614511295341
10
-152.54595779853935
20
-43.243614511296457
10
-153.84695779854059
20
-44.544614511295961
10
-165.84495779854018
20
-44.544614511295961
0
CIRCLE
5
276
100
AcDbEntity
8
0
100
AcDbCircle
10
-50.308457798540104
20
-94.694614511295484
30
0
40
0.81150000000000055
210
0
220
-0
230
1
0
CIRCLE
5
277
100
AcDbEntity
8
0
100
AcDbCircle
10
-64.595957798540383
20
-56.594614511295092
30
0
40
0.81150000000000055
210
0
220
-0
230
1
0
CIRCLE
5
278
100
AcDbEntity
8
0
100
AcDbCircle
10
-250.20314579854031
20
-18.494614511294873
30
0
40
0.81150000000000944
210
0
220
-0
230
1
0
CIRCLE
5
279
100
AcDbEntity
8
0
100
AcDbCircle
10
-155.08345779853965
20
-75.644614511296226
30
0
40
0.81149999999999167
210
0
220
-0
230
1
0
CIRCLE
5
280
100
AcDbEntity
8
0
100
AcDbCircle
10
-38.40220779854009
20
-18.494614511294856
30
0
40
0.81150000000000055
210
0
220
-0
230
1
0
CIRCLE
5
281
100
AcDbEntity
8
0
100
AcDbCircle
10
-169.37095779854005
20
-37.544614511295947
30
0
40
0.81150000000000944
210
0
220
-0
230
1
0
LWPOLYLINE
5
282
100
AcDbEntity
8
0
100
AcDbPolyline
90
8
70
1
43
0.0
10
-48.083457798539712
20
-88.995614511294988
10
-46.7824577985402
20
-87.694614511295498
10
-34.784457798540629
20
-87.694614511295498
10
-33.483457798539362
20
-88.995614511294988
10
-33.483457798539362
20
-100.39361451129599
10
-34.784457798540629
20
-101.69461451129548
10
-46.7824577985402
20
-101.69461451129548
10
-48.083457798539712
20
-100.39361451129599
0
LWPOLYLINE
5
283
100
AcDbEntity
8
0
100
AcDbPolyline
90
8
70
1
43
0.0
10
-180.13245779854054
20
-87.694614511295526
10
-168.13445779853907
20
-87.694614511295526
10
-166.8334577985396
20
-88.995614511295017
10
-166.8334577985396
20
-100.39361451129602
10
-168.13445779853907
20
-101.69461451129551
10
-180.13245779854054
20
-101.69461451129551
10
-181.43345779854002
20
-100.39361451129602
10
-181.43345779854002
20
-88.995614511295017
0
CIRCLE
5
284
100
AcDbEntity
8
0
100
AcDbCircle
10
-31.258457798539901
20
-106.89457657430691
30
0
40
0.99999999999999645
210
0
220
-0
230
1
0
CIRCLE
5
285
100
AcDbEntity
8
0
100
AcDbCircle
10
-16.970957798540447
20
-75.644614511296183
30
0
40
0.81150000000000055
210
0
220
-0
230
1
0
CIRCLE
5
286
100
AcDbEntity
8
0
100
AcDbCircle
10
-164.60845779853926
20
-94.694614511295526
30
0
40
0.81150000000000944
210
0
220
-0
230
1
0
CIRCLE
5
287
100
AcDbEntity
8
0
100
AcDbCircle
10
-178.89595779853963
20
-56.594614511295092
30
0
40
0.81150000000000944
210
0
220
-0
230
1
0
LWPOLYLINE
5
288
100
AcDbEntity
8
0
100
AcDbPolyline
90
8
70
1
43
0.0
10
-67.133457798538984
20
-100.39361451129599
10
-67.133457798538984
20
-88.995614511294988
10
-65.83245779853948
20
-87.694614511295498
10
-53.834457798539873
20
-87.694614511295498
10
-52.533457798540368
20
-88.995614511294988
10
-52.533457798540368
20
-100.39361451129599
10
-53.834457798539873
20
-101.69461451129548
10
-65.83245779853948
20
-101.69461451129548
0
CIRCLE
5
289
100
AcDbEntity
8
0
100
AcDbCircle
10
-50.308457229053957
20
-5.294609425072978
30
0
40
0.99999999999999645
210
0
220
-0
230
1
0
CIRCLE
5
290
100
AcDbEntity
8
0
100
AcDbCircle
10
-37.783457798540439
20
-75.99461451129477
30
0
40
0.81150000000000055
210
0
220
-0
230
1
0
LWPOLYLINE
5
291
100
AcDbEntity
8
0
100
AcDbPolyline
90
8
70
1
43
0.0
10
-14.433457798540097
20
-88.995614511294988
10
-14.433457798540097
20
-100.39361451129599
10
-15.734457798539552
20
-101.69461451129548
10
-27.732457798539158
20
-101.69461451129548
10
-29.033457798540425
20
-100.39361451129599
10
-29.033457798540425
20
-88.995614511294988
10
-27.732457798539158
20
-87.694614511295498
10
-15.734457798539552
20
-87.694614511295498
0
LWPOLYLINE
5
292
100
AcDbEntity
8
0
100
AcDbPolyline
90
8
70
1
43
0.0
10
-57.608457798539376
20
-24.19361451129534
10
-57.608457798539376
20
-12.795614511296147
10
-56.307457798539872
20
-11.494614511294845
10
-44.309457798540279
20
-11.494614511294845
10
-43.008457798539013
20
-12.795614511296147
10
-43.008457798539013
20
-24.19361451129534
10
-44.309457798540279
20
-25.494614511294831
10
-56.307457798539872
20
-25.494614511294831
0
LWPOLYLINE
5
293
100
AcDbEntity
8
0
100
AcDbPolyline
90
8
70
1
43
0.0
10
-20.496957798540265
20
-25.494614511294831
10
-32.494957798539872
20
-25.494614511294831
10
-33.795957798539362
20
-24.19361451129534
10
-33.795957798539362
20
-12.795614511296147
10
-32.494957798539872
20
-11.494614511294845
10
-20.496957798540265
20
-11.494614511294845
10
-19.195957798538998
20
-12.795614511296129
10
-19.195957798538998
20
-24.193614511295323
0
ENDSEC
0
SECTION
2
OBJECTS
0
DICTIONARY
5
C
100
AcDbDictionary
3
ACAD_GROUP
350
D
3
ACAD_MLINESTYLE
350
17
0
DICTIONARY
5
D
100
AcDbDictionary
0
DICTIONARY
5
1A
330
C
100
AcDbDictionary
0
DICTIONARY
5
17
100
AcDbDictionary
0
ENDSEC
0
EOF
